<?xml version="1.0" encoding="utf-8" ?>
<svg baseProfile="full" height="200mm" version="1.1" viewBox="0,0,200,200" width="200mm" xmlns="http://www.w3.org/2000/svg" xmlns:ev="http://www.w3.org/2001/xml-events" xmlns:xlink="http://www.w3.org/1999/xlink"><defs /><rect fill="#2b2b2b" height="200" width="200" x="0" y="0" /><text alignment-baseline="middle" fill="#e1ed5e" style="dominant-baseline: central; font-size:9.0px; font-family:Arial;" text-anchor="middle" x="100.0" y="100.0">2022</text><line stroke="#e1ed5e" stroke-width="0.3" x1="100.0" x2="100.0" y1="15.0" y2="10.0" /><path d="M 100.0 14.0 a86.0,86.0 0 0,1 42.46469731375804,11.215312516191453" fill="none" id="id85" stroke="none" /><text fill="#e1ed5e" style="font-size:6.75px; font-family:Arial;" text-anchor="middle"><textPath startOffset="22.20632615414155" xlink:href="#id85">January</textPath></text><path d="M 100.0 79.0 l 0.0 -45.950518774502214 a66.95051877450221,66.95051877450221 0 0,0 1.1524431244834032,0.00991944181170798 l -0.7909626452108749 45.94371070929906" fill="#43ff2d" stroke="none" /><path d="M 100.36148047927253 79.00311137660856 l 0.7618392678575708 -44.25205556970492 a65.25861296080461,65.25861296080461 0 0,0 1.1229868832457988,0.029003438060213927 l -1.5234527862982374 44.23238533950235" fill="#5dff2a" stroke="none" /><path d="M 100.72285384407766 79.0124445844662 l 1.3080689352896948 -37.9788659791388 a59.001385572119034,59.001385572119034 0 0,0 1.014709109576315,0.043695508755667835 l -1.9616188772553413 37.95072274385894" fill="#c5ff1e" stroke="none" /><path d="M 101.08401301168833 79.027996857942 l 2.068727593650715 -40.022915893355396 a61.076345023758485,61.076345023758485 0 0,0 1.0494601525113323,0.06330630235084553 l -2.757349795001659 39.981376321624246" fill="#a1ff22" stroke="none" /><path d="M 101.44485096284872 79.0497635885617 l 2.632711041439592 -38.17412324134532 a59.26479913279487,59.26479913279487 0 0,0 1.0171245253775947,0.07894843891396436 l -3.2894257561795275 38.12314954024289" fill="#c0ff1e" stroke="none" /><path d="M 101.80526077348638 79.07773832637324 l 4.260305367392054 -49.37526202045173 a70.55871973136203,70.55871973136203 0 0,0 1.209157633142809,0.1148240869774023 l -5.109588127625107 49.29461238895915" fill="#34ff58" stroke="none" /><path d="M 102.16513564639614 79.11191278185805 l 6.240075765709015 -60.20096110786412 a81.523501748266,81.523501748266 0 0,0 1.3945693464028701,0.1566961151336459 l -7.27541181562161 60.08462903925987" fill="#48f5ff" stroke="none" /><path d="M 102.52436894288641 79.15227682838746 l 4.66621347618022 -38.53633482743674 a59.817813567196175,59.817813567196175 0 0,0 1.0211335779382555,0.13257244514630304 l -5.328861782626322 38.450304059126296" fill="#b7ff1f" stroke="none" /><path d="M 102.88285421437855 79.19881850522331 l 8.648562643135682 -62.40354448433004 a84.0,84.0 0 0,0 1.430524078285377,0.2108220633561242 l -9.721455701849713 62.245427936812945" fill="#4dd2ff" stroke="none" /><path d="M 103.2404852339499 79.25152402106235 l 5.381730939670855 -34.45864031627077 a55.876366214861484,55.876366214861484 0 0,0 0.9490222807585514,0.15659680786184274 l -5.974082426568282 34.360897245469296" fill="#fdff18" stroke="none" /><path d="M 103.59715602781102 79.31037775812273 l 8.112269520438826 -46.659024686318496 a68.35898543519191,68.35898543519191 0 0,0 1.1575613684385706,0.21153694113608676 l -8.914226009980297 46.51247226383167" fill="#2fff30" stroke="none" /><path d="M 103.95276090670814 79.375362276772 l 4.1864929075408375 -21.844199936899695 a43.24175788349784,43.24175788349784 0 0,0 0.7298253098857799,0.14639609132304218 l -4.561884626893743 21.768899889499444" fill="#ff0000" stroke="none" /><path d="M 104.307194497241 79.44645832069477 l 5.876022506069568 -28.03984671795022 a49.64892047631079,49.64892047631079 0 0,0 0.8349465478158117,0.18248697594679691 l -6.357811778038909 27.934546243907555" fill="#ff880c" stroke="none" /><path d="M 105.36241919743992 79.69619591428918 l 11.375008722291494 -43.069357330534515 a65.54615992762423,65.54615992762423 0 0,0 1.0883849676210853,0.2974967256311829 l -12.11469157913629 42.86717406407704" fill="#59ff2a" stroke="none" /><path d="M 105.71112130821622 79.79150937346287 l 11.53279426246777 -40.808162210733 a63.406502408450365,63.406502408450365 0 0,0 1.0477465045559693,0.3058659357807749 l -12.233530984747166 40.603597946033524" fill="#7bff26" stroke="none" /><line stroke="#e1ed5e" stroke-width="0.3" x1="143.23703022742887" x2="145.7803849466894" y1="26.81831364943548" y2="22.513508569990506" /><path d="M 143.74570117128098 25.957352633546492 a86.0,86.0 0 0,1 28.547481713284135,27.462654790039103" fill="none" id="id86" stroke="none" /><text fill="#e1ed5e" style="font-size:6.75px; font-family:Arial;" text-anchor="middle"><textPath startOffset="19.985693538727396" xlink:href="#id86">February</textPath></text><line stroke="#e1ed5e" stroke-width="0.3" x1="172.23445277983987" x2="176.4835382374775" y1="55.19839476539836" y2="52.563006222186495" /><path d="M 173.08426987136738 54.67131705675599 a86.0,86.0 0 0,1 12.851231095245387,41.99856678651699" fill="none" id="id87" stroke="none" /><text fill="#e1ed5e" style="font-size:6.75px; font-family:Arial;" text-anchor="middle"><textPath startOffset="22.20632615414155" xlink:href="#id87">March</textPath></text><line stroke="#e1ed5e" stroke-width="0.3" x1="184.98032266829074" x2="189.97916517819016" y1="98.17113171792111" y2="98.06355123074" /><path d="M 185.9800911702706 98.14961562048488 a86.0,86.0 0 0,1 -9.607161424134198,41.387399972396054" fill="none" id="id88" stroke="none" /><text fill="#e1ed5e" style="font-size:6.75px; font-family:Arial;" text-anchor="middle"><textPath startOffset="21.466115282336823" xlink:href="#id88">April</textPath></text><line stroke="#e1ed5e" stroke-width="0.3" x1="174.80103733775053" x2="179.2010983576182" y1="140.37084112569926" y2="142.7455964860345" /><path d="M 175.68104954172406 140.8457921977663 a86.0,86.0 0 0,1 -30.038265399797805,32.042727171017184" fill="none" id="id89" stroke="none" /><text fill="#e1ed5e" style="font-size:6.75px; font-family:Arial;" text-anchor="middle"><textPath startOffset="22.206326154141568" xlink:href="#id89">May</textPath></text><line stroke="#e1ed5e" stroke-width="0.3" x1="143.8653032363475" x2="146.44561519142675" y1="172.8068346515853" y2="177.08958963109032" /><path d="M 144.38136562736335 173.6633856474863 a86.0,86.0 0 0,1 -40.68145358897372,12.25698825130547" fill="none" id="id90" stroke="none" /><text fill="#e1ed5e" style="font-size:6.75px; font-family:Arial;" text-anchor="middle"><textPath startOffset="21.466115282336833" xlink:href="#id90">June</textPath></text><line stroke="#e1ed5e" stroke-width="0.3" x1="102.19456741930631" x2="102.32365962044197" y1="184.97166512339345" y2="189.96999836594603" /><path d="M 102.22038585953345 185.97133177190398 a86.0,86.0 0 0,1 -42.740103519485714,-10.115201625700543" fill="none" id="id91" stroke="none" /><text fill="#e1ed5e" style="font-size:6.75px; font-family:Arial;" text-anchor="middle"><textPath startOffset="22.20632615414155" xlink:href="#id91">July</textPath></text><line stroke="#e1ed5e" stroke-width="0.3" x1="58.666819895761336" x2="56.23545636021788" y1="174.27360380694188" y2="178.64263932499728" /><path d="M 58.180547188652646 175.14741091055294 a86.0,86.0 0 0,1 -31.652253787137756,-30.449443065178592" fill="none" id="id92" stroke="none" /><text fill="#e1ed5e" style="font-size:6.75px; font-family:Arial;" text-anchor="middle"><textPath startOffset="22.20632615414155" xlink:href="#id92">August</textPath></text><line stroke="#e1ed5e" stroke-width="0.3" x1="26.63291911575756" x2="22.317208475507996" y1="142.92168965132927" y2="145.44649492493687" /><path d="M 25.769776987707644 143.4266507060508 a86.0,86.0 0 0,1 -11.730757126820373,-40.83630448921669" fill="none" id="id93" stroke="none" /><text fill="#e1ed5e" style="font-size:6.75px; font-family:Arial;" text-anchor="middle"><textPath startOffset="21.46611528233685" xlink:href="#id93">September</textPath></text><line stroke="#e1ed5e" stroke-width="0.3" x1="15.007084014347285" x2="10.007500721073583" y1="101.09737516637583" y2="101.16192664675087" /><path d="M 14.007167355692545 101.11028546245083 a86.0,86.0 0 0,1 10.666146001902534,-42.60595125391555" fill="none" id="id94" stroke="none" /><text fill="#e1ed5e" style="font-size:6.75px; font-family:Arial;" text-anchor="middle"><textPath startOffset="22.20632615414155" xlink:href="#id94">October</textPath></text><line stroke="#e1ed5e" stroke-width="0.3" x1="26.266209847984243" x2="21.928928074336255" y1="57.711370442889674" y2="55.22380399835377" /><path d="M 25.398753493254645 57.213857153982495 a86.0,86.0 0 0,1 29.58750427330803,-30.492523968695096" fill="none" id="id95" stroke="none" /><text fill="#e1ed5e" style="font-size:6.75px; font-family:Arial;" text-anchor="middle"><textPath startOffset="21.46611528233685" xlink:href="#id95">November</textPath></text><line stroke="#e1ed5e" stroke-width="0.3" x1="56.762969772571076" x2="54.21961505331055" y1="26.818313649435495" y2="22.513508569990535" /><path d="M 56.25429882871897 25.957352633546506 a86.0,86.0 0 0,1 42.265352541879196,-11.944610805530505" fill="none" id="id96" stroke="none" /><text fill="#e1ed5e" style="font-size:6.75px; font-family:Arial;" text-anchor="middle"><textPath startOffset="22.20632615414155" xlink:href="#id96">December</textPath></text></svg>