<?xml version="1.0" encoding="utf-8" ?>
<svg baseProfile="full" height="200mm" version="1.1" viewBox="0,0,200,200" width="200mm" xmlns="http://www.w3.org/2000/svg" xmlns:ev="http://www.w3.org/2001/xml-events" xmlns:xlink="http://www.w3.org/1999/xlink"><defs /><rect fill="#2b2b2b" height="200" width="200" x="0" y="0" /><text alignment-baseline="middle" fill="#e1ed5e" style="dominant-baseline: central; font-size:9.0px; font-family:Arial;" text-anchor="middle" x="100.0" y="100.0">2022</text><line stroke="#e1ed5e" stroke-width="0.3" x1="100.0" x2="100.0" y1="15.0" y2="10.0" /><path d="M 100.0 14.0 a86.0,86.0 0 0,1 42.46469731375804,11.215312516191453" fill="none" id="id85" stroke="none" /><text fill="#e1ed5e" style="font-size:6.75px; font-family:Arial;" text-anchor="middle"><textPath startOffset="22.20632615414155" xlink:href="#id85">January</textPath></text><path d="M 100.0 79.0 l 0.0 -37.44135558551438 a58.44135558551438,58.44135558551438 0 0,0 1.0059718679232377,0.008658717463868603 l -0.6444913886507093 37.43580824465907" fill="#a6ff21" stroke="none" /><path d="M 100.36148047927253 79.00311137660856 l 0.6207611075479583 -36.05741550179513 a57.062758588629066,57.062758588629066 0 0,0 0.981950527439802,0.025360885087525126 l -1.241338270182628 36.04138782456524" fill="#bcff1f" stroke="none" /><path d="M 100.72285384407766 79.0124445844662 l 1.065839416893008 -30.94590145625478 a51.96425084840314,51.96425084840314 0 0,0 0.8936840753295834,0.03848391619808142 l -1.598364324611923 30.922969813532504" fill="#ffef16" stroke="none" /><path d="M 101.08401301168833 79.027996857942 l 1.6856385413960109 -32.611432155664225 a53.654967226070376,53.654967226070376 0 0,0 0.9219404020682384,0.055613962762785095 l -2.2467409923038613 32.57758492352114" fill="#f3ff19" stroke="none" /><path d="M 101.44485096284872 79.0497635885617 l 2.145182968231189 -31.10500078265858 a52.17888522151458,52.17888522151458 0 0,0 0.8955134353319144,0.0695090777795273 l -2.680286592925445 31.063466442690586" fill="#fff316" stroke="none" /><path d="M 101.80526077348638 79.07773832637324 l 3.471377743223953 -40.23190143963077 a61.38138626749105,61.38138626749105 0 0,0 1.0518865991446653,0.09988930726642972 l -4.1633894694588625 40.16618658784916" fill="#7aff26" stroke="none" /><path d="M 102.16513564639614 79.11191278185805 l 5.084532272007917 -49.052886703860295 a70.31569894472595,70.31569894472595 0 0,0 1.202844777472935,0.135153625902483 l -5.928143752990577 48.95809712448721" fill="#36ff6a" stroke="none" /><path d="M 102.52436894288641 79.15227682838746 l 3.802119381000948 -31.400137663671714 a52.629491887871325,52.629491887871325 0 0,0 0.8984236994246506,0.11664118111814267 l -4.342057808933444 31.330038159389435" fill="#fffa17" stroke="none" /><path d="M 102.88285421437855 79.19881850522331 l 7.047013131980623 -50.847593479853536 a72.3335967644461,72.3335967644461 0 0,0 1.2318446647681591,0.18154188237917138 l -7.921226777177437 50.718757113313394" fill="#39ff8a" stroke="none" /><path d="M 103.2404852339499 79.25152402106235 l 4.385136602409639 -28.077554715024263 a49.4179257124262,49.4179257124262 0 0,0 0.8393300378486259,0.13849664790229965 l -4.86779584639714 27.997911804182337" fill="#ffc312" stroke="none" /><path d="M 103.59715602781102 79.31037775812273 l 6.610031308043066 -38.01865966142555 a59.58900097624472,59.58900097624472 0 0,0 1.0090542607503155,0.18439821643960166 l -7.263480689896283 37.89924596363521" fill="#95ff23" stroke="none" /><path d="M 103.95276090670814 79.375362276772 l 3.411233948776426 -17.79906906671028 a39.123006833712985,39.123006833712985 0 0,0 0.6603098945007183,0.1324519529638732 l -3.71711025274427 17.737713157669198" fill="#ff0000" stroke="none" /><path d="M 104.307194497241 79.44645832069477 l 4.787894760402941 -22.847399758033873 a44.34368462647018,44.34368462647018 0 0,0 0.745728326841871,0.1629873284693884 l -5.1804658113983395 22.761598931468615" fill="#ff6609" stroke="none" /><path d="M 105.36241919743992 79.69619591428918 l 9.268573189558232 -35.093730509674586 a57.29705731951094,57.29705731951094 0 0,0 0.9514097537420712,0.2600562254093676 l -9.871280832524015 34.928987743438924" fill="#b8ff1f" stroke="none" /><path d="M 105.71112130821622 79.79150937346287 l 9.397139845029173 -33.25126577180754 a55.55362372739528,55.55362372739528 0 0,0 0.9179833749675281,0.26798451991460503 l -9.968113437720127 33.08458292297423" fill="#d4ff1c" stroke="none" /><path d="M 106.0581310904928 79.89281104454417 l 8.821117155028487 -29.277654574480824 a51.57765794244804,51.57765794244804 0 0,0 0.8478743791931554,0.263438696856308 l -9.32377690693236 29.121475742741996" fill="#ffe815" stroke="none" /><path d="M 106.40334571778207 80.00007090966166 l 10.976398630598306 -34.28320193139451 a56.99748965645483,56.99748965645483 0 0,0 0.9318198708629083,0.307206360989849 l -11.564901323703632 34.08918184614542" fill="#bdff1f" stroke="none" /><path d="M 106.74666289553966 80.11325718540242 l 10.622240487989954 -31.310555747363285 a54.06331644275022,54.06331644275022 0 0,0 0.8787039439015509,0.3065625522230316 l -11.159626435954777 31.123072341968047" fill="#ecff1a" stroke="none" /><path d="M 107.08798089147638 80.2323363322302 l 15.7935015624264 -44.0464826023836 a67.79238529124633,67.79238529124633 0 0,0 1.0950654889917133,0.4033218612334712 l -16.54934937719069 43.76809747334381" fill="#31ff41" stroke="none" /><path d="M 107.4271985657038 80.35727306442388 l 20.25744893139827 -53.57491579776124 a78.27683510761935,78.27683510761935 0 0,0 1.2562195819910866,0.4873936812703726 l -21.17665167838902 53.218279412600324" fill="#43ffe1" stroke="none" /><path d="M 107.76421540070413 80.48803036053334 l 23.292646202112408 -58.53590891839998 a84.0,84.0 0 0,0 1.33886452164645,0.5461564552656828 l -24.296794593347244 58.12629157695072" fill="#4dd2ff" stroke="none" /><line stroke="#e1ed5e" stroke-width="0.3" x1="143.23703022742887" x2="145.7803849466894" y1="26.81831364943548" y2="22.513508569990506" /><path d="M 143.74570117128098 25.957352633546492 a86.0,86.0 0 0,1 28.547481713284135,27.462654790039103" fill="none" id="id86" stroke="none" /><text fill="#e1ed5e" style="font-size:6.75px; font-family:Arial;" text-anchor="middle"><textPath startOffset="19.985693538727396" xlink:href="#id86">February</textPath></text><path d="M 112.19680574252982 82.90503203632743 l 27.360010204006937 -38.34762213948656 a68.10743340616429,68.10743340616429 0 0,0 0.9484922805121515,0.6891199792768643 l -28.016047800872876 37.870982925393015" fill="#32ff46" stroke="none" /><path d="M 113.34407831869373 83.78471172551755 l 22.232450163054704 -27.016147524926012 a55.98791316070847,55.98791316070847 0 0,0 0.7388870549465616,0.6187966592636088 l -22.694194754960385 26.629449708268584" fill="#cdff1d" stroke="none" /><path d="M 113.6212207817346 84.01681056812373 l 20.353537896825458 -23.882914536563757 a52.37929431453675,52.37929431453675 0 0,0 0.681195719038394,0.5907262149360136 l -20.761627414510617 23.52902332820807" fill="#fff617" stroke="none" /><path d="M 113.89432698308785 84.25364557470407 l 25.723656366578652 -29.152459903649795 a59.87894565571103,59.87894565571103 0 0,0 0.7669894502725282,0.6886107014144565 l -26.221656804447168 28.705350193466042" fill="#90ff24" stroke="none" /><path d="M 114.42810811169701 84.74124197986012 l 29.91156453516959 -31.633622489696467 a64.53605132257914,64.53605132257914 0 0,0 0.8006058457438487,0.7701821892864023 l -30.451653624525854 31.11405721364776" fill="#4dff2c" stroke="none" /><path d="M 114.94478906791727 85.2469230424477 l 23.519009085432373 -23.217306676320387 a54.04825438147924,54.04825438147924 0 0,0 0.6478989101087304,0.6677167787891012 l -23.915172259244212 22.809025701981174" fill="#ecff1a" stroke="none" /><path d="M 115.4437574822437 85.77008943001954 l 26.46147439794174 -24.38165806899434 a56.98159081400214,56.98159081400214 0 0,0 0.6584259704205955,0.7270504016932829 l -26.877244008978373 23.92255488003151" fill="#bdff1f" stroke="none" /><path d="M 115.68641384162765 86.03803664274999 l 25.39086991006324 -22.599581961317206 a54.991725163869646,54.991725163869646 0 0,0 0.6232608583281792,0.7124949026024682 l -25.776122631969265 22.15917150251179" fill="#ddff1b" stroke="none" /><path d="M 115.9244219780498 86.31012108654704 l 27.06105809378153 -23.26380254708336 a56.68620705685463,56.68620705685463 0 0,0 0.6297281175255173,0.745399464677228 l -27.457496824794163 22.794544132777023" fill="#c2ff1e" stroke="none" /><path d="M 116.15771136456269 86.58626213691792 l 25.313536770709124 -21.014680790404817 a53.89972572172376,53.89972572172376 0 0,0 0.5864842192419929,0.7189603061160122 l -25.671519482027527 20.575836314680704" fill="#efff19" stroke="none" /><path d="M 116.60985879189232 87.15038557335679 l 28.783126865348823 -22.267021462784612 a57.39077681186369,57.39077681186369 0 0,0 0.5977496999039349,0.7865685376413395 l -29.16215250547687 21.768268149262237" fill="#b7ff1f" stroke="none" /><path d="M 116.82858285166822 87.43820079747576 l 25.965239215452716 -19.38191255585684 a53.40142252800893,53.40142252800893 0 0,0 0.5435181209139336,0.7413581061086557 l -26.295019948880274 18.93209200607669" fill="#f7ff18" stroke="none" /><path d="M 117.04232023915458 87.72973835380427 l 39.81823127235694 -28.66863837460609 a70.06508298080053,70.06508298080053 0 0,0 0.6962713624041339,0.9848264641898195 l -40.30581525456496 27.97898541008448" fill="#35ff66" stroke="none" /><path d="M 117.2510076193507 88.02491185347247 l 30.41452877102576 -21.112776192828537 a58.02422016642648,58.02422016642648 0 0,0 0.5624910297397775,0.8253861783956221 l -30.77344426643427 20.58611199116251" fill="#adff20" stroke="none" /><path d="M 117.45458315368197 88.32363383020206 l 34.29236668351207 -22.940119892877618 a62.25791455534378,62.25791455534378 0 0,0 0.5881990344466203,0.8958674834783968 l -34.68216235331661 22.34643434542155" fill="#6dff28" stroke="none" /><path d="M 117.65298651832404 88.62581576622439 l 28.388720311858282 -18.291439505322845 a54.77123332248617,54.77123332248617 0 0,0 0.5038233713084888,0.7969275799657001 l -28.699371279412727 17.80006427764294" fill="#e0ff1b" stroke="none" /><line stroke="#e1ed5e" stroke-width="0.3" x1="172.23445277983987" x2="176.4835382374775" y1="55.19839476539836" y2="52.563006222186495" /><path d="M 173.08426987136738 54.67131705675599 a86.0,86.0 0 0,1 12.851231095245387,41.99856678651699" fill="none" id="id87" stroke="none" /><text fill="#e1ed5e" style="font-size:6.75px; font-family:Arial;" text-anchor="middle"><textPath startOffset="22.20632615414155" xlink:href="#id87">March</textPath></text><path d="M 118.03404312379186 89.2402003453031 l 30.970115909435638 -18.477955286058044 a57.0635953698108,57.0635953698108 0 0,0 0.49601939403327555,0.847857931451805 l -31.28359497793924 17.94211794225234" fill="#bcff1f" stroke="none" /><path d="M 118.21658344932153 89.55222093294921 l 25.795283185554467 -14.79439986342339 a50.73669285481846,50.73669285481846 0 0,0 0.42798178311066204,0.7613318366631816 l -26.04612260995756 14.348184516825414" fill="#ffda14" stroke="none" /><path d="M 118.3937258080291 89.86733742301442 l 28.986270085823413 -15.967841274268226 a54.09344056529217,54.09344056529217 0 0,0 0.4422574109746673,0.8194358152759444 l -29.256835596016547 15.466524475659822" fill="#ebff1a" stroke="none" /><path d="M 118.89224826269711 90.83032412892265 l 31.50330733464527 -15.290669120414679 a56.018037283250436,56.018037283250436 0 0,0 0.413577984658809,0.871100711227448 l -31.761843513145838 14.74612599354669" fill="#ccff1d" stroke="none" /><path d="M 119.04729006885535 91.15688171328212 l 33.52000235989547 -15.562389440600963 a57.95644089070708,57.95644089070708 0 0,0 0.4123122850534463,0.9084754660507945 l -33.782916961912264 14.983091965708107" fill="#aeff20" stroke="none" /><path d="M 119.196687751892 91.48605970444005 l 31.70844009559944 -14.06303886005883 a55.68709032587979,55.68709032587979 0 0,0 0.381083439126605,0.8795931188846401 l -31.945814244568727 13.515146596587588" fill="#d2ff1c" stroke="none" /><path d="M 119.34039704204932 91.81776055985345 l 27.677561230467354 -11.709399378649188 a51.05257775091813,51.05257775091813 0 0,0 0.33543564562775874,0.8122840224043648 l -27.87501856298131 11.23124078579152" fill="#ffdf14" stroke="none" /><path d="M 120.28053869075195 94.5502522615342 l 35.74849505818793 -9.606267519203255 a58.01668913579098,58.01668913579098 0 0,0 0.25086324696524664,0.9666784241159257 l -35.90855463702348 8.98949266953848" fill="#adff20" stroke="none" /><path d="M 120.67395015179393 96.31383870115 l 39.916292035175324 -7.11706712134497 a61.545813769699215,61.545813769699215 0 0,0 0.17698272022738862,1.0445620331994094 l -40.03288661692294 6.428919299829722" fill="#78ff26" stroke="none" /><path d="M 120.73433829027371 96.67025291283417 l 35.91058450308135 -5.766914886483174 a57.37069406350239,57.37069406350239 0 0,0 0.1481915258210452,0.9763969990941932 l -36.0045319223417 5.147918774996898" fill="#b7ff1f" stroke="none" /><path d="M 120.83666639777658 97.38593545837742 l 46.381948636731714 -5.818848609851418 a67.74552554506997,67.74552554506997 0 0,0 0.13519957434191582,1.1583073879729056 l -46.475238564077216 5.019597483553659" fill="#31ff40" stroke="none" /><path d="M 120.87857604477298 97.74499172005257 l 37.04558250055571 -4.0011394979756165 a58.26102924085351,58.26102924085351 0 0,0 0.09910721072357191,0.9979960868704488 l -37.108966836961514 3.362867880400733" fill="#a9ff21" stroke="none" /><path d="M 120.91429891909075 98.10471618934814 l 31.43165909196836 -2.8483820973103877 a52.56045744037934,52.56045744037934 0 0,0 0.07389879221955609,0.901752443855336 l -31.47603236800741 2.3069157362472827" fill="#fff917" stroke="none" /><path d="M 120.94382443527127 98.46500227214037 l 35.473074962802045 -2.5998637276769325 a56.56822091023198,56.56822091023198 0 0,0 0.06281607045515591,0.9717368068903858 l -35.51257162426161 1.9888678565335114" fill="#c3ff1e" stroke="none" /><path d="M 120.96714384426684 98.82574320788733 l 39.246713601268084 -2.197997035585328 a60.308214401933895,60.308214401933895 0 0,0 0.04912647344275101,1.036982209520818 l -39.278733682944335 1.5221037194415103" fill="#8aff24" stroke="none" /><line stroke="#e1ed5e" stroke-width="0.3" x1="184.98032266829074" x2="189.97916517819016" y1="98.17113171792111" y2="98.06355123074" /><path d="M 185.9800911702706 98.14961562048488 a86.0,86.0 0 0,1 -9.607161424134198,41.387399972396054" fill="none" id="id88" stroke="none" /><text fill="#e1ed5e" style="font-size:6.75px; font-family:Arial;" text-anchor="middle"><textPath startOffset="21.466115282336823" xlink:href="#id88">April</textPath></text><path d="M 120.9764740272857 100.99374915477107 l 37.617565836814656 1.7821119129103036 a58.65975547394356,58.65975547394356 0 0,0 -0.05646322448445845,1.0081888030187718 l -37.58131626144267 -2.4293724322644987" fill="#a3ff22" stroke="none" /><path d="M 120.92983693683757 101.71520430193887 l 40.31318692175517 3.303673690422354 a61.44832876202873,61.44832876202873 0 0,0 -0.09546554923619956,1.0534543808055485 l -40.25034677624189 -3.997109459776473" fill="#79ff26" stroke="none" /><path d="M 120.76222939487914 103.15116336523771 l 33.97624941007967 5.156705977616688 a55.365347961508064,55.365347961508064 0 0,0 -0.1511164102062123,0.9410020306059621 l -33.882451245512165 -5.740787237915854" fill="#d7ff1c" stroke="none" /><path d="M 120.5718875245553 104.21870165774334 l 34.03036152818095 6.978647069753775 a55.73855236855562,55.73855236855562 0 0,0 -0.20083386405117765,0.9382289518110748 l -33.90519362540533 -7.563389840981019" fill="#d1ff1d" stroke="none" /><path d="M 120.49622156327973 104.57218783832717 l 40.492346046504146 9.032816686117839 a62.487610989726186,62.487610989726186 0 0,0 -0.24322390279295172,1.0478022074710882 l -40.330861577780645 -9.72848755093749" fill="#6aff28" stroke="none" /><path d="M 120.13307415673323 105.97154293290107 l 30.268804178750656 8.9778372777977 a52.57217237692343,52.57217237692343 0 0,0 -0.26479658803195855,0.8653705707164875 l -30.109780818212563 -9.497534821066244" fill="#fff917" stroke="none" /><line stroke="#e1ed5e" stroke-width="0.3" x1="174.80103733775053" x2="179.2010983576182" y1="140.37084112569926" y2="142.7455964860345" /><path d="M 175.68104954172406 140.8457921977663 a86.0,86.0 0 0,1 -30.038265399797805,32.042727171017184" fill="none" id="id89" stroke="none" /><text fill="#e1ed5e" style="font-size:6.75px; font-family:Arial;" text-anchor="middle"><textPath startOffset="22.206326154141568" xlink:href="#id89">May</textPath></text><path d="M 115.32070863581623 114.36230785411682 l 29.853694536696263 27.986169681240327 a61.92027334851936,61.92027334851936 0 0,0 -0.7356525017752042,0.7713287070113579 l -29.367535483542095 -28.495905504834194" fill="#72ff27" stroke="none" /><path d="M 114.81725581225074 114.88116024355365 l 29.77601539903554 29.9044345445678 a63.200548556552455,63.200548556552455 0 0,0 -0.7775173680695836,0.7609643903695847 l -29.25684807859016 -30.412549037859957" fill="#60ff29" stroke="none" /><path d="M 114.55890576462653 115.13401014063108 l 22.046478377432226 22.91735606531155 a52.8001952489424,52.8001952489424 0 0,0 -0.6604152013840904,0.6244637939471358 l -21.648727341657327 -23.293454496004607" fill="#fffd17" stroke="none" /><path d="M 114.29624159901734 115.38237550388516 l 28.717902984272296 30.89969936004611 a63.184231323508904,63.184231323508904 0 0,0 -0.8030428479444959,0.7335606016351462 l -28.18176058686094 -31.38945272826784" fill="#60ff29" stroke="none" /><path d="M 113.20401910651253 116.32954008644616 l 21.85651565829536 27.03016753559055 a55.76114546046208,55.76114546046208 0 0,0 -0.7515606866705563,0.5970852633469022 l -21.387997478907455 -27.40238671294258" fill="#d0ff1d" stroke="none" /><path d="M 112.63410532772338 116.77436683061366 l 25.429643136174484 33.7630683988174 a63.268327832271865,63.268327832271865 0 0,0 -0.8755584268830314,0.6477171925623441 l -24.844699738872887 -34.19579554011952" fill="#5fff29" stroke="none" /><path d="M 112.34349029814194 116.9893568818739 l 27.256474631862076 37.515318899076135 a67.37148435684068,67.37148435684068 0 0,0 -0.9440755584987894,0.6735728442281486 l -26.606671745514404 -37.978936005148505" fill="#30ff3a" stroke="none" /><line stroke="#e1ed5e" stroke-width="0.3" x1="143.8653032363475" x2="146.44561519142675" y1="172.8068346515853" y2="177.08958963109032" /><path d="M 144.38136562736335 173.6633856474863 a86.0,86.0 0 0,1 -40.68145358897372,12.25698825130547" fill="none" id="id90" stroke="none" /><text fill="#e1ed5e" style="font-size:6.75px; font-family:Arial;" text-anchor="middle"><textPath startOffset="21.466115282336833" xlink:href="#id90">June</textPath></text><path d="M 110.8373102113329 117.98757091392108 l 22.735485976601993 37.73594723153061 a65.05569243642788,65.05569243642788 0 0,0 -0.9641629361291537,0.5696444574109085 l -22.082555169444458 -38.121710261235265" fill="#46ff2c" stroke="none" /><path d="M 110.5260780823613 118.17145234162733 l 21.274523819676467 36.72678396029375 a63.443633489842405,63.443633489842405 0 0,0 -0.9496944961205461,0.5392613204010837 l -20.639180556634724 -37.087548446489464" fill="#5cff2a" stroke="none" /><path d="M 109.2508944713604 118.85261126421891 l 19.508545669858293 39.75691528886442 a65.2853888708103,65.2853888708103 0 0,0 -1.0131276760797936,0.48636285218578507 l -18.821305325778265 -40.086832417549765" fill="#43ff2d" stroke="none" /><path d="M 108.92500713936063 119.00905698771935 l 18.402548308175422 39.194936659112294 a64.30007902933383,64.30007902933383 0 0,0 -1.0059349445628745,0.4617753950554468 l -17.725145367845126 -39.505899124501816" fill="#50ff2b" stroke="none" /><path d="M 106.91757812671514 119.82793768551818 l 14.384558332216452 41.23063318120068 a64.6678443587002,64.6678443587002 0 0,0 -1.0541790680803655,0.3576347755979288 l -13.67270953119886 -41.47213094369673" fill="#4bff2c" stroke="none" /><path d="M 106.57524785965236 119.94407469862006 l 13.352673990821563 40.501397541741675 a63.645716145228015,63.645716145228015 0 0,0 -1.043421978342996,0.3340707672853732 l -12.653530667387626 -40.72524115568675" fill="#59ff2a" stroke="none" /><path d="M 106.2309692047433 120.05430185196036 l 13.165864089649505 42.37418031126244 a65.37241411370925,65.37241411370925 0 0,0 -1.0774775479052594,0.3246351465007536 l -12.434511567303998 -42.594530826868926" fill="#41ff2d" stroke="none" /><path d="M 105.88484417918355 120.15858648285463 l 12.256415078965547 41.984459709750325 a64.73687880619218,64.73687880619218 0 0,0 -1.0723782100411323,0.3030647938540384 l -11.53190570081981 -42.18921329694288" fill="#4aff2c" stroke="none" /><path d="M 104.48393922423573 120.51570834832081 l 9.18204456215883 42.01130721405879 a64.00302170982289,64.00302170982289 0 0,0 -1.0783245512026776,0.22597339405774816 l -8.457528549526774 -42.16313658884308" fill="#54ff2b" stroke="none" /><path d="M 104.13013068566511 120.58985236759428 l 8.347265193527027 41.61344303326866 a63.44237831806983,63.44237831806983 0 0,0 -1.072576138643272,0.20556176972370815 l -7.629721440312051 -41.75096200134084" fill="#5cff2a" stroke="none" /><path d="M 103.7750983002368 120.6578951692458 l 7.813014663533599 42.75396957608568 a64.46199618799683,64.46199618799683 0 0,0 -1.093247916348565,0.190075163587345 l -7.075917775712983 -42.88212331819403" fill="#4eff2b" stroke="none" /><line stroke="#e1ed5e" stroke-width="0.3" x1="102.19456741930631" x2="102.32365962044197" y1="184.97166512339345" y2="189.96999836594603" /><path d="M 102.22038585953345 185.97133177190398 a86.0,86.0 0 0,1 -42.740103519485714,-10.115201625700543" fill="none" id="id91" stroke="none" /><text fill="#e1ed5e" style="font-size:6.75px; font-family:Arial;" text-anchor="middle"><textPath startOffset="22.20632615414155" xlink:href="#id91">July</textPath></text><line stroke="#e1ed5e" stroke-width="0.3" x1="58.666819895761336" x2="56.23545636021788" y1="174.27360380694188" y2="178.64263932499728" /><path d="M 58.180547188652646 175.14741091055294 a86.0,86.0 0 0,1 -31.652253787137756,-30.449443065178592" fill="none" id="id92" stroke="none" /><text fill="#e1ed5e" style="font-size:6.75px; font-family:Arial;" text-anchor="middle"><textPath startOffset="22.20632615414155" xlink:href="#id92">August</textPath></text><line stroke="#e1ed5e" stroke-width="0.3" x1="26.63291911575756" x2="22.317208475507996" y1="142.92168965132927" y2="145.44649492493687" /><path d="M 25.769776987707644 143.4266507060508 a86.0,86.0 0 0,1 -11.730757126820373,-40.83630448921669" fill="none" id="id93" stroke="none" /><text fill="#e1ed5e" style="font-size:6.75px; font-family:Arial;" text-anchor="middle"><textPath startOffset="21.46611528233685" xlink:href="#id93">September</textPath></text><line stroke="#e1ed5e" stroke-width="0.3" x1="15.007084014347285" x2="10.007500721073583" y1="101.09737516637583" y2="101.16192664675087" /><path d="M 14.007167355692545 101.11028546245083 a86.0,86.0 0 0,1 10.666146001902534,-42.60595125391555" fill="none" id="id94" stroke="none" /><text fill="#e1ed5e" style="font-size:6.75px; font-family:Arial;" text-anchor="middle"><textPath startOffset="22.20632615414155" xlink:href="#id94">October</textPath></text><line stroke="#e1ed5e" stroke-width="0.3" x1="26.266209847984243" x2="21.928928074336255" y1="57.711370442889674" y2="55.22380399835377" /><path d="M 25.398753493254645 57.213857153982495 a86.0,86.0 0 0,1 29.58750427330803,-30.492523968695096" fill="none" id="id95" stroke="none" /><text fill="#e1ed5e" style="font-size:6.75px; font-family:Arial;" text-anchor="middle"><textPath startOffset="21.46611528233685" xlink:href="#id95">November</textPath></text><line stroke="#e1ed5e" stroke-width="0.3" x1="56.762969772571076" x2="54.21961505331055" y1="26.818313649435495" y2="22.513508569990535" /><path d="M 56.25429882871897 25.957352633546506 a86.0,86.0 0 0,1 42.265352541879196,-11.944610805530505" fill="none" id="id96" stroke="none" /><text fill="#e1ed5e" style="font-size:6.75px; font-family:Arial;" text-anchor="middle"><textPath startOffset="22.20632615414155" xlink:href="#id96">December</textPath></text></svg>