<?xml version="1.0" encoding="utf-8" ?>
<svg baseProfile="full" height="200mm" version="1.1" viewBox="0,0,200,200" width="200mm" xmlns="http://www.w3.org/2000/svg" xmlns:ev="http://www.w3.org/2001/xml-events" xmlns:xlink="http://www.w3.org/1999/xlink"><defs /><rect fill="#2b2b2b" height="200" width="200" x="0" y="0" /><text alignment-baseline="middle" fill="#e1ed5e" style="dominant-baseline: central; font-size:9.0px; font-family:Arial;" text-anchor="middle" x="100.0" y="100.0">2022</text><line stroke="#e1ed5e" stroke-width="0.3" x1="100.0" x2="100.0" y1="15.0" y2="10.0" /><path d="M 100.0 14.0 a86.0,86.0 0 0,1 42.46469731375804,11.215312516191453" fill="none" id="id85" stroke="none" /><text fill="#e1ed5e" style="font-size:6.75px; font-family:Arial;" text-anchor="middle"><textPath startOffset="22.20632615414155" xlink:href="#id85">January</textPath></text><path d="M 100.0 79.0 l 0.0 -37.44135558551438 a58.44135558551438,58.44135558551438 0 0,0 1.0059718679232377,0.008658717463868603 l -0.6444913886507093 37.43580824465907" fill="#a6ff21" stroke="none" /><path d="M 100.36148047927253 79.00311137660856 l 0.6207611075479583 -36.05741550179513 a57.062758588629066,57.062758588629066 0 0,0 0.981950527439802,0.025360885087525126 l -1.241338270182628 36.04138782456524" fill="#bcff1f" stroke="none" /><path d="M 100.72285384407766 79.0124445844662 l 1.065839416893008 -30.94590145625478 a51.96425084840314,51.96425084840314 0 0,0 0.8936840753295834,0.03848391619808142 l -1.598364324611923 30.922969813532504" fill="#ffef16" stroke="none" /><path d="M 101.08401301168833 79.027996857942 l 1.6856385413960109 -32.611432155664225 a53.654967226070376,53.654967226070376 0 0,0 0.9219404020682384,0.055613962762785095 l -2.2467409923038613 32.57758492352114" fill="#f3ff19" stroke="none" /><path d="M 101.44485096284872 79.0497635885617 l 2.145182968231189 -31.10500078265858 a52.17888522151458,52.17888522151458 0 0,0 0.8955134353319144,0.0695090777795273 l -2.680286592925445 31.063466442690586" fill="#fff316" stroke="none" /><path d="M 101.80526077348638 79.07773832637324 l 3.471377743223953 -40.23190143963077 a61.38138626749105,61.38138626749105 0 0,0 1.0518865991446653,0.09988930726642972 l -4.1633894694588625 40.16618658784916" fill="#7aff26" stroke="none" /><path d="M 102.16513564639614 79.11191278185805 l 5.084532272007917 -49.052886703860295 a70.31569894472595,70.31569894472595 0 0,0 1.202844777472935,0.135153625902483 l -5.928143752990577 48.95809712448721" fill="#36ff6a" stroke="none" /><path d="M 102.52436894288641 79.15227682838746 l 3.802119381000948 -31.400137663671714 a52.629491887871325,52.629491887871325 0 0,0 0.8984236994246506,0.11664118111814267 l -4.342057808933444 31.330038159389435" fill="#fffa17" stroke="none" /><path d="M 102.88285421437855 79.19881850522331 l 7.047013131980623 -50.847593479853536 a72.3335967644461,72.3335967644461 0 0,0 1.2318446647681591,0.18154188237917138 l -7.921226777177437 50.718757113313394" fill="#39ff8a" stroke="none" /><path d="M 103.2404852339499 79.25152402106235 l 4.385136602409639 -28.077554715024263 a49.4179257124262,49.4179257124262 0 0,0 0.8393300378486259,0.13849664790229965 l -4.86779584639714 27.997911804182337" fill="#ffc312" stroke="none" /><path d="M 103.59715602781102 79.31037775812273 l 6.610031308043066 -38.01865966142555 a59.58900097624472,59.58900097624472 0 0,0 1.0090542607503155,0.18439821643960166 l -7.263480689896283 37.89924596363521" fill="#95ff23" stroke="none" /><path d="M 103.95276090670814 79.375362276772 l 3.411233948776426 -17.79906906671028 a39.123006833712985,39.123006833712985 0 0,0 0.6603098945007183,0.1324519529638732 l -3.71711025274427 17.737713157669198" fill="#ff0000" stroke="none" /><path d="M 104.307194497241 79.44645832069477 l 4.787894760402941 -22.847399758033873 a44.34368462647018,44.34368462647018 0 0,0 0.745728326841871,0.1629873284693884 l -5.1804658113983395 22.761598931468615" fill="#ff6609" stroke="none" /><path d="M 105.36241919743992 79.69619591428918 l 9.268573189558232 -35.093730509674586 a57.29705731951094,57.29705731951094 0 0,0 0.9514097537420712,0.2600562254093676 l -9.871280832524015 34.928987743438924" fill="#b8ff1f" stroke="none" /><path d="M 105.71112130821622 79.79150937346287 l 9.397139845029173 -33.25126577180754 a55.55362372739528,55.55362372739528 0 0,0 0.9179833749675281,0.26798451991460503 l -9.968113437720127 33.08458292297423" fill="#d4ff1c" stroke="none" /><path d="M 106.0581310904928 79.89281104454417 l 8.821117155028487 -29.277654574480824 a51.57765794244804,51.57765794244804 0 0,0 0.8478743791931554,0.263438696856308 l -9.32377690693236 29.121475742741996" fill="#ffe815" stroke="none" /><path d="M 106.40334571778207 80.00007090966166 l 10.976398630598306 -34.28320193139451 a56.99748965645483,56.99748965645483 0 0,0 0.9318198708629083,0.307206360989849 l -11.564901323703632 34.08918184614542" fill="#bdff1f" stroke="none" /><path d="M 106.74666289553966 80.11325718540242 l 10.622240487989954 -31.310555747363285 a54.06331644275022,54.06331644275022 0 0,0 0.8787039439015509,0.3065625522230316 l -11.159626435954777 31.123072341968047" fill="#ecff1a" stroke="none" /><path d="M 107.08798089147638 80.2323363322302 l 15.7935015624264 -44.0464826023836 a67.79238529124633,67.79238529124633 0 0,0 1.0950654889917133,0.4033218612334712 l -16.54934937719069 43.76809747334381" fill="#31ff41" stroke="none" /><path d="M 107.4271985657038 80.35727306442388 l 20.25744893139827 -53.57491579776124 a78.27683510761935,78.27683510761935 0 0,0 1.2562195819910866,0.4873936812703726 l -21.17665167838902 53.218279412600324" fill="#43ffe1" stroke="none" /><path d="M 107.76421540070413 80.48803036053334 l 23.292646202112408 -58.53590891839998 a84.0,84.0 0 0,0 1.33886452164645,0.5461564552656828 l -24.296794593347244 58.12629157695072" fill="#4dd2ff" stroke="none" /><line stroke="#e1ed5e" stroke-width="0.3" x1="143.23703022742887" x2="145.7803849466894" y1="26.81831364943548" y2="22.513508569990506" /><path d="M 143.74570117128098 25.957352633546492 a86.0,86.0 0 0,1 28.547481713284135,27.462654790039103" fill="none" id="id86" stroke="none" /><text fill="#e1ed5e" style="font-size:6.75px; font-family:Arial;" text-anchor="middle"><textPath startOffset="19.985693538727396" xlink:href="#id86">February</textPath></text><path d="M 112.19680574252982 82.90503203632743 l 27.360010204006937 -38.34762213948656 a68.10743340616429,68.10743340616429 0 0,0 0.9484922805121515,0.6891199792768643 l -28.016047800872876 37.870982925393015" fill="#32ff46" stroke="none" /><path d="M 113.34407831869373 83.78471172551755 l 22.232450163054704 -27.016147524926012 a55.98791316070847,55.98791316070847 0 0,0 0.7388870549465616,0.6187966592636088 l -22.694194754960385 26.629449708268584" fill="#cdff1d" stroke="none" /><path d="M 113.6212207817346 84.01681056812373 l 20.353537896825458 -23.882914536563757 a52.37929431453675,52.37929431453675 0 0,0 0.681195719038394,0.5907262149360136 l -20.761627414510617 23.52902332820807" fill="#fff617" stroke="none" /><path d="M 113.89432698308785 84.25364557470407 l 25.723656366578652 -29.152459903649795 a59.87894565571103,59.87894565571103 0 0,0 0.7669894502725282,0.6886107014144565 l -26.221656804447168 28.705350193466042" fill="#90ff24" stroke="none" /><path d="M 114.42810811169701 84.74124197986012 l 29.91156453516959 -31.633622489696467 a64.53605132257914,64.53605132257914 0 0,0 0.8006058457438487,0.7701821892864023 l -30.451653624525854 31.11405721364776" fill="#4dff2c" stroke="none" /><path d="M 114.94478906791727 85.2469230424477 l 23.519009085432373 -23.217306676320387 a54.04825438147924,54.04825438147924 0 0,0 0.6478989101087304,0.6677167787891012 l -23.915172259244212 22.809025701981174" fill="#ecff1a" stroke="none" /><path d="M 115.4437574822437 85.77008943001954 l 26.46147439794174 -24.38165806899434 a56.98159081400214,56.98159081400214 0 0,0 0.6584259704205955,0.7270504016932829 l -26.877244008978373 23.92255488003151" fill="#bdff1f" stroke="none" /><path d="M 115.68641384162765 86.03803664274999 l 25.39086991006324 -22.599581961317206 a54.991725163869646,54.991725163869646 0 0,0 0.6232608583281792,0.7124949026024682 l -25.776122631969265 22.15917150251179" fill="#ddff1b" stroke="none" /><path d="M 115.9244219780498 86.31012108654704 l 27.06105809378153 -23.26380254708336 a56.68620705685463,56.68620705685463 0 0,0 0.6297281175255173,0.745399464677228 l -27.457496824794163 22.794544132777023" fill="#c2ff1e" stroke="none" /><path d="M 116.15771136456269 86.58626213691792 l 25.313536770709124 -21.014680790404817 a53.89972572172376,53.89972572172376 0 0,0 0.5864842192419929,0.7189603061160122 l -25.671519482027527 20.575836314680704" fill="#efff19" stroke="none" /><line stroke="#e1ed5e" stroke-width="0.3" x1="172.23445277983987" x2="176.4835382374775" y1="55.19839476539836" y2="52.563006222186495" /><path d="M 173.08426987136738 54.67131705675599 a86.0,86.0 0 0,1 12.851231095245387,41.99856678651699" fill="none" id="id87" stroke="none" /><text fill="#e1ed5e" style="font-size:6.75px; font-family:Arial;" text-anchor="middle"><textPath startOffset="22.20632615414155" xlink:href="#id87">March</textPath></text><line stroke="#e1ed5e" stroke-width="0.3" x1="184.98032266829074" x2="189.97916517819016" y1="98.17113171792111" y2="98.06355123074" /><path d="M 185.9800911702706 98.14961562048488 a86.0,86.0 0 0,1 -9.607161424134198,41.387399972396054" fill="none" id="id88" stroke="none" /><text fill="#e1ed5e" style="font-size:6.75px; font-family:Arial;" text-anchor="middle"><textPath startOffset="21.466115282336823" xlink:href="#id88">April</textPath></text><line stroke="#e1ed5e" stroke-width="0.3" x1="174.80103733775053" x2="179.2010983576182" y1="140.37084112569926" y2="142.7455964860345" /><path d="M 175.68104954172406 140.8457921977663 a86.0,86.0 0 0,1 -30.038265399797805,32.042727171017184" fill="none" id="id89" stroke="none" /><text fill="#e1ed5e" style="font-size:6.75px; font-family:Arial;" text-anchor="middle"><textPath startOffset="22.206326154141568" xlink:href="#id89">May</textPath></text><line stroke="#e1ed5e" stroke-width="0.3" x1="143.8653032363475" x2="146.44561519142675" y1="172.8068346515853" y2="177.08958963109032" /><path d="M 144.38136562736335 173.6633856474863 a86.0,86.0 0 0,1 -40.68145358897372,12.25698825130547" fill="none" id="id90" stroke="none" /><text fill="#e1ed5e" style="font-size:6.75px; font-family:Arial;" text-anchor="middle"><textPath startOffset="21.466115282336833" xlink:href="#id90">June</textPath></text><line stroke="#e1ed5e" stroke-width="0.3" x1="102.19456741930631" x2="102.32365962044197" y1="184.97166512339345" y2="189.96999836594603" /><path d="M 102.22038585953345 185.97133177190398 a86.0,86.0 0 0,1 -42.740103519485714,-10.115201625700543" fill="none" id="id91" stroke="none" /><text fill="#e1ed5e" style="font-size:6.75px; font-family:Arial;" text-anchor="middle"><textPath startOffset="22.20632615414155" xlink:href="#id91">July</textPath></text><line stroke="#e1ed5e" stroke-width="0.3" x1="58.666819895761336" x2="56.23545636021788" y1="174.27360380694188" y2="178.64263932499728" /><path d="M 58.180547188652646 175.14741091055294 a86.0,86.0 0 0,1 -31.652253787137756,-30.449443065178592" fill="none" id="id92" stroke="none" /><text fill="#e1ed5e" style="font-size:6.75px; font-family:Arial;" text-anchor="middle"><textPath startOffset="22.20632615414155" xlink:href="#id92">August</textPath></text><line stroke="#e1ed5e" stroke-width="0.3" x1="26.63291911575756" x2="22.317208475507996" y1="142.92168965132927" y2="145.44649492493687" /><path d="M 25.769776987707644 143.4266507060508 a86.0,86.0 0 0,1 -11.730757126820373,-40.83630448921669" fill="none" id="id93" stroke="none" /><text fill="#e1ed5e" style="font-size:6.75px; font-family:Arial;" text-anchor="middle"><textPath startOffset="21.46611528233685" xlink:href="#id93">September</textPath></text><line stroke="#e1ed5e" stroke-width="0.3" x1="15.007084014347285" x2="10.007500721073583" y1="101.09737516637583" y2="101.16192664675087" /><path d="M 14.007167355692545 101.11028546245083 a86.0,86.0 0 0,1 10.666146001902534,-42.60595125391555" fill="none" id="id94" stroke="none" /><text fill="#e1ed5e" style="font-size:6.75px; font-family:Arial;" text-anchor="middle"><textPath startOffset="22.20632615414155" xlink:href="#id94">October</textPath></text><line stroke="#e1ed5e" stroke-width="0.3" x1="26.266209847984243" x2="21.928928074336255" y1="57.711370442889674" y2="55.22380399835377" /><path d="M 25.398753493254645 57.213857153982495 a86.0,86.0 0 0,1 29.58750427330803,-30.492523968695096" fill="none" id="id95" stroke="none" /><text fill="#e1ed5e" style="font-size:6.75px; font-family:Arial;" text-anchor="middle"><textPath startOffset="21.46611528233685" xlink:href="#id95">November</textPath></text><line stroke="#e1ed5e" stroke-width="0.3" x1="56.762969772571076" x2="54.21961505331055" y1="26.818313649435495" y2="22.513508569990535" /><path d="M 56.25429882871897 25.957352633546506 a86.0,86.0 0 0,1 42.265352541879196,-11.944610805530505" fill="none" id="id96" stroke="none" /><text fill="#e1ed5e" style="font-size:6.75px; font-family:Arial;" text-anchor="middle"><textPath startOffset="22.20632615414155" xlink:href="#id96">December</textPath></text></svg>