<?xml version="1.0" encoding="utf-8" ?>
<svg baseProfile="full" height="200mm" version="1.1" viewBox="0,0,200,200" width="200mm" xmlns="http://www.w3.org/2000/svg" xmlns:ev="http://www.w3.org/2001/xml-events" xmlns:xlink="http://www.w3.org/1999/xlink"><defs /><rect fill="#2b2b2b" height="200" width="200" x="0" y="0" /><text alignment-baseline="middle" fill="#e1ed5e" style="dominant-baseline: central; font-size:9.0px; font-family:Arial;" text-anchor="middle" x="100.0" y="100.0">2019</text><line stroke="#e1ed5e" stroke-width="0.3" x1="100.0" x2="100.0" y1="15.0" y2="10.0" /><path d="M 100.0 14.0 a86.0,86.0 0 0,1 42.46469731375804,11.215312516191453" fill="none" id="id49" stroke="none" /><text fill="#e1ed5e" style="font-size:6.75px; font-family:Arial;" text-anchor="middle"><textPath startOffset="22.20632615414155" xlink:href="#id49">January</textPath></text><line stroke="#e1ed5e" stroke-width="0.3" x1="143.23703022742887" x2="145.7803849466894" y1="26.81831364943548" y2="22.513508569990506" /><path d="M 143.74570117128098 25.957352633546492 a86.0,86.0 0 0,1 28.547481713284135,27.462654790039103" fill="none" id="id50" stroke="none" /><text fill="#e1ed5e" style="font-size:6.75px; font-family:Arial;" text-anchor="middle"><textPath startOffset="19.985693538727396" xlink:href="#id50">February</textPath></text><line stroke="#e1ed5e" stroke-width="0.3" x1="172.23445277983987" x2="176.4835382374775" y1="55.19839476539836" y2="52.563006222186495" /><path d="M 173.08426987136738 54.67131705675599 a86.0,86.0 0 0,1 12.851231095245387,41.99856678651699" fill="none" id="id51" stroke="none" /><text fill="#e1ed5e" style="font-size:6.75px; font-family:Arial;" text-anchor="middle"><textPath startOffset="22.20632615414155" xlink:href="#id51">March</textPath></text><path d="M 119.34039704204932 91.81776055985345 l 42.76520712824971 -18.09244989490266 a67.43489726403692,67.43489726403692 0 0,0 0.44307396997592363,1.072938762608748 l -43.070302785111835 17.35363656184061" fill="#ffff18" stroke="none" /><path d="M 120.08093135843002 93.85539295169968 l 59.85225184361857 -18.31431829383522 a83.59158334248983,83.59158334248983 0 0,0 0.4091772294620768,1.3795422048492978 l -60.158634970192345 17.281346702239393" fill="#4cdcff" stroke="none" /><path d="M 120.67395015179393 96.31383870115 l 62.02185045538181 -11.058483896549978 a84.0,84.0 0 0,0 0.2415525539191079,1.4256568467366484 l -62.20301487082114 9.98924126149749" fill="#4dd2ff" stroke="none" /><path d="M 120.83666639777658 97.38593545837742 l 39.74100157483857 -4.985708418139181 a61.05252170091199,61.05252170091199 0 0,0 0.12184236346314042,1.0438709622747744 l -39.8209342913053 4.300893717539554" fill="#ff2403" stroke="none" /><line stroke="#e1ed5e" stroke-width="0.3" x1="184.98032266829074" x2="189.97916517819016" y1="98.17113171792111" y2="98.06355123074" /><path d="M 185.9800911702706 98.14961562048488 a86.0,86.0 0 0,1 -9.607161424134198,41.387399972396054" fill="none" id="id52" stroke="none" /><text fill="#e1ed5e" style="font-size:6.75px; font-family:Arial;" text-anchor="middle"><textPath startOffset="21.466115282336823" xlink:href="#id52">April</textPath></text><path d="M 120.89721153311464 102.0752229133903 l 56.512709620153586 5.612063107830137 a77.79068234259972,77.79068234259972 0 0,0 -0.14379310729535633,1.3313455884296261 l -56.40773421135718 -6.584005018144555" fill="#39ff8a" stroke="none" /><path d="M 120.76222939487914 103.15116336523771 l 56.565155240745916 8.585111047255126 a78.21294363256786,78.21294363256786 0 0,0 -0.21347755786943937,1.329324956633241 l -56.40899592851519 -9.55751523358157" fill="#3aff96" stroke="none" /><path d="M 120.5718875245553 104.21870165774334 l 55.727866721281856 11.428180493352842 a77.88759476980552,77.88759476980552 0 0,0 -0.280639987128494,1.3110565900018916 l -55.522892695428915 -12.385750902770901" fill="#39ff8d" stroke="none" /><path d="M 120.32669344350535 105.2749913415812 l 54.65492970618826 14.18353072407798 a77.46533347983738,77.46533347983738 0 0,0 -0.34605580716996537,1.287802394399571 l -54.402685822676524 -15.1222240516531" fill="#38ff80" stroke="none" /><path d="M 120.13307415673323 105.97154293290107 l 47.43804441456843 14.070296302948103 a70.48071640479068,70.48071640479068 0 0,0 -0.3549987071530795,1.1601563150639946 l -47.188818934909214 -14.884779590564154" fill="#a3ff21" stroke="none" /><path d="M 119.54520255179757 107.68017299344265 l 46.033558586724624 18.088617527133625 a70.45994945610371,70.45994945610371 0 0,0 -0.4532835700512321,1.125012647352142 l -45.715372402416 -18.878329542328583" fill="#a4ff21" stroke="none" /><line stroke="#e1ed5e" stroke-width="0.3" x1="174.80103733775053" x2="179.2010983576182" y1="140.37084112569926" y2="142.7455964860345" /><path d="M 175.68104954172406 140.8457921977663 a86.0,86.0 0 0,1 -30.038265399797805,32.042727171017184" fill="none" id="id53" stroke="none" /><text fill="#e1ed5e" style="font-size:6.75px; font-family:Arial;" text-anchor="middle"><textPath startOffset="22.206326154141568" xlink:href="#id53">May</textPath></text><path d="M 117.75023020441432 111.22182372390056 l 44.20491897407437 27.946669014636413 a73.29809910998792,73.29809910998792 0 0,0 -0.6834005394972662,1.0606528136353286 l -43.71731357120005 -28.703443428193196" fill="#56ff2b" stroke="none" /><path d="M 117.35343817320211 111.8261652097733 l 39.813184161791 27.132219490173206 a69.17932095374135,69.17932095374135 0 0,0 -0.6790744030735079,0.978257325389624 l -39.34024885155536 -27.81351807774985" fill="#c9ff1d" stroke="none" /><path d="M 114.81725581225074 114.88116024355365 l 36.68577356526161 36.84399338182556 a72.99351719591255,72.99351719591255 0 0,0 -0.8979942211343948,0.8788763481098075 l -36.04612939175142 -37.47001983285794" fill="#5eff2a" stroke="none" /><path d="M 114.0293411484842 115.62618273729858 l 37.30623943901397 41.5524940583851 a76.84232501922865,76.84232501922865 0 0,0 -0.9918428484237793,0.8751859941434169 l -36.58545423768361 -42.18850319430081" fill="#36ff6e" stroke="none" /><path d="M 113.20401910651253 116.32954008644616 l 30.158438102085046 37.29723654290258 a68.9647291506428,68.9647291506428 0 0,0 -0.929521421565082,0.7384680340857923 l -29.511959187802614 -37.810838490993504" fill="#d0ff1d" stroke="none" /><path d="M 112.04921762599082 117.19931262002967 l 28.446268532253473 40.60481605910973 a70.57762883199649,70.57762883199649 0 0,0 -1.001002897488174,0.6884989205241036 l -27.743108750142415 -41.08845576899893" fill="#a0ff22" stroke="none" /><path d="M 111.1453310114006 117.79835938074945 l 26.75687696605777 42.72896979562629 a71.41522909570378,71.41522909570378 0 0,0 -1.0474940953845782,0.6434564280476539 l -26.017403670740883 -43.183214690502325" fill="#89ff24" stroke="none" /><line stroke="#e1ed5e" stroke-width="0.3" x1="143.8653032363475" x2="146.44561519142675" y1="172.8068346515853" y2="177.08958963109032" /><path d="M 144.38136562736335 173.6633856474863 a86.0,86.0 0 0,1 -40.68145358897372,12.25698825130547" fill="none" id="id54" stroke="none" /><text fill="#e1ed5e" style="font-size:6.75px; font-family:Arial;" text-anchor="middle"><textPath startOffset="21.466115282336833" xlink:href="#id54">June</textPath></text><path d="M 110.21172684928248 118.3499491758327 l 24.424664328665116 43.88986854845908 a71.22832655752114,71.22832655752114 0 0,0 -1.0764879046727482,0.5869870366803257 l -23.66555361212372 -44.303796236899174" fill="#8eff24" stroke="none" /><path d="M 108.2653958097858 119.30500536409082 l 19.319829146420545 45.124203835875626 a70.0861443797385,70.0861443797385 0 0,0 -1.113129973544019,0.46528841921891384 l -18.540227713379064 -45.450077298114515" fill="#afff20" stroke="none" /><path d="M 106.57524785965236 119.94407469862006 l 17.54748049832289 53.22510562356708 a77.04307218986924,77.04307218986924 0 0,0 -1.2630612030280837,0.40439231105142914 l -16.628697950203865 -53.519270781278216" fill="#37ff74" stroke="none" /><path d="M 103.41894727170886 120.7198165907248 l 8.073839661967567 48.92982069749009 a70.59147346445445,70.59147346445445 0 0,0 -1.200606793168293,0.18751008936710176 l -7.230397005190756 -49.0615490942043" fill="#a0ff22" stroke="none" /><path d="M 103.06178313531738 120.77559828337769 l 7.507945745618933 50.944844180874625 a72.49511042742556,72.49511042742556 0 0,0 -1.236115539181646,0.171314350220131 l -6.629901615250457 -51.06653309658736" fill="#6bff28" stroke="none" /><path d="M 102.34483914955558 120.86867818915974 l 5.611536828625503 49.941743869893315 a71.25601582243709,71.25601582243709 0 0,0 -1.2200638374049428,0.12646460528708106 l -4.751040394614958 -50.03093784363616" fill="#8dff24" stroke="none" /><path d="M 101.26447882468166 120.96189622390904 l 2.3533394497811235 39.01248195149667 a60.08339742885397,60.08339742885397 0 0,0 -1.0328963505748165,0.05338894316218271 l -1.6814550307928273 -39.04721070142105" fill="#ff0000" stroke="none" /><line stroke="#e1ed5e" stroke-width="0.3" x1="102.19456741930631" x2="102.32365962044197" y1="184.97166512339345" y2="189.96999836594603" /><path d="M 102.22038585953345 185.97133177190398 a86.0,86.0 0 0,1 -42.740103519485714,-10.115201625700543" fill="none" id="id55" stroke="none" /><text fill="#e1ed5e" style="font-size:6.75px; font-family:Arial;" text-anchor="middle"><textPath startOffset="22.20632615414155" xlink:href="#id55">July</textPath></text><path d="M 100.54218724476979 120.99299961872073 l 1.317191515422499 51.00046385780854 a72.01747060762554,72.01747060762554 0 0,0 -1.2395246147412309,0.021339540340638157 l -0.4391072107886001 -51.015580875428334" fill="#78ff26" stroke="none" /><path d="M 99.09653310690486 120.98055641714683 l -2.1642107171043934 50.257895885091536 a71.30447203604,71.30447203604 0 0,0 -1.2257983419279601,-0.06335977271007989 l 3.0289971274458427 -50.21319630561925" fill="#8cff24" stroke="none" /><path d="M 98.01472825383883 120.90594882070398 l -4.8531288659041705 51.10598278903661 a72.33589715415889,72.33589715415889 0 0,0 -1.2385538434250363,-0.1283811700121258 l 5.7321153059348005 -51.01487225056872" fill="#6fff27" stroke="none" /><path d="M 96.93821686468263 120.77559828337769 l -7.691632548374999 52.1912431109619 a73.75497198110098,73.75497198110098 0 0,0 -1.2544109939146642,-0.19591319898440954 l 8.588879405898181 -52.051111604630385" fill="#4aff2c" stroke="none" /><path d="M 95.86986931433489 120.58985236759428 l -9.677058206913813 48.242831764265496 a70.20382375563125,70.20382375563125 0 0,0 -1.1827958230975615,-0.24786636483847757 l 10.50604549144076 -48.06910941870048" fill="#abff21" stroke="none" /><path d="M 94.81253420990036 120.34920634021253 l -12.323722431353074 48.34306013424186 a70.88913306230084,70.88913306230084 0 0,0 -1.179829976480104,-0.31160382009618337 l 13.154042850644666 -48.12376496484209" fill="#98ff23" stroke="none" /><path d="M 93.42475214034765 119.94407469862007 l -15.969594406082361 48.439053635677176 a72.00362597516757,72.00362597516757 0 0,0 -1.1737628814079628,-0.3982040977743183 l 16.80102702042755 -48.156986551004735" fill="#78ff26" stroke="none" /><line stroke="#e1ed5e" stroke-width="0.3" x1="58.666819895761336" x2="56.23545636021788" y1="174.27360380694188" y2="178.64263932499728" /><path d="M 58.180547188652646 175.14741091055294 a86.0,86.0 0 0,1 -31.652253787137756,-30.449443065178592" fill="none" id="id56" stroke="none" /><text fill="#e1ed5e" style="font-size:6.75px; font-family:Arial;" text-anchor="middle"><textPath startOffset="22.20632615414155" xlink:href="#id56">August</textPath></text><line stroke="#e1ed5e" stroke-width="0.3" x1="26.63291911575756" x2="22.317208475507996" y1="142.92168965132927" y2="145.44649492493687" /><path d="M 25.769776987707644 143.4266507060508 a86.0,86.0 0 0,1 -11.730757126820373,-40.83630448921669" fill="none" id="id57" stroke="none" /><text fill="#e1ed5e" style="font-size:6.75px; font-family:Arial;" text-anchor="middle"><textPath startOffset="21.46611528233685" xlink:href="#id57">September</textPath></text><path d="M 79.23777060512086 103.15116336523772 l -50.918905625063466 7.728158038908471 a72.50203274365455,72.50203274365455 0 0,0 -0.1766493004073665,-1.2354847956162878 l 51.04438897648743 -6.850527771311782" fill="#6bff28" stroke="none" /><path d="M 79.0235259727143 100.99374915477108 l -50.91191460155081 2.4119245225511876 a71.96901439402264,71.96901439402264 0 0,0 -0.04797203344369246,-1.237945024242769 l 50.9458887678457 -1.535202251294422" fill="#79ff26" stroke="none" /><line stroke="#e1ed5e" stroke-width="0.3" x1="15.007084014347285" x2="10.007500721073583" y1="101.09737516637583" y2="101.16192664675087" /><path d="M 14.007167355692545 101.11028546245083 a86.0,86.0 0 0,1 10.666146001902534,-42.60595125391555" fill="none" id="id58" stroke="none" /><text fill="#e1ed5e" style="font-size:6.75px; font-family:Arial;" text-anchor="middle"><textPath startOffset="22.20632615414155" xlink:href="#id58">October</textPath></text><path d="M 79.81627453868168 94.20196356495316 l -43.9646383414102 -12.629411524927882 a66.74266564113833,66.74266564113833 0 0,0 0.3267024970930531,-1.1014784076866666 l 43.74072994720544 13.384319319361087" fill="#ffe915" stroke="none" /><path d="M 80.2630227832202 92.82701384747504 l -45.99728455860892 -16.716738412817755 a69.94077573892979,69.94077573892979 0 0,0 0.42096157762082914,-1.127967739095004 l 45.70271839248646 17.5060292889421" fill="#b3ff20" stroke="none" /><path d="M 80.803312248108 91.48605970444005 l -46.26948055438996 -20.521019044434993 a71.61597626634435,71.61597626634435 0 0,0 0.5094886153618783,-1.1225906286747218 l 45.90938962206473 21.314431681951785" fill="#83ff25" stroke="none" /><line stroke="#e1ed5e" stroke-width="0.3" x1="26.266209847984243" x2="21.928928074336255" y1="57.711370442889674" y2="55.22380399835377" /><path d="M 25.398753493254645 57.213857153982495 a86.0,86.0 0 0,1 29.58750427330803,-30.492523968695096" fill="none" id="id59" stroke="none" /><text fill="#e1ed5e" style="font-size:6.75px; font-family:Arial;" text-anchor="middle"><textPath startOffset="21.46611528233685" xlink:href="#id59">November</textPath></text><path d="M 81.96595687620814 89.24020034530311 l -43.28289242423752 -25.824228530660832 a71.40138446324579,71.40138446324579 0 0,0 0.6388186724350404,-1.050049931422952 l 42.83195795351626 26.565446235290857" fill="#89ff24" stroke="none" /><path d="M 85.05521093208273 85.24692304244772 l -33.38069137156603 -32.95248306703911 a67.90561476760796,67.90561476760796 0 0,0 0.8283327367186177,-0.8247756127038712 l 32.8085228346801 33.522194530393094" fill="#f0ff19" stroke="none" /><line stroke="#e1ed5e" stroke-width="0.3" x1="56.762969772571076" x2="54.21961505331055" y1="26.818313649435495" y2="22.513508569990535" /><path d="M 56.25429882871897 25.957352633546506 a86.0,86.0 0 0,1 42.265352541879196,-11.944610805530505" fill="none" id="id60" stroke="none" /><text fill="#e1ed5e" style="font-size:6.75px; font-family:Arial;" text-anchor="middle"><textPath startOffset="22.20632615414155" xlink:href="#id60">December</textPath></text></svg>