<?xml version="1.0" encoding="utf-8" ?>
<svg baseProfile="full" height="200mm" version="1.1" viewBox="0,0,200,200" width="200mm" xmlns="http://www.w3.org/2000/svg" xmlns:ev="http://www.w3.org/2001/xml-events" xmlns:xlink="http://www.w3.org/1999/xlink"><defs /><rect fill="#2b2b2b" height="200" width="200" x="0" y="0" /><text alignment-baseline="middle" fill="#e1ed5e" style="dominant-baseline: central; font-size:9.0px; font-family:Arial;" text-anchor="middle" x="100.0" y="100.0">2018</text><line stroke="#e1ed5e" stroke-width="0.3" x1="100.0" x2="100.0" y1="15.0" y2="10.0" /><path d="M 100.0 14.0 a86.0,86.0 0 0,1 42.46469731375804,11.215312516191453" fill="none" id="id37" stroke="none" /><text fill="#e1ed5e" style="font-size:6.75px; font-family:Arial;" text-anchor="middle"><textPath startOffset="22.20632615414155" xlink:href="#id37">January</textPath></text><line stroke="#e1ed5e" stroke-width="0.3" x1="143.23703022742887" x2="145.7803849466894" y1="26.81831364943548" y2="22.513508569990506" /><path d="M 143.74570117128098 25.957352633546492 a86.0,86.0 0 0,1 28.547481713284135,27.462654790039103" fill="none" id="id38" stroke="none" /><text fill="#e1ed5e" style="font-size:6.75px; font-family:Arial;" text-anchor="middle"><textPath startOffset="19.985693538727396" xlink:href="#id38">February</textPath></text><path d="M 116.60985879189232 87.15038557335679 l 34.89963207698173 -26.99883373119478 a65.12393162393163,65.12393162393163 0 0,0 0.6782938434930269,0.8925551893261965 l -35.35920186069887 26.39409376598755" fill="#60ff29" stroke="none" /><path d="M 117.2510076193507 88.02491185347247 l 39.79246466531138 -27.622634135305155 a69.44017094017093,69.44017094017093 0 0,0 0.6731580906285615,0.9877764346518447 l -40.262047221608675 26.9335796773829" fill="#31ff44" stroke="none" /><path d="M 117.65298651832404 88.62581576622439 l 44.34441709039315 -28.57202486400613 a73.75213675213675,73.75213675213675 0 0,0 0.6784227399241548,1.0731018509866157 l -44.82966742656326 27.80447536530531" fill="#3aff8f" stroke="none" /><line stroke="#e1ed5e" stroke-width="0.3" x1="172.23445277983987" x2="176.4835382374775" y1="55.19839476539836" y2="52.563006222186495" /><path d="M 173.08426987136738 54.67131705675599 a86.0,86.0 0 0,1 12.851231095245387,41.99856678651699" fill="none" id="id39" stroke="none" /><text fill="#e1ed5e" style="font-size:6.75px; font-family:Arial;" text-anchor="middle"><textPath startOffset="22.20632615414155" xlink:href="#id39">March</textPath></text><path d="M 119.196687751892 91.48605970444005 l 49.63636845249081 -22.014270532231308 a75.2991452991453,75.2991452991453 0 0,0 0.5152946057330007,1.1893709956011516 l -50.007953768066486 21.156600392043554" fill="#3dffa9" stroke="none" /><path d="M 119.47837535516314 92.15188598940014 l 47.59398715698896 -19.176293228586164 a72.31196581196582,72.31196581196582 0 0,0 0.455243252432183,1.1585444216846628 l -47.91702395930284 18.354199802005716" fill="#37ff77" stroke="none" /><path d="M 119.7369772167798 92.82701384747503 l 49.68384374675746 -18.056540233360572 a73.86324786324786,73.86324786324786 0 0,0 0.4239993795855213,1.1987033424587696 l -49.987296207152795 17.198639264475187" fill="#3aff91" stroke="none" /><path d="M 120.18372546131832 94.20196356495316 l 58.42354720427182 -16.782920279223916 a81.78632478632478,81.78632478632478 0 0,0 0.3770475345748765,1.3564405932373014 l -58.703781509413055 15.774768382567663" fill="#49f1ff" stroke="none" /><path d="M 120.67395015179393 96.31383870115 l 59.15677921944944 -10.547642251349155 a81.08974358974359,81.08974358974359 0 0,0 0.23318374596128777,1.376263668438538 l -59.32957482693095 9.52779279459478" fill="#47fbff" stroke="none" /><path d="M 120.78858239683441 97.02765380044208 l 22.091570467291273 -3.158647100954705 a43.31623931623932,43.31623931623932 0 0,0 0.09918181390919259,0.7390197160831425 l -22.142668280258302 2.777909042806898" fill="#ff0000" stroke="none" /><path d="M 120.87857604477298 97.74499172005257 l 50.5266638836875 -5.457175104830043 a71.82051282051282,71.82051282051282 0 0,0 0.12217310252024112,1.2302664694711571 l -50.61311411188997 4.58663310465445" fill="#36ff6e" stroke="none" /><path d="M 120.94382443527127 98.46500227214037 l 45.49762430739128 -3.334574836162308 a66.61965811965811,66.61965811965811 0 0,0 0.07397766927801518,1.144401800439445 l -45.5482825676737 2.5509139714698277" fill="#49ff2c" stroke="none" /><line stroke="#e1ed5e" stroke-width="0.3" x1="184.98032266829074" x2="189.97916517819016" y1="98.17113171792111" y2="98.06355123074" /><path d="M 185.9800911702706 98.14961562048488 a86.0,86.0 0 0,1 -9.607161424134198,41.387399972396054" fill="none" id="id40" stroke="none" /><text fill="#e1ed5e" style="font-size:6.75px; font-family:Arial;" text-anchor="middle"><textPath startOffset="21.466115282336823" xlink:href="#id40">April</textPath></text><path d="M 120.92983693683757 101.71520430193887 l 46.98778206902566 3.850658090962479 a68.14529914529915,68.14529914529915 0 0,0 -0.10586989983023132,1.1682655226301373 l -46.91453757291836 -4.658905002141187" fill="#32ff2f" stroke="none" /><path d="M 120.81339534386255 102.79330883721812 l 52.24950039924469 7.012262477802737 a73.71794871794872,73.71794871794872 0 0,0 -0.17961184777444583,1.2562048450016154 l -52.12105450045364 -7.910612794784762" fill="#3aff8f" stroke="none" /><path d="M 120.49622156327973 104.57218783832717 l 52.0205281516534 11.604462091904034 a74.2991452991453,74.2991452991453 0 0,0 -0.28919857564741724,1.2458598948591473 l -51.81306901007543 -12.498190644111746" fill="#3bff98" stroke="none" /><path d="M 119.9155931802556 106.66101706037122 l 59.746779540766816 19.98305118111367 a84.0,84.0 0 0,0 -0.47043667622707686,1.3673091876427985 l -59.393952033596506 -21.00853307184577" fill="#4dd2ff" stroke="none" /><path d="M 119.54520255179757 107.68017299344265 l 53.771183007275404 21.129071774186237 a78.77350427350427,78.77350427350427 0 0,0 -0.5067664044349786,1.2577526561972767 l -53.39951398858303 -22.051523798226327" fill="#43ffe0" stroke="none" /><path d="M 119.12269723197855 108.67885076344098 l 50.58136317078899 22.95639035881276 a76.54700854700855,76.54700854700855 0 0,0 -0.5548760812301466,1.1951537148761877 l -50.17871247271901 -23.82366414096778" fill="#3fffbd" stroke="none" /><line stroke="#e1ed5e" stroke-width="0.3" x1="174.80103733775053" x2="179.2010983576182" y1="140.37084112569926" y2="142.7455964860345" /><path d="M 175.68104954172406 140.8457921977663 a86.0,86.0 0 0,1 -30.038265399797805,32.042727171017184" fill="none" id="id41" stroke="none" /><text fill="#e1ed5e" style="font-size:6.75px; font-family:Arial;" text-anchor="middle"><textPath startOffset="22.206326154141568" xlink:href="#id41">May</textPath></text><path d="M 118.12598468904814 110.60418214915192 l 46.97485043040864 27.48153432426736 a75.42307692307692,75.42307692307692 0 0,0 -0.6652283933255978,1.1149610510793952 l -46.49484116138481 -28.28605746923286" fill="#3dffab" stroke="none" /><path d="M 117.14729908036423 112.12312394758627 l 43.95347562398615 31.075064966177592 a74.82905982905983,74.82905982905983 0 0,0 -0.7526385501634503,1.0453491185491846 l -43.4120572814471 -31.827047690177906" fill="#3cffa1" stroke="none" /><path d="M 116.498646956653 112.99209946851258 l 43.230886897408226 34.04279054875211 a76.02564102564102,76.02564102564102 0 0,0 -0.8184778885926227,1.0211770127478483 l -42.63849109676075 -34.78189539507821" fill="#3effb5" stroke="none" /><path d="M 116.0416608686014 113.55231037782055 l 40.04539150898114 33.831133781995256 a73.42307692307692,73.42307692307692 0 0,0 -0.8239380022516178,0.9584260397447675 l -39.45711099715874 -34.51543692090156" fill="#39ff8a" stroke="none" /><path d="M 115.07121518719521 114.62390073753431 l 37.67497097263042 36.556775877059735 a73.4957264957265,73.4957264957265 0 0,0 -0.8888061315211435,0.9003559187058464 l -37.04012421605374 -37.199872289746246" fill="#39ff8b" stroke="none" /><path d="M 114.29624159901734 115.38237550388516 l 41.21297486603167 44.344064181529745 a81.53846153846155,81.53846153846155 0 0,0 -1.0363167676378178,0.9466507964037439 l -40.443558548926994 -45.04690774452008" fill="#48f5ff" stroke="none" /><path d="M 113.48314897796784 116.09983520530334 l 33.142644791386545 39.57466614669495 a72.61965811965811,72.61965811965811 0 0,0 -0.965253135050888,0.7943376160480194 l -32.45652152779097 -40.139298881600155" fill="#37ff7c" stroke="none" /><path d="M 112.34349029814194 116.9893568818739 l 30.248333367974194 41.63325917206459 a72.46153846153845,72.46153846153845 0 0,0 -1.0154024072027497,0.7244626569331334 l -29.52720363292256 -42.14776609084194" fill="#37ff79" stroke="none" /><path d="M 111.7513745106137 117.40417183066458 l 29.046030689034204 43.018125977869765 a72.90598290598291,72.90598290598291 0 0,0 -1.046115107752587,0.6933080505051095 l -28.301240882541656 -43.51173204946619" fill="#38ff81" stroke="none" /><line stroke="#e1ed5e" stroke-width="0.3" x1="143.8653032363475" x2="146.44561519142675" y1="172.8068346515853" y2="177.08958963109032" /><path d="M 144.38136562736335 173.6633856474863 a86.0,86.0 0 0,1 -40.68145358897372,12.25698825130547" fill="none" id="id42" stroke="none" /><text fill="#e1ed5e" style="font-size:6.75px; font-family:Arial;" text-anchor="middle"><textPath startOffset="21.466115282336833" xlink:href="#id42">June</textPath></text><path d="M 105.18746579009965 120.34920634021253 l 5.911641926039493 23.18997873528493 a44.93162393162393,44.93162393162393 0 0,0 -0.7510999520166622,0.18460209403465386 l -5.511588689279619 -23.288302087633618" fill="#ff2403" stroke="none" /><line stroke="#e1ed5e" stroke-width="0.3" x1="102.19456741930631" x2="102.32365962044197" y1="184.97166512339345" y2="189.96999836594603" /><path d="M 102.22038585953345 185.97133177190398 a86.0,86.0 0 0,1 -42.740103519485714,-10.115201625700543" fill="none" id="id43" stroke="none" /><text fill="#e1ed5e" style="font-size:6.75px; font-family:Arial;" text-anchor="middle"><textPath startOffset="22.20632615414155" xlink:href="#id43">July</textPath></text><path d="M 91.07499286063937 119.00905698771935 l -16.95097509801644 36.103282227591514 a60.88461538461539,60.88461538461539 0 0,0 -0.9448345175011298,-0.45357798589962045 l 17.569922283517812 -35.806149965192326" fill="#a5ff21" stroke="none" /><line stroke="#e1ed5e" stroke-width="0.3" x1="58.666819895761336" x2="56.23545636021788" y1="174.27360380694188" y2="178.64263932499728" /><path d="M 58.180547188652646 175.14741091055294 a86.0,86.0 0 0,1 -31.652253787137756,-30.449443065178592" fill="none" id="id44" stroke="none" /><text fill="#e1ed5e" style="font-size:6.75px; font-family:Arial;" text-anchor="middle"><textPath startOffset="22.20632615414155" xlink:href="#id44">August</textPath></text><path d="M 88.8546689885994 117.79835938074946 l -16.071594535365207 25.66527769067779 a51.282051282051285,51.282051282051285 0 0,0 -0.7441225835239964,-0.47493423974650995 l 16.510998920936128 -25.384829022107475" fill="#ffa80f" stroke="none" /><path d="M 84.9287848128048 114.62390073753433 l -26.952755202497222 26.15279602797144 a58.55555555555556,58.55555555555556 0 0,0 -0.6956774995941238,-0.7294150770424468 l 27.398939253470303 -25.684973834346494" fill="#ceff1d" stroke="none" /><path d="M 83.06392112726016 112.41649034213515 l -24.807874588111794 18.18760632533349 a51.76068376068376,51.76068376068376 0 0,0 -0.5206143986053403,-0.7230878654407437 l 25.117268779092743 -17.75788485444161" fill="#ffb110" stroke="none" /><line stroke="#e1ed5e" stroke-width="0.3" x1="26.63291911575756" x2="22.317208475507996" y1="142.92168965132927" y2="145.44649492493687" /><path d="M 25.769776987707644 143.4266507060508 a86.0,86.0 0 0,1 -11.730757126820373,-40.83630448921669" fill="none" id="id45" stroke="none" /><text fill="#e1ed5e" style="font-size:6.75px; font-family:Arial;" text-anchor="middle"><textPath startOffset="21.46611528233685" xlink:href="#id45">September</textPath></text><path d="M 80.73074385275274 108.34839909993369 l -31.17823679828306 13.507961181028238 a54.97863247863248,54.97863247863248 0 0,0 -0.36874697333353185,-0.8716089188654592 l 31.4061347528089 -12.969277736496618" fill="#ffef16" stroke="none" /><path d="M 79.86692584326677 105.97154293290107 l -39.32381883523107 11.66358751932937 a62.01709401709402,62.01709401709402 0 0,0 -0.2947506010396536,-1.026065509865141 l 39.51876207315683 -10.984964533959634" fill="#92ff23" stroke="none" /><path d="M 79.0235259727143 100.99374915477108 l -37.83363640696646 1.7923481397509302 a58.876068376068375,58.876068376068375 0 0,0 -0.039244732541515205,-1.0127321668474087 l 37.85888327235918 -1.1408387258895247" fill="#c8ff1d" stroke="none" /><line stroke="#e1ed5e" stroke-width="0.3" x1="15.007084014347285" x2="10.007500721073583" y1="101.09737516637583" y2="101.16192664675087" /><path d="M 14.007167355692545 101.11028546245083 a86.0,86.0 0 0,1 10.666146001902534,-42.60595125391555" fill="none" id="id46" stroke="none" /><text fill="#e1ed5e" style="font-size:6.75px; font-family:Arial;" text-anchor="middle"><textPath startOffset="22.20632615414155" xlink:href="#id46">October</textPath></text><path d="M 79.21141760316559 97.0276538004421 l -34.96069290342686 -4.998670938776254 a56.31623931623932,56.31623931623932 0 0,0 0.1454678136460878,-0.9584511389696807 l 34.86946919634148 5.599721190138027" fill="#f6ff19" stroke="none" /><path d="M 79.3925641242962 95.95851677861259 l -34.588956268377075 -6.783507043142728 a56.24786324786325,56.24786324786325 0 0,0 0.19451235392080615,-0.9485113173742973 l 34.46706461854128 7.377894016680427" fill="#f7ff18" stroke="none" /><path d="M 79.71946130924805 94.55025226153421 l -34.30027616175 -9.21710489507309 a56.51709401709402,56.51709401709402 0 0,0 0.26055249476188014,-0.9373459528458454 l 34.13653689642176 9.806162151337878" fill="#f2ff19" stroke="none" /><path d="M 80.02781315780177 93.51064311812611 l -34.43718744687537 -11.189320484354393 a57.20940170940171,57.20940170940171 0 0,0 0.3123707057951329,-0.9339486510335517 l 34.23947944730847 11.780442238310266" fill="#e6ff1a" stroke="none" /><path d="M 80.95270993114464 91.15688171328213 l -43.71496487516296 -20.295622311274762 a69.1965811965812,69.1965811965812 0 0,0 0.5108744251758973,-1.0760318286423491 l 43.35913225614531 21.045096555557645" fill="#31ff3f" stroke="none" /><line stroke="#e1ed5e" stroke-width="0.3" x1="26.266209847984243" x2="21.928928074336255" y1="57.711370442889674" y2="55.22380399835377" /><path d="M 25.398753493254645 57.213857153982495 a86.0,86.0 0 0,1 29.58750427330803,-30.492523968695096" fill="none" id="id47" stroke="none" /><text fill="#e1ed5e" style="font-size:6.75px; font-family:Arial;" text-anchor="middle"><textPath startOffset="21.46611528233685" xlink:href="#id47">November</textPath></text><path d="M 87.22198572758235 83.33499621200491 l -30.49405237538499 -39.77014640248645 a71.11538461538461,71.11538461538461 0 0,0 0.9778495635544633,-0.7364960183217496 l 29.804956658072136 40.28915901031405" fill="#35ff62" stroke="none" /><line stroke="#e1ed5e" stroke-width="0.3" x1="56.762969772571076" x2="54.21961505331055" y1="26.818313649435495" y2="22.513508569990535" /><path d="M 56.25429882871897 25.957352633546506 a86.0,86.0 0 0,1 42.265352541879196,-11.944610805530505" fill="none" id="id48" stroke="none" /><text fill="#e1ed5e" style="font-size:6.75px; font-family:Arial;" text-anchor="middle"><textPath startOffset="22.20632615414155" xlink:href="#id48">December</textPath></text><path d="M 94.28887869178378 79.79150937346287 l -12.941256769838768 -45.79192981817071 a68.58547008547009,68.58547008547009 0 0,0 1.13885229463746,-0.3112913525190835 l 12.151106585977585 46.00790771151608" fill="#30ff34" stroke="none" /><path d="M 96.75951476605007 79.25152402106235 l -6.987419930592868 -44.73969301441256 a66.28205128205128,66.28205128205128 0 0,0 1.1287865513943136,-0.16635379541379153 l 6.216264398769905 44.85334129398732" fill="#4eff2b" stroke="none" /></svg>