<?xml version="1.0" encoding="utf-8" ?>
<svg baseProfile="full" height="200mm" version="1.1" viewBox="0,0,200,200" width="200mm" xmlns="http://www.w3.org/2000/svg" xmlns:ev="http://www.w3.org/2001/xml-events" xmlns:xlink="http://www.w3.org/1999/xlink"><defs /><rect fill="#2b2b2b" height="200" width="200" x="0" y="0" /><text alignment-baseline="middle" fill="#e1ed5e" style="dominant-baseline: central; font-size:9.0px; font-family:Arial;" text-anchor="middle" x="100.0" y="100.0">2017</text><line stroke="#e1ed5e" stroke-width="0.3" x1="100.0" x2="100.0" y1="15.0" y2="10.0" /><path d="M 100.0 14.0 a86.0,86.0 0 0,1 42.46469731375804,11.215312516191453" fill="none" id="id25" stroke="none" /><text fill="#e1ed5e" style="font-size:6.75px; font-family:Arial;" text-anchor="middle"><textPath startOffset="22.20632615414155" xlink:href="#id25">January</textPath></text><line stroke="#e1ed5e" stroke-width="0.3" x1="143.23703022742887" x2="145.7803849466894" y1="26.818313649435467" y2="22.513508569990506" /><path d="M 143.74570117128098 25.957352633546478 a86.0,86.0 0 0,1 28.547481713284135,27.462654790039114" fill="none" id="id26" stroke="none" /><text fill="#e1ed5e" style="font-size:6.75px; font-family:Arial;" text-anchor="middle"><textPath startOffset="19.985693538727396" xlink:href="#id26">February</textPath></text><line stroke="#e1ed5e" stroke-width="0.3" x1="172.23445277983987" x2="176.4835382374775" y1="55.19839476539836" y2="52.563006222186495" /><path d="M 173.08426987136738 54.67131705675599 a86.0,86.0 0 0,1 12.851231095245387,41.99856678651699" fill="none" id="id27" stroke="none" /><text fill="#e1ed5e" style="font-size:6.75px; font-family:Arial;" text-anchor="middle"><textPath startOffset="22.20632615414155" xlink:href="#id27">March</textPath></text><path d="M 119.97218684219823 93.5106431181261 l 19.308305472919372 -6.273648749033126 a41.30195381882771,41.30195381882771 0 0,0 0.21387433273601472,0.6780400812049798 l -19.413435289423592 5.940358501401727" fill="#ff0000" stroke="none" /><path d="M 120.37134235888165 94.90015583598534 l 19.826004470309712 -4.96332207335148 a41.43783303730018,41.43783303730018 0 0,0 0.16726519380150665,0.6934222141590024 l -19.908502464372038 4.621314627533072" fill="#ff0300" stroke="none" /><path d="M 120.91429891909075 98.10471618934814 l 22.288773270789438 -2.019840650783514 a43.380106571936054,43.380106571936054 0 0,0 0.06099143040484477,0.744249936567255 l -22.32023918501378 1.63587679700849" fill="#ff2c04" stroke="none" /><line stroke="#e1ed5e" stroke-width="0.3" x1="184.98032266829074" x2="189.97916517819016" y1="98.17113171792111" y2="98.06355123074" /><path d="M 185.9800911702706 98.14961562048488 a86.0,86.0 0 0,1 -9.607161424134198,41.387399972396054" fill="none" id="id28" stroke="none" /><text fill="#e1ed5e" style="font-size:6.75px; font-family:Arial;" text-anchor="middle"><textPath startOffset="21.466115282336823" xlink:href="#id28">April</textPath></text><path d="M 120.99980553446 99.90962569577887 l 20.481604294108248 -0.08814418468661982 a41.481793960923625,41.481793960923625 0 0,0 -0.003073016157204115,0.7140607306657867 l -20.48008698066154 -0.2644260241828516" fill="#ff0400" stroke="none" /><path d="M 120.9904718944345 100.63252640178507 l 22.59764644255569 0.6809569629976165 a43.607904085257545,43.607904085257545 0 0,0 -0.02906750704870993,0.750103198363138 l -22.582576802655776 -1.0698374083747606" fill="#ff3004" stroke="none" /><path d="M 120.92983693683757 101.71520430193887 l 28.279975054214685 2.3175495833099435 a49.37477797513321,49.37477797513321 0 0,0 -0.0767081935794519,0.8464685241585745 l -28.235892264358156 -2.803999496017089" fill="#ffa20f" stroke="none" /><path d="M 120.64145759157962 103.86396538481128 l 27.57999373581843 5.162820534146157 a49.05905861456483,49.05905861456483 0 0,0 -0.16252580933171895,0.8287156003088552 l -27.487037993511045 -5.636799861522957" fill="#ff9c0e" stroke="none" /><path d="M 120.49622156327973 104.57218783832717 l 27.50685507439394 6.1360825873921305 a49.182948490230906,49.182948490230906 0 0,0 -0.19143744645039265,0.824707508924829 l -27.397157062012994 -6.608658753665524" fill="#ff9f0e" stroke="none" /><path d="M 120.41448212921028 104.9243191809786 l 27.517592664526095 6.637709862764167 a49.30683836589698,49.30683836589698 0 0,0 -0.2061229779241888,0.8233588353453541 l -27.399258372306846 -7.110396537506918" fill="#ffa10e" stroke="none" /><path d="M 120.23288151984713 105.62410040840565 l 27.5307858792642 7.652686739425359 a49.57460035523979,49.57460035523979 0 0,0 -0.2356147685181868,0.8202059189655219 l -27.394978473859915 -8.125450133895464" fill="#ffa60f" stroke="none" /><path d="M 120.02730092923936 106.31721596034902 l 27.2015059753834 8.580177044343623 a49.52264653641208,49.52264653641208 0 0,0 -0.2634315889666975,0.8107590645347287 l -27.049782135400456 -9.047135008856147" fill="#ffa50f" stroke="none" /><path d="M 119.67450827220406 107.3425965602758 l 26.8795917697576 10.031559383320207 a49.69049733570159,49.69049733570159 0 0,0 -0.3059650264452299,0.7987781358511074 l -26.702932463718863 -10.492761086004458" fill="#ffa80f" stroke="none" /><line stroke="#e1ed5e" stroke-width="0.3" x1="174.80103733775053" x2="179.2010983576182" y1="140.37084112569926" y2="142.7455964860345" /><path d="M 175.68104954172406 140.8457921977663 a86.0,86.0 0 0,1 -30.038265399797805,32.042727171017184" fill="none" id="id29" stroke="none" /><text fill="#e1ed5e" style="font-size:6.75px; font-family:Arial;" text-anchor="middle"><textPath startOffset="22.206326154141568" xlink:href="#id29">May</textPath></text><path d="M 112.04921762599082 117.19931262002967 l 13.127715854249708 18.73878420762558 a43.87966252220249,43.87966252220249 0 0,0 -0.6223454946337762,0.4280549060583078 l -12.803213474993047 -18.961979903048984" fill="#ff3605" stroke="none" /><path d="M 111.7513745106137 117.40417183066458 l 12.346994165141767 18.286304112617195 a43.064387211367674,43.064387211367674 0 0,0 -0.6179233071449619,0.4095258736476116 l -12.03039615925684 -18.496128007356123" fill="#ff2503" stroke="none" /><line stroke="#e1ed5e" stroke-width="0.3" x1="143.8653032363475" x2="146.44561519142675" y1="172.8068346515853" y2="177.08958963109032" /><path d="M 144.38136562736335 173.6633856474863 a86.0,86.0 0 0,1 -40.68145358897372,12.25698825130547" fill="none" id="id30" stroke="none" /><text fill="#e1ed5e" style="font-size:6.75px; font-family:Arial;" text-anchor="middle"><textPath startOffset="21.466115282336833" xlink:href="#id30">June</textPath></text><path d="M 105.53697534728816 120.25689768951611 l 6.248591184233463 22.86032795587996 a44.698934280639435,44.698934280639435 0 0,0 -0.7439383203440102,0.19648087195302866 l -5.854162421077954 -22.96450017713657" fill="#ff4706" stroke="none" /><path d="M 101.98527174616119 120.90594882070398 l 2.1044082008597753 22.16051793922631 a43.260213143872114,43.260213143872114 0 0,0 -0.7419243609275036,0.06401635571572471 l -1.7226395221907298 -22.193458547220697" fill="#ff2904" stroke="none" /><line stroke="#e1ed5e" stroke-width="0.3" x1="102.19456741930631" x2="102.32365962044197" y1="184.97166512339345" y2="189.96999836594603" /><path d="M 102.22038585953345 185.97133177190398 a86.0,86.0 0 0,1 -42.740103519485714,-10.115201625700543" fill="none" id="id31" stroke="none" /><text fill="#e1ed5e" style="font-size:6.75px; font-family:Arial;" text-anchor="middle"><textPath startOffset="22.20632615414155" xlink:href="#id31">July</textPath></text><path d="M 100.54218724476979 120.99299961872073 l 0.6383873033603248 24.71777885835293 a45.72602131438721,45.72602131438721 0 0,0 -0.7870108249450757,0.013549105074400195 l -0.21281678852258118 -24.72510544070649" fill="#ff5b08" stroke="none" /><path d="M 99.45781275523022 120.99299961872073 l -0.6300295578338515 24.394174512542907 a45.40230905861456,45.40230905861456 0 0,0 -0.7810919166597826,-0.026902384930339484 l 1.0498418261682771 -24.379715329186475" fill="#ff5507" stroke="none" /><path d="M 98.37488393609728 120.93702456842531 l -1.724185877237564 22.21338086189504 a43.28019538188277,43.28019538188277 0 0,0 -0.7422670617162556,-0.0640459253817879 l 2.1062972566953615 -22.180410684234587" fill="#ff2904" stroke="none" /><path d="M 98.01472825383883 120.90594882070398 l -2.1300993602239364 22.431059271338942 a43.53197158081705,43.53197158081705 0 0,0 -0.745365618378737,-0.07726019396109177 l 2.5158975752082675 -22.39106970892209" fill="#ff2f04" stroke="none" /><path d="M 97.65516085044442 120.86867818915974 l -2.7247376009616318 24.249711181744996 a45.40230905861456,45.40230905861456 0 0,0 -0.7758877929182034,-0.09394920641859104 l 3.1417528169312243 -24.199216446601056" fill="#ff5507" stroke="none" /><path d="M 93.42475214034765 119.94407469862007 l -8.530220374127776 25.8739071086957 a48.24378330373002,48.24378330373002 0 0,0 -0.7864432010706907,-0.26680423302997175 l 8.97433330813569 -25.723239888767605" fill="#ff8d0d" stroke="none" /><path d="M 92.40401165467489 119.57807347666478 l -9.008792064463229 23.219465980698093 a45.90586145648312,45.90586145648312 0 0,0 -0.7342291118750044,-0.29216491637699477 l 9.407142252380092 -23.06095421991503" fill="#ff5f08" stroke="none" /><line stroke="#e1ed5e" stroke-width="0.3" x1="58.666819895761336" x2="56.23545636021788" y1="174.27360380694188" y2="178.64263932499728" /><path d="M 58.180547188652646 175.14741091055294 a86.0,86.0 0 0,1 -31.652253787137756,-30.449443065178592" fill="none" id="id32" stroke="none" /><text fill="#e1ed5e" style="font-size:6.75px; font-family:Arial;" text-anchor="middle"><textPath startOffset="22.20632615414155" xlink:href="#id32">August</textPath></text><path d="M 87.36589467227662 116.77436683061367 l -14.750742740214958 19.584637244192116 a45.518206039076375,45.518206039076375 0 0,0 -0.621803125863109,-0.4767721218663223 l 15.085674594571554 -19.327825780498426" fill="#ff5708" stroke="none" /><path d="M 86.79598089348748 116.32954008644617 l -26.253918730939393 32.46847909601425 a62.754884547069274,62.754884547069274 0 0,0 -0.834131564610302,-0.686433490286485 l 26.808920424094385 -32.01175048687059" fill="#76ff27" stroke="none" /><path d="M 85.44109423537348 115.13401014063109 l -20.82429631951274 21.646895499299028 a51.0373001776199,51.0373001776199 0 0,0 -0.6278804253094755,-0.61451314747719 l 21.19382669719801 -21.285232248899266" fill="#ffc212" stroke="none" /><path d="M 84.19399662182784 113.82643327865904 l -20.86344318022117 18.250470925040425 a48.719360568383664,48.719360568383664 0 0,0 -0.5467182022314964,-0.6359567831428952 l 21.174503892023452 -17.888637042736" fill="#ff960d" stroke="none" /><path d="M 83.72743513129214 113.27417163493433 l -22.247292441664023 18.14799207536822 a49.710479573712256,49.710479573712256 0 0,0 -0.5351737626085263,-0.6677115555819431 l 22.556384116327408 -17.76235268620802" fill="#ffa90f" stroke="none" /><path d="M 83.28015986056508 112.70617746262583 l -21.977404689750767 16.70164318720312 a48.60346358792185,48.60346358792185 0 0,0 -0.5004738762135132,-0.6704665434599657 l 22.261639832659366 -16.32086376423385" fill="#ff940d" stroke="none" /><path d="M 82.24976979558568 111.22182372390057 l -21.007742002268333 13.281246207613096 a45.85390763765542,45.85390763765542 0 0,0 -0.4160376578272831,-0.6707851736917179 l 21.23324429976357 -12.917664702556115" fill="#ff5e08" stroke="none" /><path d="M 82.05923443525364 110.91462005526583 l -27.39255813105051 16.664805259464174 a53.06349911190053,53.06349911190053 0 0,0 -0.4680178494235175,-0.7844248359702193 l 27.67535685617226 -16.190818329607843" fill="#ffe715" stroke="none" /><line stroke="#e1ed5e" stroke-width="0.3" x1="26.63291911575756" x2="22.317208475507996" y1="142.92168965132927" y2="145.44649492493687" /><path d="M 25.769776987707644 143.4266507060508 a86.0,86.0 0 0,1 -11.730757126820373,-40.83630448921669" fill="none" id="id33" stroke="none" /><text fill="#e1ed5e" style="font-size:6.75px; font-family:Arial;" text-anchor="middle"><textPath startOffset="21.46611528233685" xlink:href="#id33">September</textPath></text><path d="M 81.87401531095188 110.60418214915194 l -30.89029298853578 18.07164129897024 a56.78818827708703,56.78818827708703 0 0,0 -0.4863448716074798,-0.8479832777788748 l 31.196789856295638 -17.537238175333055" fill="#d6ff1c" stroke="none" /><path d="M 81.51974371655577 109.97397251340807 l -31.923107006754 17.22920867245719 a57.27575488454707,57.27575488454707 0 0,0 -0.46079024415573605,-0.8716414886051767 l 32.214949759134626 -16.677152168765886" fill="#ceff1d" stroke="none" /><path d="M 81.18737489456691 109.33194174019688 l -28.974354537859043 14.37263470630805 a53.34325044404974,53.34325044404974 0 0,0 -0.4009551601989856,-0.826086389005462 l 29.217462954672747 -13.871759361337304" fill="#ffec16" stroke="none" /><path d="M 80.87730276802145 108.67885076344099 l -31.195082594364386 14.157912092910971 a55.257548845470694,55.257548845470694 0 0,0 -0.3856422104381253,-0.8695213779677098 l 31.434165889533787 -13.618842378450566" fill="#f0ff19" stroke="none" /><path d="M 80.73074385275274 108.34839909993369 l -29.90132858880757 12.954741105213008 a53.58703374777975,53.58703374777975 0 0,0 -0.3594133868661622,-0.8495470775534792 l 30.11989295686604 -12.438119501993368" fill="#fff016" stroke="none" /><path d="M 80.45479744820244 107.68017299344265 l -30.195626931392916 11.865194943053945 a53.44316163410302,53.44316163410302 0 0,0 -0.3290717388522965,-0.8591024705523581 l 30.395392949838723 -11.343668905668428" fill="#ffee16" stroke="none" /><path d="M 79.97269907076064 106.31721596034903 l -31.42065507370894 9.911024177325055 a53.94671403197158,53.94671403197158 0 0,0 -0.27171990742145047,-0.8879963790619305 l 31.586601753636522 -9.368700825711077" fill="#fff617" stroke="none" /><path d="M 79.86692584326677 105.97154293290107 l -31.88545606426045 9.457342099899028 a54.258436944937834,54.258436944937834 0 0,0 -0.25787578657884935,-0.8976994432058999 l 32.0435244877254 -8.907085181188531" fill="#fffc17" stroke="none" /><path d="M 79.76711848015287 105.62410040840567 l -39.840705103880644 11.074454502494321 a62.351243339254,62.351243339254 0 0,0 -0.278537622863698,-1.0365421132148505 l 40.02543080308612 -10.387021456103932" fill="#7cff26" stroke="none" /><path d="M 79.58551787078972 104.9243191809786 l -34.063850414028636 8.216778212158157 a56.04085257548846,56.04085257548846 0 0,0 -0.21813083687093412,-0.9397019362255886 l 34.20024181683013 -7.629207618583994" fill="#e3ff1b" stroke="none" /><path d="M 79.29508885075956 103.50808413554451 l -40.423436338503734 6.849042466357102 a61.999555950266426,61.999555950266426 0 0,0 -0.16922408464039373,-1.0537585365927502 l 40.53534217750542 -6.152204700071137" fill="#81ff25" stroke="none" /><path d="M 79.18660465613746 102.79330883721812 l -40.31043981498778 5.409953825748955 a61.67184724689165,61.67184724689165 0 0,0 -0.13214952609852615,-1.0533617460837617 l 40.39759085033316 -4.715274325377785" fill="#87ff25" stroke="none" /><path d="M 79.10278846688536 102.07522291339032 l -40.22620426112433 3.9947119580581765 a61.424067495559505,61.424067495559505 0 0,0 -0.09542785715937156,-1.0530384518785953 l 40.28900671456078 -3.301692117631015" fill="#8aff24" stroke="none" /><line stroke="#e1ed5e" stroke-width="0.3" x1="15.007084014347285" x2="10.007500721073583" y1="101.09737516637583" y2="101.16192664675087" /><path d="M 14.007167355692545 101.11028546245083 a86.0,86.0 0 0,1 10.666146001902526,-42.60595125391555" fill="none" id="id34" stroke="none" /><text fill="#e1ed5e" style="font-size:6.75px; font-family:Arial;" text-anchor="middle"><textPath startOffset="22.20632615414155" xlink:href="#id34">October</textPath></text><path d="M 79.08570108090925 98.10471618934814 l -41.08298530376583 -3.722999142390595 a62.251332149200714,62.251332149200714 0 0,0 0.1058950721180826,-1.0663489247768307 l 41.01281310596552 4.429623597871856" fill="#7eff26" stroke="none" /><path d="M 79.16333360222342 97.38593545837743 l -41.78700656554864 -5.2423900291078205 a63.1145648312611,63.1145648312611 0 0,0 0.14451432356241736,-1.076799567981511 l 41.69057624292839 5.960907939153992" fill="#70ff27" stroke="none" /><path d="M 79.3925641242962 95.95851677861259 l -61.8223076271114 -12.124449664162231 a84.0,84.0 0 0,0 0.2904828163400217,-1.41649737534639 l 61.60444551485639 13.186822695672024" fill="#4dd2ff" stroke="none" /><path d="M 79.71946130924805 94.55025226153421 l -54.38848348707369 -14.615169715261333 a77.31793960923623,77.31793960923623 0 0,0 0.35644759174882146,-1.2823316385158954 l 54.12884912475851 15.54921265719617" fill="#41ffce" stroke="none" /><path d="M 79.91906864156998 93.8553929516997 l -47.46737789959261 -14.524644280691088 a70.6398756660746,70.6398756660746 0 0,0 0.3657951955229291,-1.1596707323589521 l 47.21032722030148 15.339565179476455" fill="#35ff64" stroke="none" /><path d="M 80.38941819471856 92.48833698450439 l -53.46881607287499 -20.48076554611882 a78.25710479573712,78.25710479573712 0 0,0 0.4926711438848044,-1.2537943229762991 l 53.1083513791085 21.398108873990886" fill="#43ffdc" stroke="none" /><path d="M 80.65960295795067 91.81776055985345 l -49.1251483101178 -20.783116558164657 a74.3405861456483,74.3405861456483 0 0,0 0.5087348983271587,-1.1742302864973921 l 48.760122701947964 21.625645989248646" fill="#3cffa1" stroke="none" /><path d="M 81.26839172434947 90.50648371742162 l -46.82307942793764 -23.73077956832029 a73.49333925399645,73.49333925399645 0 0,0 0.581614271884653,-1.1234936491765766 l 46.407655722892876 24.5332459397572" fill="#3aff93" stroke="none" /><line stroke="#e1ed5e" stroke-width="0.3" x1="26.266209847984243" x2="21.928928074336255" y1="57.71137044288968" y2="55.22380399835378" /><path d="M 25.398753493254645 57.2138571539825 a86.0,86.0 0 0,1 29.58750427330803,-30.4925239686951" fill="none" id="id35" stroke="none" /><text fill="#e1ed5e" style="font-size:6.75px; font-family:Arial;" text-anchor="middle"><textPath startOffset="21.46611528233685" xlink:href="#id35">November</textPath></text><path d="M 82.15384107792192 88.93136811851018 l -45.34332677657913 -28.12305967706875 a74.35657193605684,74.35657193605684 0 0,0 0.6839827493237187,-1.0818964506175863 l 44.85251643100945 28.89940377540055" fill="#3cffa1" stroke="none" /><path d="M 82.54541684631803 88.32363383020207 l -48.08536140561408 -32.16704072709875 a78.8525754884547,78.8525754884547 0 0,0 0.7644026280218168,-1.1216665342919112 l 47.524534311923524 32.989985284661074" fill="#44ffe5" stroke="none" /><path d="M 82.95767976084542 87.72973835380427 l -42.31823036294513 -30.468607071725824 a73.14564831261102,73.14564831261102 0 0,0 0.7444742750635257,-1.0154620745296317 l 41.787493475367974 31.192531589926958" fill="#39ff8e" stroke="none" /><path d="M 83.39014120810768 87.1503855733568 l -39.474229242543394 -30.537804800796817 a70.9076376554174,70.9076376554174 0 0,0 0.7551525626835898,-0.9589670676647615 l 38.942722599265835 31.212764262414623" fill="#35ff69" stroke="none" /><path d="M 83.84228863543731 86.58626213691792 l -44.900070035272336 -37.274942960554014 a79.35612788632326,79.35612788632326 0 0,0 0.8815686852684604,-1.0434992622807386 l 44.25179073651675 38.042301172463866" fill="#45ffec" stroke="none" /><path d="M 84.80347519578584 85.50635884689758 l -36.73714563332894 -35.03794536307915 a71.76687388987567,71.76687388987567 0 0,0 0.8602993733520699,-0.8866141266891852 l 36.12858199627376 35.66512368531846" fill="#37ff77" stroke="none" /><path d="M 86.10567301691215 84.25364557470407 l -33.17398369636262 -37.595869567323554 a71.13943161634103,71.13943161634103 0 0,0 0.9251723778650723,-0.8023003692845941 l 32.52191751985077 38.16133493002783" fill="#36ff6d" stroke="none" /><path d="M 87.51073957382395 83.11751280151077 l -31.982140629527695 -43.232190004352546 a74.77619893428064,74.77619893428064 0 0,0 1.0413642668377014,-0.7565954270027151 l 31.23323104633621 43.77630466617193" fill="#3cffa7" stroke="none" /><path d="M 88.09926311788651 82.69761687909137 l -32.538293602890974 -47.307156489106994 a78.41696269982238,78.41696269982238 0 0,0 1.118731138274498,-0.7553722584711404 l 31.719157770209943 47.8602406598768" fill="#43ffdf" stroke="none" /><line stroke="#e1ed5e" stroke-width="0.3" x1="56.76296977257108" x2="54.21961505331056" y1="26.818313649435495" y2="22.513508569990535" /><path d="M 56.25429882871898 25.957352633546506 a86.0,86.0 0 0,1 42.26535254187918,-11.944610805530505" fill="none" id="id36" stroke="none" /><text fill="#e1ed5e" style="font-size:6.75px; font-family:Arial;" text-anchor="middle"><textPath startOffset="22.20632615414155" xlink:href="#id36">December</textPath></text></svg>