<?xml version="1.0" encoding="utf-8" ?>
<svg baseProfile="full" height="200mm" version="1.1" viewBox="0,0,200,200" width="200mm" xmlns="http://www.w3.org/2000/svg" xmlns:ev="http://www.w3.org/2001/xml-events" xmlns:xlink="http://www.w3.org/1999/xlink"><defs /><rect fill="#2b2b2b" height="200" width="200" x="0" y="0" /><text alignment-baseline="middle" fill="#e1ed5e" style="dominant-baseline: central; font-size:9.0px; font-family:Arial;" text-anchor="middle" x="100.0" y="100.0">2021</text><line stroke="#e1ed5e" stroke-width="0.3" x1="100.0" x2="100.0" y1="15.0" y2="10.0" /><path d="M 100.0 14.0 a86.0,86.0 0 0,1 42.46469731375804,11.215312516191453" fill="none" id="id73" stroke="none" /><text fill="#e1ed5e" style="font-size:6.75px; font-family:Arial;" text-anchor="middle"><textPath startOffset="22.20632615414155" xlink:href="#id73">January</textPath></text><path d="M 100.72285384407766 79.0124445844662 l 1.4238830845680408 -41.34144874161083 a62.36596218020022,62.36596218020022 0 0,0 1.072573285154264,0.04618726187658096 l -2.1352972021116363 41.310813753210056" fill="#b0ff20" stroke="none" /><path d="M 103.2404852339499 79.25152402106235 l 7.415834752380353 -47.482786717093695 a69.05839822024473,69.05839822024473 0 0,0 1.1729101769520178,0.19354022907928453 l -8.232074135471246 47.34810022507478" fill="#3aff2e" stroke="none" /><path d="M 104.307194497241 79.44645832069477 l 8.759490731875156 -41.79949569549471 a63.70745272525028,63.70745272525028 0 0,0 1.0713690693127298,0.2341597819564175 l -9.477702525341414 41.64252241544242" fill="#97ff23" stroke="none" /><path d="M 105.71112130821622 79.79150937346287 l 12.033921586993012 -42.58137386109681 a65.24916573971079,65.24916573971079 0 0,0 1.0781951808126218,0.31475473933777065 l -12.76510698552906 42.36792079284034" fill="#7bff26" stroke="none" /><path d="M 106.74666289553966 80.11325718540242 l 14.328483966134986 -42.23523243557869 a65.59955506117909,65.59955506117909 0 0,0 1.0662051746582182,0.37197804995085737 l -15.053371144856477 41.98233353245562" fill="#75ff27" stroke="none" /><path d="M 108.09893153111575 80.62456947434976 l 17.742876140748017 -42.44706387126602 a67.00611790878754,67.00611790878754 0 0,0 1.0603438718336826,0.45398390883062795 l -18.470903770372015 42.135360434472595" fill="#5cff2a" stroke="none" /><path d="M 109.41281617654863 81.2277094730956 l 19.99756012591242 -39.88179535983607 a65.61457174638488,65.61457174638488 0 0,0 1.0052762057502136,0.5149415177249259 l -20.681096819251387 39.53166131679864" fill="#75ff27" stroke="none" /><path d="M 110.36928655335952 81.73862282372117 l 22.12103479721144 -38.957411185689395 a65.79977753058955,65.79977753058955 0 0,0 0.9801135911725182,0.5677450539620146 l -22.788345120849286 38.570861974337326" fill="#71ff27" stroke="none" /><line stroke="#e1ed5e" stroke-width="0.3" x1="143.23703022742887" x2="145.7803849466894" y1="26.818313649435467" y2="22.513508569990506" /><path d="M 143.74570117128098 25.957352633546478 a86.0,86.0 0 0,1 28.547481713284135,27.462654790039114" fill="none" id="id74" stroke="none" /><text fill="#e1ed5e" style="font-size:6.75px; font-family:Arial;" text-anchor="middle"><textPath startOffset="19.985693538727396" xlink:href="#id74">February</textPath></text><path d="M 111.2981086023043 82.29822771554956 l 24.606106379927134 -38.55262037891871 a66.73581757508342,66.73581757508342 0 0,0 0.963007299356916,0.6263667352924962 l -25.26608070506833 38.12335471946669" fill="#61ff29" stroke="none" /><path d="M 112.19680574252982 82.90503203632743 l 24.100950168180248 -33.779743624387166 a62.49610678531702,62.49610678531702 0 0,0 0.8703466256676061,0.6323438376534811 l -24.678842110201643 33.359880551917016" fill="#adff20" stroke="none" /><path d="M 115.4437574822437 85.77008943001952 l 31.794311149087587 -29.295345048368343 a64.23303670745273,64.23303670745273 0 0,0 0.742216897124144,0.8195744357607072 l -32.29387168682777 28.743717825338088" fill="#8dff24" stroke="none" /><path d="M 116.15771136456269 86.58626213691792 l 35.27454593708002 -29.284067635778328 a66.84593993325917,66.84593993325917 0 0,0 0.7273522892056914,0.8916479034634166 l -35.77339671836212 28.67253556270681" fill="#5fff29" stroke="none" /><path d="M 117.45458315368197 88.32363383020206 l 36.53313872695407 -24.43910011210766 a64.95383759733036,64.95383759733036 0 0,0 0.6136695202726316,0.9346607808210018 l -36.948404882584626 23.806621267308987" fill="#80ff25" stroke="none" /><line stroke="#e1ed5e" stroke-width="0.3" x1="172.23445277983987" x2="176.4835382374775" y1="55.19839476539836" y2="52.563006222186495" /><path d="M 173.08426987136738 54.67131705675599 a86.0,86.0 0 0,1 12.851231095245387,41.99856678651699" fill="none" id="id75" stroke="none" /><text fill="#e1ed5e" style="font-size:6.75px; font-family:Arial;" text-anchor="middle"><textPath startOffset="22.20632615414155" xlink:href="#id75">March</textPath></text><path d="M 119.85752413597 93.16781622104841 l 41.10819890057987 -14.143695245557247 a64.47330367074528,64.47330367074528 0 0,0 0.3520325465886726,1.0525325067518565 l -41.345568740940315 13.433989635883076" fill="#89ff24" stroke="none" /><path d="M 120.18372546131832 94.20196356495316 l 41.47077232080817 -11.913016225195568 a64.14794215795328,64.14794215795328 0 0,0 0.2957318781825524,1.0639049125023816 l -41.66969096955709 11.197400009274235" fill="#8fff24" stroke="none" /><path d="M 120.53481517161879 95.60439243477599 l 39.85738120351784 -8.53172550539151 a61.760289210233594,61.760289210233594 0 0,0 0.21357503271145636,1.0414677091300917 l -39.99833553214429 7.8443821400980065" fill="#bbff1f" stroke="none" /><path d="M 120.73433829027371 96.67025291283417 l 40.689450296477865 -6.534357484976071 a62.21078976640712,62.21078976640712 0 0,0 0.1606937480625857,1.0587710229192115 l -40.795899937979755 5.832987349664776" fill="#b3ff20" stroke="none" /><path d="M 120.83666639777658 97.38593545837742 l 42.55408176453592 -5.338623468764238 a63.88765294771969,63.88765294771969 0 0,0 0.12750042773657877,1.092345801647973 l -42.63967254527609 4.605333928791413" fill="#94ff23" stroke="none" /><path d="M 120.91429891909075 98.10471618934814 l 40.80830707572151 -3.698107406800293 a61.975528364849836,61.975528364849836 0 0,0 0.08713616502532076,1.0632819211214546 l -40.86591772456632 2.995111568471069" fill="#b7ff1f" stroke="none" /><path d="M 120.96714384426684 98.82574320788733 l 41.68106936147756 -2.334332189628076 a62.74638487208009,62.74638487208009 0 0,0 0.051112582931124396,1.0789058417555595 l -41.71507555264218 1.616515241249517" fill="#a9ff21" stroke="none" /><line stroke="#e1ed5e" stroke-width="0.3" x1="184.98032266829074" x2="189.97916517819016" y1="98.17113171792111" y2="98.06355123074" /><path d="M 185.9800911702706 98.14961562048488 a86.0,86.0 0 0,1 -9.607161424134198,41.387399972396054" fill="none" id="id76" stroke="none" /><text fill="#e1ed5e" style="font-size:6.75px; font-family:Arial;" text-anchor="middle"><textPath startOffset="21.466115282336823" xlink:href="#id76">April</textPath></text><path d="M 120.99513854157772 99.54816195383933 l 42.352262230423996 -0.9114664034620359 a63.36206896551724,63.36206896551724 0 0,0 0.01408144404137549,1.090623359300328 l -42.361676681583084 0.18230678610124512" fill="#9dff22" stroke="none" /><path d="M 120.9764740272857 100.99374915477107 l 41.184621777233204 1.9510992661328275 a62.230812013348164,62.230812013348164 0 0,0 -0.05990056181056886,1.0695647700490796 l -41.1449348645351 -2.6597357525173306" fill="#b2ff20" stroke="none" /><path d="M 120.95626037817324 101.35467743843564 l 40.41564501504838 2.6125922026973076 a61.5,61.5 0 0,0 -0.07738293534015395,1.0558286716880307 l -40.36468552104389 -3.307894010882108" fill="#c0ff1e" stroke="none" /><path d="M 120.8583938346157 102.4346265915055 l 45.15893640548571 5.271026536781631 a66.4655172413793,66.4655172413793 0 0,0 -0.14242133157093634,1.1352381422184659 l -45.061513564667926 -6.0475824332874915" fill="#66ff29" stroke="none" /><path d="M 120.81339534386255 102.79330883721812 l 45.250034704760125 6.072883339647167 a66.65572858731925,66.65572858731925 0 0,0 -0.16240493373096188,1.1358597282579554 l -45.13879572001257 -6.850888539885532" fill="#63ff29" stroke="none" /><path d="M 120.64145759157962 103.86396538481128 l 42.07669124182162 7.876521207112525 a63.80756395995551,63.80756395995551 0 0,0 -0.21138554768350967,1.077850353525159 l -41.93487576116245 -8.59963528770563" fill="#95ff23" stroke="none" /><path d="M 120.5718875245553 104.21870165774334 l 45.85768920935351 9.40409134829549 a67.81201334816463,67.81201334816463 0 0,0 -0.24433624647713206,1.1414575998163083 l -45.68901892415193 -10.192062767527968" fill="#4fff2b" stroke="none" /><path d="M 120.23288151984713 105.62410040840565 l 39.739141202178686 11.046222953741289 a62.24582869855395,62.24582869855395 0 0,0 -0.2958377155829633,1.029849898206425 l -39.54311084970963 -11.728630327452297" fill="#b2ff20" stroke="none" /><path d="M 120.02730092923936 106.31721596034902 l 35.793270864636106 11.290279343086828 a58.531701890989986,58.531701890989986 0 0,0 -0.3113545077347891,0.9582506426806724 l -35.59362410588507 -11.904728885745296" fill="#fbff18" stroke="none" /><path d="M 119.9155931802556 106.66101706037122 l 36.89907177581284 12.341352044398265 a59.908231368186875,59.908231368186875 0 0,0 -0.3355122528987207,0.975155656728005 l -36.68116869197089 -12.97468040421557" fill="#dfff1b" stroke="none" /><path d="M 119.67450827220406 107.3425965602758 l 33.24000825521588 12.40528946906916 a56.47942157953281,56.47942157953281 0 0,0 -0.3477672521658824,0.9079105563878945 l -33.021546723456495 -12.9756235922902" fill="#ffd914" stroke="none" /><path d="M 119.54520255179757 107.68017299344265 l 34.046481864421565 13.378365859545257 a57.58064516129032,57.58064516129032 0 0,0 -0.3704283157458594,0.9193727010761564 l -33.811150934418315 -13.962437928464228" fill="#fff016" stroke="none" /><path d="M 119.41010516605496 108.01547362559984 l 31.303536839391672 12.926909554459355 a54.86763070077864,54.86763070077864 0 0,0 -0.3680024737384485,0.8698491417443095 l -31.076383384460915 -13.463833221869827" fill="#ffb710" stroke="none" /><path d="M 119.26925614724726 108.34839909993367 l 26.377722402742982 11.428139845285017 a49.74694104560623,49.74694104560623 0 0,0 -0.3471837008372079,0.7828075915676558 l -26.177097617174503 -11.880495773345359" fill="#ff4406" stroke="none" /><path d="M 118.97047184881838 109.00673069616215 l 25.593406323926263 12.15114311304889 a49.33147942157953,49.33147942157953 0 0,0 -0.37080063681308006,0.7639591393556862 l -25.380452430498472 -12.589891208369853" fill="#ff3a05" stroke="none" /><path d="M 118.81262510543309 109.33194174019688 l 34.51472479815314 17.12091742594042 a59.52780867630701,59.52780867630701 0 0,0 -0.46324350850430607,0.9140233902020479 l -34.21490261986256 -17.71249502784516" fill="#e7ff1a" stroke="none" /><path d="M 118.64920377521936 109.65438752849418 l 33.25028863148914 17.213130155681668 a58.44160177975528,58.44160177975528 0 0,0 -0.47016962076234664,0.8893837344345351 l -32.94906650250191 -17.782928905202336" fill="#fdff18" stroke="none" /><line stroke="#e1ed5e" stroke-width="0.3" x1="174.80103733775053" x2="179.2010983576182" y1="140.37084112569926" y2="142.7455964860345" /><path d="M 175.68104954172406 140.8457921977663 a86.0,86.0 0 0,1 -30.038265399797805,32.042727171017184" fill="none" id="id77" stroke="none" /><text fill="#e1ed5e" style="font-size:6.75px; font-family:Arial;" text-anchor="middle"><textPath startOffset="22.206326154141568" xlink:href="#id77">May</textPath></text><path d="M 118.12598468904814 110.60418214915192 l 32.77107751464249 19.171950167166063 a58.96718576195773,58.96718576195773 0 0,0 -0.5200881194937923,0.8716976036843472 l -32.43620851945047 -19.733209864736516" fill="#f2ff19" stroke="none" /><path d="M 117.94076556474637 110.91462005526583 l 38.95766112224045 23.700664715589937 a66.60066740823137,66.60066740823137 0 0,0 -0.6042753410943658,0.974284255301433 l -38.54392114147812 -24.367745302256644" fill="#63ff29" stroke="none" /><path d="M 117.75023020441432 111.22182372390056 l 53.25069061324299 33.665471171701654 a84.0,84.0 0 0,0 -0.7831805464917987,1.2155136003141789 l -52.663305203374144 -34.57710637193729" fill="#4dd2ff" stroke="none" /><path d="M 117.55443506779139 111.5257021239791 l 30.649826045980898 20.123733050567346 a57.665739710789765,57.665739710789765 0 0,0 -0.551934981241067,0.8250679094337445 l -30.298887959329107 -20.6483378742069" fill="#fff216" stroke="none" /><path d="M 117.35343817320211 111.8261652097733 l 34.935755318019616 23.808308762532626 a63.2769744160178,63.2769744160178 0 0,0 -0.6211361001734513,0.894792878819288 l -34.52075831068402 -24.40614290353893" fill="#9fff22" stroke="none" /><path d="M 117.14729908036423 112.12312394758627 l 29.99619290103126 21.207279513269263 a57.73581757508342,57.73581757508342 0 0,0 -0.5807129226463543,0.8065594589682525 l -29.6267001860093 -21.720472577688646" fill="#fff316" stroke="none" /><path d="M 116.93607887273984 112.41649034213513 l 33.31641322184696 24.42554301453392 a62.31090100111235,62.31090100111235 0 0,0 -0.6416204906461048,0.8595554993424942 l -32.89103146450576 -24.995411393385726" fill="#b1ff20" stroke="none" /><path d="M 116.71984013943494 112.70617746262582 l 33.80367489178939 25.68897121515785 a63.45717463848721,63.45717463848721 0 0,0 -0.6683949727921835,0.8639906028829473 l -33.356473101779144 -26.26703981215405" fill="#9cff22" stroke="none" /><path d="M 116.498646956653 112.99209946851258 l 28.865422372914278 22.730496607075068 a57.74082313681869,57.74082313681869 0 0,0 -0.6216269454496842,0.7755751939608351 l -28.46987751540974 -23.223999634614156" fill="#fff316" stroke="none" /><path d="M 116.27256486870786 113.27417163493432 l 26.115488462023674 21.303431817419224 a54.70244716351502,54.70244716351502 0 0,0 -0.6014768507460814,0.724517613660028 l -25.744915611384048 -21.74981068819302" fill="#ffb310" stroke="none" /><path d="M 115.80600337817218 113.82643327865902 l 31.741358285658816 27.766017886390177 a63.17185761957731,63.17185761957731 0 0,0 -0.7229903300067021,0.8122873001303943 l -31.258709106003778 -28.308279356261437" fill="#a1ff22" stroke="none" /><path d="M 115.56566222782051 114.09645910891815 l 42.74187880132504 38.70758198031237 a78.66407119021135,78.66407119021135 0 0,0 -0.9175736571296347,0.9958449818159987 l -42.069258736199686 -39.43757821692971" fill="#42ffd6" stroke="none" /><path d="M 115.07121518719521 114.62390073753431 l 29.022806490707936 28.161408086415 a61.43993325917686,61.43993325917686 0 0,0 -0.7430117641490556,0.7526669942912748 l -28.533754101503344 -28.65681557468694" fill="#c1ff1e" stroke="none" /><path d="M 114.29624159901734 115.38237550388516 l 24.16707740828642 26.003132148471366 a56.49944382647386,56.49944382647386 0 0,0 -0.718082238674166,0.6559510994633027 l -23.71589562014539 -26.41527601452125" fill="#ffd914" stroke="none" /><path d="M 114.0293411484842 115.62618273729858 l 32.76485410126686 36.49420112666092 a70.04449388209122,70.04449388209122 0 0,0 -0.9040997954061217,0.7977629515651768 l -32.13181195295415 -37.052787219998386" fill="#30ff36" stroke="none" /><path d="M 113.75828350139079 115.86535959552629 l 29.127858110444862 33.58877894346047 a65.45939933259177,65.45939933259177 0 0,0 -0.8576257447107328,0.7308872654356706 l -28.545366889157084 -34.08519059911909" fill="#77ff26" stroke="none" /><path d="M 113.20401910651253 116.32954008644616 l 22.58825165917061 27.93511263318547 a56.92491657397108,56.92491657397108 0 0,0 -0.7672462435215425,0.6095468183606481 l -22.104047922931716 -28.31979336555124" fill="#ffe215" stroke="none" /><path d="M 112.92097659922987 116.55440617244103 l 24.244540232592787 31.062200553660215 a60.40378197997775,60.40378197997775 0 0,0 -0.8251480828760956,0.6326883638300889 l -23.7062634212232 -31.474928259317675" fill="#d6ff1c" stroke="none" /><path d="M 112.34349029814194 116.9893568818739 l 22.004679152980348 30.286842551931077 a58.43659621802002,58.43659621802002 0 0,0 -0.8188711104996437,0.5842427949650332 l -21.48008071463182 -30.66112960874033" fill="#fdff18" stroke="none" /><path d="M 112.04921762599082 117.19931262002967 l 23.760490406758798 33.916235493128596 a62.41101223581757,62.41101223581757 0 0,0 -0.8851757294359646,0.6088319381692876 l -23.17315779269995 -34.32020822066298" fill="#afff20" stroke="none" /><path d="M 111.7513745106137 117.40417183066458 l 18.310520064170138 27.118481945905216 a53.72135706340378,53.72135706340378 0 0,0 -0.7708382905346715,0.5108695864391245 l -17.841007074895504 -27.42964955343566" fill="#ff9e0e" stroke="none" /><path d="M 111.1453310114006 117.79835938074945 l 16.346072234184305 26.10360049334611 a51.7992213570634,51.7992213570634 0 0,0 -0.7597732192993386,0.4667147661936279 l -15.89431981495266 -26.381103726368117" fill="#ff730a" stroke="none" /><line stroke="#e1ed5e" stroke-width="0.3" x1="143.8653032363475" x2="146.44561519142675" y1="172.8068346515853" y2="177.08958963109032" /><path d="M 144.38136562736335 173.6633856474863 a86.0,86.0 0 0,1 -40.68145358897372,12.25698825130547" fill="none" id="id78" stroke="none" /><text fill="#e1ed5e" style="font-size:6.75px; font-family:Arial;" text-anchor="middle"><textPath startOffset="21.466115282336833" xlink:href="#id78">June</textPath></text><path d="M 110.5260780823613 118.17145234162733 l 16.428911318123728 28.361672477270556 a53.77641824249166,53.77641824249166 0 0,0 -0.804984923099459,0.4570914481518453 l -15.93827762810307 -28.640267091217027" fill="#ff9f0e" stroke="none" /><path d="M 109.89434966115114 118.52300852407294 l 17.93812732942529 33.58159927715685 a59.07230255839822,59.07230255839822 0 0,0 -0.9010188532458246,0.4713704792373468 l -17.35741757365297 -33.88539917533891" fill="#f0ff19" stroke="none" /><path d="M 108.92500713936063 119.00905698771935 l 16.63599773473704 35.43242308373558 a60.143492769744164,60.143492769744164 0 0,0 -0.9409077248186556,0.43192458785459015 l -16.023622014150963 -35.71353474192425" fill="#dbff1b" stroke="none" /><path d="M 108.59647513512805 119.15986991738527 l 14.810580552210121 33.00990142130798 a57.18020022246941,57.18020022246941 0 0,0 -0.901484862504276,0.3951844715238394 l -14.240175015048091 -33.259950446126275" fill="#ffe815" stroke="none" /><path d="M 107.93186726928326 119.44442032107085 l 12.954668964515076 31.75746894326492 a55.298109010011125,55.298109010011125 0 0,0 -0.8844509214858151,0.3519412746459609 l -12.406096966987395 -31.97575706231695" fill="#ffc011" stroke="none" /><path d="M 106.57524785965236 119.94407469862006 l 12.279612342374769 37.246581582001 a60.21857619577308,60.21857619577308 0 0,0 -0.9872366863437845,0.3160820110602678 l -11.636654310940045 -37.45243643972098" fill="#d9ff1c" stroke="none" /><path d="M 106.2309692047433 120.05430185196036 l 12.89166042360684 41.49165900405591 a64.44827586206897,64.44827586206897 0 0,0 -1.0622457680971766,0.3200459361927732 l -12.175539681069418 -41.70742030935441" fill="#8aff24" stroke="none" /><path d="M 105.53697534728816 120.25689768951611 l 10.96484773206817 40.114644685642745 a62.58620689655172,62.58620689655172 0 0,0 -1.0416417837391299,0.27510706242035315 l -10.272715505517542 -40.29744309736668" fill="#acff21" stroke="none" /><path d="M 105.18746579009965 120.34920634021253 l 9.805324260803335 38.46397734257556 a60.69410456062291,60.69410456062291 0 0,0 -1.0145936210218476,0.24936242710701148 l -9.141777355038277 -38.627061027996604" fill="#d0ff1d" stroke="none" /><path d="M 104.48393922423573 120.51570834832081 l 7.842796605937177 35.88374412680235 a57.730812013348164,57.730812013348164 0 0,0 -0.972650201378001,0.20382830659952925 l -7.223954943129798 -36.01342841412842" fill="#fff316" stroke="none" /><path d="M 104.13013068566511 120.58985236759428 l 6.545663180276646 32.63195496396019 a54.28197997775306,54.28197997775306 0 0,0 -0.9177076589177467,0.17588085699422265 l -5.982987906787196 -32.73979301930288" fill="#ffaa0f" stroke="none" /><path d="M 103.41894727170886 120.7198165907248 l 6.570865688492421 39.82136052066122 a61.35984427141268,61.35984427141268 0 0,0 -1.0435969423007136,0.1629883797322569 l -5.88443288258319 -39.928567207740585" fill="#c3ff1e" stroke="none" /><path d="M 102.70371172650421 120.8252237178851 l 6.280877439975372 48.37818934240619 a69.78420467185762,69.78420467185762 0 0,0 -1.1925541600428309,0.14440170082559375 l -5.4471958568811605 -48.479136571957135" fill="#2fff31" stroke="none" /><path d="M 101.98527174616119 120.90594882070398 l 4.800710757541383 50.553992718745086 a71.78142380422692,71.78142380422692 0 0,0 -1.2310708411283269,0.10622197224850002 l -3.9297955986715136 -50.629138943272245" fill="#34ff58" stroke="none" /><path d="M 101.62511606390274 120.93702456842531 l 3.2321551971725095 41.641156761228544 a62.76640711902113,62.76640711902113 0 0,0 -1.0779001799633092,0.0743383073245181 l -2.51489225643027 -41.69062341306935" fill="#a8ff21" stroke="none" /><path d="M 101.26447882468166 120.96189622390904 l 2.5558828301208885 42.370144600051304 a63.44716351501668,63.44716351501668 0 0,0 -1.0907230025829513,0.05637792055144691 l -1.8261717591244575 -42.40786232736495" fill="#9cff22" stroke="none" /><path d="M 100.90346689309514 120.98055641714683 l 1.712251374622472 39.762371859065894 a60.7992213570634,60.7992213570634 0 0,0 -1.0459772052540397,0.03602556985154684 l -1.0275538176937797 -39.78595422734353" fill="#ceff1d" stroke="none" /><line stroke="#e1ed5e" stroke-width="0.3" x1="102.19456741930631" x2="102.32365962044197" y1="184.97166512339345" y2="189.96999836594603" /><path d="M 102.22038585953345 185.97133177190398 a86.0,86.0 0 0,1 -42.740103519485714,-10.115201625700543" fill="none" id="id79" stroke="none" /><text fill="#e1ed5e" style="font-size:6.75px; font-family:Arial;" text-anchor="middle"><textPath startOffset="22.20632615414155" xlink:href="#id79">July</textPath></text><path d="M 99.45781275523022 120.99299961872073 l -0.9193834560524908 35.597695682721906 a56.60956618464961,56.60956618464961 0 0,0 -0.973899245859106,-0.03354305919271334 l 1.53200305358624 -35.5765958251031" fill="#ffdc14" stroke="none" /><path d="M 98.73552117531835 120.96189622390904 l -1.8855663897684074 31.25797460116993 a52.31479421579533,52.31479421579533 0 0,0 -0.898412521733468,-0.061959787544604725 l 2.4233416722808054 -31.22088646910904" fill="#ff7f0b" stroke="none" /><path d="M 98.37488393609728 120.93702456842531 l -4.2683506852401205 54.990880435280125 a76.15628476084538,76.15628476084538 0 0,0 -1.306100890300557,-0.11269588060106196 l 5.214295893282219 -54.9092603024004" fill="#3dffaa" stroke="none" /><path d="M 97.65516085044442 120.86867818915974 l -4.753581034555117 42.306080088702586 a63.57230255839822,63.57230255839822 0 0,0 -1.0863979067471021,-0.1315476569232078 l 5.481106364353607 -42.21798690305403" fill="#99ff23" stroke="none" /><path d="M 97.2962882734958 120.8252237178851 l -4.443530673982143 34.22610460864875 a55.51334816462737,55.51334816462737 0 0,0 -0.9465591802497191,-0.13118447731571128 l 5.032018445418693 -34.14454556584043" fill="#ffc512" stroke="none" /><path d="M 96.93821686468263 120.77559828337769 l -5.537044807163396 37.571380305733335 a58.977196885428256,58.977196885428256 0 0,0 -1.0030733139225905,-0.15665942239010427 l 6.182953984694505 -37.47050257599612" fill="#f2ff19" stroke="none" /><path d="M 96.58105272829116 120.7198165907248 l -4.231986297946298 25.647069971945147 a46.993882091212456,46.993882091212456 0 0,0 -0.7969961638717408,-0.13856799904305267 l 4.672831433290088 -25.570423394381088" fill="#ff0200" stroke="none" /><path d="M 96.22490169976321 120.6578951692458 l -4.660233774891077 25.50148714798761 a46.9238042269188,46.9238042269188 0 0,0 -0.7933081022882743,-0.1520393858927404 l 5.098509491751047 -25.4174905637464" fill="#ff0000" stroke="none" /><path d="M 95.51606077576429 120.51570834832081 l -6.5762779389930905 30.088944891280306 a51.7992213570634,51.7992213570634 0 0,0 -0.8694372288335132,-0.19788108263790838 l 7.093235317219466 -29.97128707506471" fill="#ff730a" stroke="none" /><path d="M 94.81253420990036 120.34920634021253 l -8.468684219702633 33.22065331895335 a55.28309232480534,55.28309232480534 0 0,0 -0.9200937675454429,-0.24300512661087156 l 9.039268430059563 -33.0699568430389" fill="#ffc011" stroke="none" /><path d="M 94.46302465271185 120.25689768951611 l -8.082417851611151 29.569340882869067 a51.654060066740826,51.654060066740826 0 0,0 -0.8556589303843419,-0.2418177606726566 l 8.590207950100108 -29.42583432885789" fill="#ff700a" stroke="none" /><path d="M 94.11515582081647 120.15858648285463 l -9.375726639201359 32.11663563913882 a54.45717463848721,54.45717463848721 0 0,0 -0.8975709982694468,-0.27043077889141337 l 9.927172611911052 -31.95048949114168" fill="#ffae10" stroke="none" /><path d="M 93.76903079525671 120.05430185196036 l -9.236547946360686 29.727722044495824 a52.129588431590655,52.129588431590655 0 0,0 -0.8546240279138526,-0.27362362560072995 l 9.746893319365478 -29.564325572235386" fill="#ff7a0b" stroke="none" /><path d="M 93.42475214034765 119.94407469862007 l -10.193567156963029 30.91917889078935 a53.55617352614016,53.55617352614016 0 0,0 -0.8730428183839922,-0.296183525071035 l 10.724279708284246 -30.73913237882019" fill="#ff9a0e" stroke="none" /><path d="M 92.7421414339146 119.70592522655815 l -9.50626080263132 25.810597279501913 a48.5055617352614,48.5055617352614 0 0,0 -0.7810083276877335,-0.29531052130542396 l 9.949139351079337 -25.643138508089855" fill="#ff2603" stroke="none" /><path d="M 91.07499286063937 119.00905698771935 l -13.902333145333323 29.610087577009203 a53.71134593993326,53.71134593993326 0 0,0 -0.8335165345943277,-0.4001385893216739 l 14.409962347927893 -29.366394711187965" fill="#ff9e0e" stroke="none" /><path d="M 90.7491055286396 118.85261126421891 l -14.542264986164417 29.63601730991349 a54.01167964404895,54.01167964404895 0 0,0 -0.83112681983167,-0.4167442413733499 l 15.050245713678846 -29.381305227630836" fill="#ffa40f" stroke="none" /><path d="M 90.10565033884886 118.52300852407294 l -17.624457735050637 32.99438488012006 a58.406562847608456,58.406562847608456 0 0,0 -0.8827100326186396,-0.48132389044568546 l 18.18979057953792 -32.6861203379146" fill="#fdff18" stroke="none" /><line stroke="#e1ed5e" stroke-width="0.3" x1="58.666819895761336" x2="56.23545636021788" y1="174.27360380694188" y2="178.64263932499728" /><path d="M 58.180547188652646 175.14741091055294 a86.0,86.0 0 0,1 -31.652253787137756,-30.449443065178592" fill="none" id="id80" stroke="none" /><text fill="#e1ed5e" style="font-size:6.75px; font-family:Arial;" text-anchor="middle"><textPath startOffset="22.20632615414155" xlink:href="#id80">August</textPath></text><path d="M 89.7882731507175 118.34994917583269 l -14.268506941957884 25.639774845558062 a50.342602892102335,50.342602892102335 0 0,0 -0.7535837759775413,-0.4279045353284864 l 14.707739484856633 -25.390367144434943" fill="#ff5107" stroke="none" /><path d="M 89.4739219176387 118.17145234162733 l -13.759338678770687 23.753117267158174 a48.45050055617352,48.45050055617352 0 0,0 -0.7180644018018306,-0.4242451054929367 l 14.1661709516009 -23.51275358937149" fill="#ff2503" stroke="none" /><path d="M 89.1626897886671 117.98757091392108 l -15.914985272212464 26.41540387748318 a51.839265850945495,51.839265850945495 0 0,0 -0.7603605782061894,-0.4670755700070809 l 16.367325050350964 -26.13753984064772" fill="#ff740a" stroke="none" /><path d="M 87.95078237400918 117.19931262002967 l -23.599655466256138 33.68665623679895 a62.13070077864294,62.13070077864294 0 0,0 -0.8706365400358334,-0.6211760544817173 l 24.176019334140857 -33.27543592047302" fill="#b4ff20" stroke="none" /><path d="M 87.65650970185807 116.9893568818739 l -18.56231057309172 25.54882867497436 a52.580088987764185,52.580088987764185 0 0,0 -0.727645910313029,-0.5382950488927108 l 18.999341453823313 -25.22552367734188" fill="#ff840c" stroke="none" /><path d="M 85.70375840098266 115.38237550388516 l -18.227537656080663 19.612345440238773 a47.77474972191324,47.77474972191324 0 0,0 -0.5975578463282805,-0.5650282413835821 l 18.562431336799758 -19.29568256210926" fill="#ff1502" stroke="none" /><path d="M 85.44109423537348 115.13401014063109 l -18.024540729732273 18.736544256420913 a46.998887652947715,46.998887652947715 0 0,0 -0.5781983268297018,-0.5658887574191158 l 18.34438900893777 -18.423505396079225" fill="#ff0200" stroke="none" /><path d="M 85.18274418774928 114.88116024355367 l -21.629002366333257 21.722284760413785 a51.654060066740826,51.654060066740826 0 0,0 -0.6246682289473067,-0.6327856179363248 l 21.999711220336096 -21.346758648496795" fill="#ff700a" stroke="none" /><path d="M 84.9287848128048 114.62390073753433 l -23.422292154897345 22.72711730702141 a53.63626251390434,53.63626251390434 0 0,0 -0.6372331478922638,-0.6681364079404856 l 23.810031854168567 -22.320573782498425" fill="#ff9c0e" stroke="none" /><path d="M 84.67929136418377 114.36230785411684 l -23.017581407488414 21.577695790044103 a52.55005561735261,52.55005561735261 0 0,0 -0.6129678515949819,-0.6652555402853758 l 23.385595667079127 -21.178288994957384" fill="#ff840c" stroke="none" /><path d="M 84.4343377721795 114.09645910891817 l -23.741777990423504 21.500852178126657 a53.03058954393771,53.03058954393771 0 0,0 -0.6069253759436686,-0.6818870938444336 l 24.108362216015504 -21.088990914541355" fill="#ff8f0d" stroke="none" /><path d="M 83.95833913139862 113.55231037782056 l -23.358932046627807 19.734084879573928 a51.5789766407119,51.5789766407119 0 0,0 -0.5671329537018259,-0.6831481772479127 l 23.69516100022317 -19.32907544521225" fill="#ff6e0a" stroke="none" /><path d="M 83.72743513129214 113.27417163493433 l -24.276970486232905 19.80368034237739 a52.32981090100111,52.32981090100111 0 0,0 -0.5633729957272681,-0.7028944347278815 l 24.61426139401503 -19.38285807407125" fill="#ff7f0b" stroke="none" /><path d="M 83.50135304334701 112.99209946851258 l -24.11875141867618 18.992661538309477 a51.69911012235818,51.69911012235818 0 0,0 -0.544547176902761,-0.7039006318449759 l 24.44210541279701 -18.574682912351246" fill="#ff710a" stroke="none" /><path d="M 83.28015986056508 112.70617746262583 l -30.48786995074142 23.169138150902825 a59.29254727474972,59.29254727474972 0 0,0 -0.6105402531958889,-0.8179184422181178 l 30.882171470632393 -22.6409068291754" fill="#ebff1a" stroke="none" /><path d="M 82.6465618267979 111.8261652097733 l -25.860566214570035 17.623673500278716 a52.29477196885428,52.29477196885428 0 0,0 -0.5005279413806522,-0.7482213598411855 l 26.160097261361418 -17.17591522623171" fill="#ff7e0b" stroke="none" /><path d="M 82.44556493220864 111.52570212397912 l -25.70819538928416 16.879210356680684 a51.75417130144605,51.75417130144605 0 0,0 -0.4825340495606863,-0.7489035605940344 l 25.994934302221893 -16.4341851961652" fill="#ff720a" stroke="none" /><path d="M 82.24976979558568 111.22182372390057 l -26.13455553138422 16.52245474555867 a51.91935483870968,51.91935483870968 0 0,0 -0.47107014201908604,-0.7595150609333445 l 26.41509031307126 -16.070143353260057" fill="#ff760a" stroke="none" /><path d="M 82.05923443525364 110.91462005526583 l -27.78352626906653 16.902658469504708 a53.521134593993324,53.521134593993324 0 0,0 -0.47205417529221483,-0.7911899502951862 l 28.07036132005698 -16.42190642532341" fill="#ff990e" stroke="none" /><line stroke="#e1ed5e" stroke-width="0.3" x1="26.63291911575756" x2="22.317208475507996" y1="142.92168965132927" y2="145.44649492493687" /><path d="M 25.769776987707644 143.4266507060508 a86.0,86.0 0 0,1 -11.730757126820373,-40.83630448921669" fill="none" id="id81" stroke="none" /><text fill="#e1ed5e" style="font-size:6.75px; font-family:Arial;" text-anchor="middle"><textPath startOffset="21.46611528233685" xlink:href="#id81">September</textPath></text><path d="M 81.87401531095188 110.60418214915194 l -27.232182145654786 15.931549361061023 a52.55005561735261,52.55005561735261 0 0,0 -0.4500486954696392,-0.7846978352687578 l 27.5023828372768 -15.460431679933956" fill="#ff840c" stroke="none" /><path d="M 81.69416730710424 110.29060199501025 l -28.204886984000836 15.855343547373172 a53.3559510567297,53.3559510567297 0 0,0 -0.4431684076401878,-0.8044793868325495 l 28.47363180109254 -15.3674936421428" fill="#ff960d" stroke="none" /><path d="M 81.35079622478065 109.6543875284942 l -27.74709914943251 14.364219041679826 a52.244716351501665,52.244716351501665 0 0,0 -0.40656671632388497,-0.8021947023014084 l 27.99024453554266 -13.884470127675733" fill="#ff7d0b" stroke="none" /><path d="M 81.18737489456691 109.33194174019688 l -27.64047858332024 13.710969860139894 a51.854282536151274,51.854282536151274 0 0,0 -0.38976331566246336,-0.8030278743453741 l 27.872395155597424 -13.233153029829234" fill="#ff740a" stroke="none" /><path d="M 81.02952815118164 109.00673069616217 l -29.898163005971803 14.19493962252286 a54.096774193548384,54.096774193548384 0 0,0 -0.392138199016299,-0.8446307944291994 l 30.13807582182793 -13.678188760814834" fill="#ffa60f" stroke="none" /><path d="M 80.87730276802145 108.67885076344099 l -30.87192794029652 14.01124810601919 a54.90266963292547,54.90266963292547 0 0,0 -0.3831655098456469,-0.8639370719615321 l 31.108534534873442 -13.47776269756496" fill="#ffb711" stroke="none" /><path d="M 80.73074385275274 108.34839909993369 l -30.056732614234726 13.022069849825057 a53.75639599555061,53.75639599555061 0 0,0 -0.36054931574338084,-0.8522320778712583 l 30.276432911170417 -12.502763246287637" fill="#ff9f0e" stroke="none" /><path d="M 80.58989483394504 108.01547362559985 l -28.407288825578604 11.730893388173305 a51.73414905450501,51.73414905450501 0 0,0 -0.3328165852801076,-0.8260234705757173 l 28.6050080251161 -11.240170549754783" fill="#ff710a" stroke="none" /><path d="M 80.32549172779594 107.34259656027581 l -28.986525257546464 10.817874465055962 a51.93937708565072,51.93937708565072 0 0,0 -0.30539299850376367,-0.8403103708085634 l 29.16844251705545 -10.317316297241282" fill="#ff760a" stroke="none" /><path d="M 79.97269907076064 106.31721596034903 l -33.26320503931507 10.492220120382655 a55.878754171301445,55.878754171301445 0 0,0 -0.2814512465254802,-0.9197989583054123 l 33.43888305834668 -9.918094189525194" fill="#ffcc13" stroke="none" /><path d="M 79.86692584326677 105.97154293290107 l -30.948242945361326 9.17936128419173 a53.280867630700776,53.280867630700776 0 0,0 -0.25322966203051317,-0.8815256741388635 l 31.101665244277946 -8.64527813454827" fill="#ff940d" stroke="none" /><path d="M 79.76711848015287 105.62410040840567 l -34.67047161437652 9.637293302724068 a56.98498331479421,56.98498331479421 0 0,0 -0.25456528116156374,-0.9473321118112044 l 34.83122497187985 -9.039070257737325" fill="#ffe415" stroke="none" /><path d="M 79.67330655649465 105.27499134158121 l -33.56666109405809 8.710902593629738 a55.67853170189099,55.67853170189099 0 0,0 -0.23275929143284754,-0.929757667194425 l 33.711631699786 -8.131817087037922" fill="#ffc812" stroke="none" /><path d="M 79.35854240842038 103.8639653848113 l -37.23039319771564 6.969321325329829 a58.877085650723025,58.877085650723025 0 0,0 -0.17790288329707993,-0.997773847360328 l 37.34484252335191 -6.327428727236287" fill="#f4ff19" stroke="none" /><path d="M 79.29508885075956 103.50808413554451 l -32.47871133159494 5.502948123951632 a53.94160177975528,53.94160177975528 0 0,0 -0.1472303800455928,-0.9168037170862924 l 32.568623466001824 -4.943065177172126" fill="#ffa30f" stroke="none" /><path d="M 79.23777060512086 103.15116336523772 l -38.1707632264507 5.79332346323182 a59.60789766407119,59.60789766407119 0 0,0 -0.14523307861369777,-1.0157598135627053 l 38.264830356081 -5.135418177688715" fill="#e5ff1a" stroke="none" /><path d="M 79.18660465613746 102.79330883721812 l -38.46823474407521 5.1627165240241535 a59.81312569521691,59.81312569521691 0 0,0 -0.12816668492920616,-1.0216145832119004 l 38.551402938251265 -4.4997841865248445" fill="#e1ff1b" stroke="none" /><path d="M 79.1416061653843 102.43462659150553 l -34.33033754044686 4.007094378121493 a55.56340378197998,55.56340378197998 0 0,0 -0.10270683121829582,-0.9509376994211721 l 34.39422667316621 -3.415560356815538" fill="#ffc612" stroke="none" /><path d="M 79.10278846688536 102.07522291339032 l -36.40657534455784 3.6153990800817914 a57.58565072302559,57.58565072302559 0 0,0 -0.0894645287374304,-0.9872336196586164 l 36.46341446957234 -2.9881840718746093" fill="#fff016" stroke="none" /><path d="M 79.07016306316243 101.71520430193888 l -35.11143946324396 2.877389451067656 a56.229143492769744,56.229143492769744 0 0,0 -0.07075083211599387,-0.9653388924248495 l 35.155766854024286 -2.2725774221460453" fill="#ffd413" stroke="none" /><path d="M 79.04373962182676 101.35467743843564 l -37.40357803394912 2.417882883920089 a58.481646273637374,58.481646273637374 0 0,0 -0.05629178463308567,-1.0051276293058093 l 37.43965616946973 -1.7736835382788423" fill="#fcff18" stroke="none" /><path d="M 79.0235259727143 100.99374915477108 l -36.474665031554714 1.7279676030641231 a57.51557285873192,57.51557285873192 0 0,0 -0.0383378737077908,-0.9893301698856278 l 36.4990050381137 -1.0998601861644985" fill="#ffef16" stroke="none" /><line stroke="#e1ed5e" stroke-width="0.3" x1="15.007084014347285" x2="10.007500721073583" y1="101.09737516637583" y2="101.16192664675087" /><path d="M 14.007167355692545 101.11028546245083 a86.0,86.0 0 0,1 10.666146001902526,-42.60595125391555" fill="none" id="id82" stroke="none" /><text fill="#e1ed5e" style="font-size:6.75px; font-family:Arial;" text-anchor="middle"><textPath startOffset="22.20632615414155" xlink:href="#id82">October</textPath></text><path d="M 79.08570108090925 98.10471618934814 l -38.794312932233666 -3.5155963644905612 a59.95328142380423,59.95328142380423 0 0,0 0.10198588272573965,-1.026983921081233 l 38.7280499238257 4.182855816276225" fill="#deff1b" stroke="none" /><path d="M 79.12142395522702 97.74499172005258 l -37.94672072335787 -4.098467694565178 a59.167408231368185,59.167408231368185 0 0,0 0.11808024726996134,-1.0116394482172315 l 37.87055012308432 4.751050881107271" fill="#eeff19" stroke="none" /><path d="M 79.16333360222342 97.38593545837743 l -36.47989385626942 -4.576586061866611 a57.765850945494996,57.765850945494996 0 0,0 0.13226729672801002,-0.9855449927998894 l 36.39571056048358 5.203849396731161" fill="#fff417" stroke="none" /><path d="M 79.32604984820605 96.31383870115002 l -36.87998798729362 -6.575694699013174 a58.46162402669633,58.46162402669633 0 0,0 0.18516821910426415,-0.9891760306583822 l 36.761334044279494 7.209548807134128" fill="#fcff18" stroke="none" /><path d="M 79.3925641242962 95.95851677861259 l -41.63894023160841 -8.166133783815608 a63.432146829810904,63.432146829810904 0 0,0 0.2193565316383006,-1.0696603511549283 l 41.49220440405511 8.88166979113394" fill="#9cff22" stroke="none" /><path d="M 79.54389044137918 95.25157060432595 l -36.18420205812614 -8.399355127593465 a58.14627363737486,58.14627363737486 0 0,0 0.23470937102422262,-0.97302187048321 l 36.034259886841106 9.020962229736071" fill="#fffb17" stroke="none" /><path d="M 79.71946130924805 94.55025226153421 l -34.785974039087336 -9.347620703797826 a57.020022246941046,57.020022246941046 0 0,0 0.2628710712430627,-0.9456871060671426 l 34.61991619727791 9.94501911328391" fill="#ffe415" stroke="none" /><path d="M 79.81627453868168 94.20196356495316 l -36.11613547706577 -10.374827471292706 a58.57675194660734,58.57675194660734 0 0,0 0.28673069840293214,-0.9667133735491218 l 35.93219888155113 10.994970231588367" fill="#faff18" stroke="none" /><path d="M 79.91906864156998 93.8553929516997 l -40.21132313892514 -12.304348596719578 a63.05172413793103,63.05172413793103 0 0,0 0.32650139233142733,-1.0350986382418736 l 39.99356626282551 12.994697401387866" fill="#a3ff21" stroke="none" /><path d="M 80.14247586403 93.16781622104843 l -35.09698271131834 -12.075474985124558 a58.116240266963295,58.116240266963295 0 0,0 0.3336063675761579,-0.9431501250544025 l 34.88392326293238 12.67782273660557" fill="#fffb17" stroke="none" /><path d="M 80.65960295795067 91.81776055985345 l -34.1368918074945 -14.442114187418992 a58.066184649610676,58.066184649610676 0 0,0 0.3973642941971197,-0.9171715770889718 l 33.88323680345471 15.027584909094562" fill="#fffa17" stroke="none" /><path d="M 80.803312248108 91.48605970444005 l -36.83000311019675 -16.33450789106038 a61.28976640711902,61.28976640711902 0 0,0 0.4360261473848088,-0.9607258183063853 l 36.54337464584859 16.96605571820884" fill="#c4ff1e" stroke="none" /><path d="M 80.95270993114464 91.15688171328213 l -33.524199078760844 -15.564337858523306 a57.96106785317019,57.96106785317019 0 0,0 0.4279232688960143,-0.9013155383345967 l 33.25131761602307 16.139095812498432" fill="#fff817" stroke="none" /><path d="M 81.10775173730289 90.83032412892265 l -37.70043757873039 -18.29855229445245 a62.906562847608456,62.906562847608456 0 0,0 0.4812052114754832,-0.9700803427945422 l 37.37987235430149 18.944792225745953" fill="#a6ff21" stroke="none" /><path d="M 81.26839172434947 90.50648371742162 l -37.13876949869563 -18.8225969581647 a62.63626251390434,62.63626251390434 0 0,0 0.49569314151988875,-0.9575213734583669 l 36.809266924015624 19.459091053883398" fill="#abff21" stroke="none" /><path d="M 81.43458229118936 90.18545643968196 l -36.11892722214661 -19.094145369295056 a61.85539488320356,61.85539488320356 0 0,0 0.5057176343375756,-0.9370179712298246 l 35.78490148859056 19.713044323857353" fill="#baff1f" stroke="none" /><path d="M 81.6062741919709 89.86733742301443 l -31.277810244989595 -17.23019581063445 a56.70967741935484,56.70967741935484 0 0,0 0.47836600093381104,-0.8509597381484588 l 30.97658660276336 17.766039058717695" fill="#ffde14" stroke="none" /><line stroke="#e1ed5e" stroke-width="0.3" x1="26.266209847984243" x2="21.928928074336255" y1="57.71137044288968" y2="55.22380399835378" /><path d="M 25.398753493254645 57.2138571539825 a86.0,86.0 0 0,1 29.58750427330803,-30.4925239686951" fill="none" id="id83" stroke="none" /><text fill="#e1ed5e" style="font-size:6.75px; font-family:Arial;" text-anchor="middle"><textPath startOffset="21.46611528233685" xlink:href="#id83">November</textPath></text><path d="M 81.78341655067845 89.55222093294921 l -36.11329839853978 -20.712103567613546 a62.631256952169075,62.631256952169075 0 0,0 0.5444157158276983,-0.9305829332966793 l 35.75142300824176 21.330665913264117" fill="#abff21" stroke="none" /><path d="M 81.96595687620814 89.24020034530311 l -31.147626682423926 -18.58386500030201 a57.270300333704114,57.270300333704114 0 0,0 0.5123897457193619,-0.8422340181503556 l 30.823121138418347 19.11726679165944" fill="#ffe915" stroke="none" /><path d="M 82.15384107792192 88.93136811851018 l -35.47253756186456 -22.00095056246868 a62.741379310344826,62.741379310344826 0 0,0 0.5771382407725302,-0.9128940968538339 l 35.08857172484607 22.608292307036727" fill="#a9ff21" stroke="none" /><path d="M 83.17141714833178 87.43820079747577 l -33.64245774120642 -25.11261955623011 a62.981646273637374,62.981646273637374 0 0,0 0.6559810173494807,-0.8631941256013738 l 33.20520078363283 25.687998457712514" fill="#a4ff21" stroke="none" /><path d="M 83.39014120810768 87.1503855733568 l -33.19332340169043 -25.678809952242958 a62.96662958843159,62.96662958843159 0 0,0 0.6705823698192214,-0.8515715109645616 l 32.74638695127724 26.246373857160567" fill="#a5ff21" stroke="none" /><path d="M 83.6137871275137 86.86637796730984 l -22.1264649426271 -17.73445943473457 a49.35650723025584,49.35650723025584 0 0,0 0.5370493489502807,-0.658359000383229 l 21.817917101600425 18.112702604725882" fill="#ff3a05" stroke="none" /><path d="M 83.84228863543731 86.58626213691792 l -28.657920768404015 -23.791106810549916 a58.24638487208009,58.24638487208009 0 0,0 0.6470601615904958,-0.7659151380420463 l 28.244149993326396 24.280880898221078" fill="#fffd18" stroke="none" /><path d="M 84.07557802195018 86.31012108654704 l -27.154770736763474 -23.344365266210666 a56.809788654060064,56.809788654060064 0 0,0 0.6438662822899716,-0.7360504641984897 l 26.748912590895657 23.8083312866121" fill="#ffe015" stroke="none" /><path d="M 84.31358615837235 86.03803664274999 l -31.213296380877406 -27.781933125613335 a62.78642936596218,62.78642936596218 0 0,0 0.7255012556505822,-0.8011166069479267 l 30.73045148461078 28.31510251983082" fill="#a8ff21" stroke="none" /><path d="M 84.5562425177563 85.77008943001954 l -26.95724679226219 -24.83846379404901 a57.655728587319246,57.655728587319246 0 0,0 0.6787800086851117,-0.7240751866978307 l 26.525699461606617 25.29880839762489" fill="#fff116" stroke="none" /><path d="M 84.80347519578584 85.50635884689758 l -25.920784561963263 -24.72187257864314 a56.81979977753059,56.81979977753059 0 0,0 0.6811225777732469,-0.7019566887602232 l 25.491397720486898 25.164393462953484" fill="#ffe015" stroke="none" /><path d="M 85.05521093208273 85.24692304244772 l -25.947364588600692 -25.61451117721537 a57.46051167964405,57.46051167964405 0 0,0 0.700920285542513,-0.6979103110846538 l 25.50260850289087 26.057357338950133" fill="#ffed16" stroke="none" /><path d="M 85.57189188830299 84.74124197986013 l -24.74765596021891 -26.17241920695848 a57.020022246941046,57.020022246941046 0 0,0 0.7189739217539001,-0.6682079036616142 l 24.293474154670154 26.59453169669474" fill="#ffe415" stroke="none" /><path d="M 85.83668400450813 84.49514656593477 l -28.260237930620328 -30.93702401793103 a62.901557285873196,62.901557285873196 0 0,0 0.8057060844286886,-0.7233708778330583 l 27.723520858595666 31.418893904533366" fill="#a6ff21" stroke="none" /><path d="M 86.10567301691215 84.25364557470407 l -23.762544756949456 -26.929944303551174 a56.914905450500555,56.914905450500555 0 0,0 0.7401816013316311,-0.6418781908041756 l 23.29546935697105 27.33498748777503" fill="#ffe215" stroke="none" /><path d="M 86.93701828274178 83.55741782278169 l -23.221925388680724 -29.229805627926467 a58.33147942157953,58.33147942157953 0 0,0 0.7915510783113363,-0.6178181719971529 l 22.715341755209963 29.62520218914684" fill="#ffff18" stroke="none" /><path d="M 87.22198572758235 83.33499621200491 l -23.230076638104908 -30.296516103060203 a59.17741935483871,59.17741935483871 0 0,0 0.8137003547315417,-0.6128622374063137 l 22.705130129614975 30.69189492997237" fill="#eeff19" stroke="none" /><path d="M 87.51073957382395 83.11751280151077 l -22.25858895753654 -30.08827827342381 a58.4265850945495,58.4265850945495 0 0,0 0.8136727838264441,-0.591167881330426 l 21.737370857356314 30.466965389570905" fill="#fdff18" stroke="none" /><path d="M 87.80319425747018 82.90503203632743 l -18.710942736116785 -26.22514233613459 a53.21579532814238,53.21579532814238 0 0,0 0.7502638037596329,-0.5256077407346905 l 18.256747792773492 26.54333491963322" fill="#ff930d" stroke="none" /><path d="M 88.09926311788651 82.69761687909137 l -20.764355786684582 -30.189125483485892 a57.64071190211346,57.64071190211346 0 0,0 0.8223279379494491,-0.5552394944962898 l 20.241623154328597 30.542076890280846" fill="#fff116" stroke="none" /><path d="M 88.39885842347998 82.49532879139004 l -24.0576668637512 -36.30000941877641 a64.54838709677419,64.54838709677419 0 0,0 0.9314423677505941,-0.6058360257400468 l 23.429257470216317 36.708744368675994" fill="#88ff25" stroke="none" /><path d="M 89.00827224532344 82.1063720568725 l -19.356479735789858 -31.510755580126947 a57.98109010011123,57.98109010011123 0 0,0 0.8549116636688997,-0.5150747116886207 l 18.811206005903312 31.83927690127419" fill="#fff817" stroke="none" /><line stroke="#e1ed5e" stroke-width="0.3" x1="56.76296977257108" x2="54.21961505331056" y1="26.818313649435495" y2="22.513508569990535" /><path d="M 56.25429882871898 25.957352633546506 a86.0,86.0 0 0,1 42.26535254187918,-11.944610805530505" fill="none" id="id84" stroke="none" /><text fill="#e1ed5e" style="font-size:6.75px; font-family:Arial;" text-anchor="middle"><textPath startOffset="22.20632615414155" xlink:href="#id84">December</textPath></text><path d="M 89.3179101791058 81.91981866633112 l -21.40067494309926 -36.22213350774358 a63.07174638487208,63.07174638487208 0 0,0 0.9394784932526891,-0.5442065824327686 l 20.77399971738125 36.5851442475664" fill="#a3ff22" stroke="none" /><path d="M 89.63071344664047 81.73862282372117 l -21.604465381276565 -38.04767946079451 a64.75361512791991,64.75361512791991 0 0,0 0.9740051030671368,-0.5420327853239152 l 20.946336189137384 38.41392764367861" fill="#84ff25" stroke="none" /><path d="M 89.94658935756843 81.56283822128135 l -19.410287510812584 -35.596935581031545 a61.54505005561735,61.54505005561735 0 0,0 0.9344735272331934,-0.4991633953803011 l 18.794668937051085 35.9257777029136" fill="#bfff1e" stroke="none" /><path d="M 90.58718382345135 81.22770947309562 l -18.319317673967817 -36.53482094839687 a61.870411568409345,61.870411568409345 0 0,0 0.9561298226590209,-0.469168751552549 l 17.68771658429837 36.844744860084255" fill="#b9ff1f" stroke="none" /><path d="M 90.91171255644093 81.06846463323043 l -18.31593921864577 -38.15337633704989 a63.32202447163515,63.32202447163515 0 0,0 0.98668314817802,-0.4632609680461681 l 17.65647785916814 38.46300228773607" fill="#9eff22" stroke="none" /><path d="M 91.23893434514133 80.91482961587045 l -17.62515353416666 -38.3947651458891 a63.24694104560623,63.24694104560623 0 0,0 0.9933320051961266,-0.4456791157985424 l 16.96163941050376 38.692464592204175" fill="#9fff22" stroke="none" /><path d="M 91.56875222667455 80.76684994638697 l -16.883262166782238 -38.51367239799849 a63.05172413793103,63.05172413793103 0 0,0 0.9977672395409217,-0.4271918606240484 l 16.217811169451007 38.798583786585326" fill="#a3ff21" stroke="none" /><path d="M 91.90106846888425 80.62456947434976 l -16.937873491341882 -40.52122058606115 a64.91879866518354,64.91879866518354 0 0,0 1.0347318609610117,-0.4220931066557594 l 16.23785776079249 40.80677457890049" fill="#81ff25" stroke="none" /><path d="M 92.23578459929587 80.48803036053334 l -15.64749115198319 -39.32314555101477 a63.32202447163515,63.32202447163515 0 0,0 1.016218489202069,-0.39427698590892113 l 14.968289497781443 39.58666524081424" fill="#9eff22" stroke="none" /><path d="M 92.57280143429618 80.3572730644239 l -14.646086222962255 -38.734533593998364 a62.41101223581757,62.41101223581757 0 0,0 1.0081389722292295,-0.37130609150679417 l 13.977164924960457 38.98090295331148" fill="#afff20" stroke="none" /><path d="M 93.25333710446033 80.11325718540243 l -13.575876727509744 -40.016816186437175 a63.256952169076754,63.256952169076754 0 0,0 1.0341522996302064,-0.3409437538442725 l 12.885041605637129 40.244573664540674" fill="#9fff22" stroke="none" /><path d="M 93.59665428221793 80.00007090966166 l -12.900304625781214 -40.29224551204665 a63.30700778642937,63.30700778642937 0 0,0 1.0406907189424384,-0.32334767219824717 l 12.204828534128048 40.50833331912742" fill="#9eff22" stroke="none" /><path d="M 95.33964822691252 79.52364482259891 l -10.611872037574622 -46.62576378747321 a68.81813125695217,68.81813125695217 0 0,0 1.1573154173119362,-0.2529443247287395 l 9.807713896109165 46.80152161029782" fill="#3eff2d" stroke="none" /><path d="M 95.692805502759 79.44645832069477 l -8.556211411093246 -40.829465204670996 a62.71635150166852,62.71635150166852 0 0,0 1.0585134118027393,-0.21232783243046288 l 7.85213158982337 40.97069699317866" fill="#a9ff21" stroke="none" /><path d="M 96.04723909329186 79.375362276772 l -8.639794417888204 -45.08054852741161 a66.90100111234705,66.90100111234705 0 0,0 1.132872495173875,-0.2070252073542731 l 7.862526801611436 45.22258921611662" fill="#5eff29" stroke="none" /><path d="M 96.40284397218896 79.31037775812273 l -6.979385841343195 -40.14306174691268 a61.74527252502781,61.74527252502781 0 0,0 1.048701684222501,-0.17304476351947903 l 6.2873549509818085 40.25725277337179" fill="#bcff1f" stroke="none" /><path d="M 96.75951476605007 79.25152402106235 l -6.234059190340807 -39.9160057904034 a61.39988876529477,61.39988876529477 0 0,0 1.0456430866999946,-0.15410060999209466 l 5.546047123212164 40.017400884556466" fill="#c2ff1e" stroke="none" /><path d="M 97.83486435360386 79.11191278185805 l -4.458947716080411 -43.01757672765287 a64.2480533926585,64.2480533926585 0 0,0 1.1010123833039367,-0.1045543924120815 l 3.717810205686238 43.08795666458014" fill="#8dff24" stroke="none" /></svg>