<?xml version="1.0" encoding="utf-8" ?>
<svg baseProfile="full" height="200mm" version="1.1" viewBox="0,0,200,200" width="200mm" xmlns="http://www.w3.org/2000/svg" xmlns:ev="http://www.w3.org/2001/xml-events" xmlns:xlink="http://www.w3.org/1999/xlink"><defs /><rect fill="#2b2b2b" height="200" width="200" x="0" y="0" /><text alignment-baseline="middle" fill="#e1ed5e" style="dominant-baseline: central; font-size:9.0px; font-family:Arial;" text-anchor="middle" x="100.0" y="100.0">2015</text><line stroke="#e1ed5e" stroke-width="0.3" x1="100.0" x2="100.0" y1="15.0" y2="10.0" /><path d="M 100.0 14.0 a86.0,86.0 0 0,1 42.46469731375804,11.215312516191453" fill="none" id="id1" stroke="none" /><text fill="#e1ed5e" style="font-size:6.75px; font-family:Arial;" text-anchor="middle"><textPath startOffset="22.20632615414155" xlink:href="#id1">January</textPath></text><line stroke="#e1ed5e" stroke-width="0.3" x1="143.23703022742887" x2="145.7803849466894" y1="26.818313649435467" y2="22.513508569990506" /><path d="M 143.74570117128098 25.957352633546478 a86.0,86.0 0 0,1 28.547481713284135,27.462654790039114" fill="none" id="id2" stroke="none" /><text fill="#e1ed5e" style="font-size:6.75px; font-family:Arial;" text-anchor="middle"><textPath startOffset="19.985693538727396" xlink:href="#id2">February</textPath></text><line stroke="#e1ed5e" stroke-width="0.3" x1="172.23445277983987" x2="176.4835382374775" y1="55.19839476539836" y2="52.563006222186495" /><path d="M 173.08426987136738 54.67131705675599 a86.0,86.0 0 0,1 12.851231095245387,41.99856678651699" fill="none" id="id3" stroke="none" /><text fill="#e1ed5e" style="font-size:6.75px; font-family:Arial;" text-anchor="middle"><textPath startOffset="22.20632615414155" xlink:href="#id3">March</textPath></text><line stroke="#e1ed5e" stroke-width="0.3" x1="184.98032266829074" x2="189.97916517819016" y1="98.17113171792111" y2="98.06355123074" /><path d="M 185.9800911702706 98.14961562048488 a86.0,86.0 0 0,1 -9.607161424134198,41.387399972396054" fill="none" id="id4" stroke="none" /><text fill="#e1ed5e" style="font-size:6.75px; font-family:Arial;" text-anchor="middle"><textPath startOffset="21.466115282336823" xlink:href="#id4">April</textPath></text><line stroke="#e1ed5e" stroke-width="0.3" x1="174.80103733775053" x2="179.2010983576182" y1="140.37084112569926" y2="142.7455964860345" /><path d="M 175.68104954172406 140.8457921977663 a86.0,86.0 0 0,1 -30.038265399797805,32.042727171017184" fill="none" id="id5" stroke="none" /><text fill="#e1ed5e" style="font-size:6.75px; font-family:Arial;" text-anchor="middle"><textPath startOffset="22.206326154141568" xlink:href="#id5">May</textPath></text><line stroke="#e1ed5e" stroke-width="0.3" x1="143.8653032363475" x2="146.44561519142675" y1="172.8068346515853" y2="177.08958963109032" /><path d="M 144.38136562736335 173.6633856474863 a86.0,86.0 0 0,1 -40.68145358897372,12.25698825130547" fill="none" id="id6" stroke="none" /><text fill="#e1ed5e" style="font-size:6.75px; font-family:Arial;" text-anchor="middle"><textPath startOffset="21.466115282336833" xlink:href="#id6">June</textPath></text><line stroke="#e1ed5e" stroke-width="0.3" x1="102.19456741930631" x2="102.32365962044197" y1="184.97166512339345" y2="189.96999836594603" /><path d="M 102.22038585953345 185.97133177190398 a86.0,86.0 0 0,1 -42.740103519485714,-10.115201625700543" fill="none" id="id7" stroke="none" /><text fill="#e1ed5e" style="font-size:6.75px; font-family:Arial;" text-anchor="middle"><textPath startOffset="22.20632615414155" xlink:href="#id7">July</textPath></text><line stroke="#e1ed5e" stroke-width="0.3" x1="58.666819895761336" x2="56.23545636021788" y1="174.27360380694188" y2="178.64263932499728" /><path d="M 58.180547188652646 175.14741091055294 a86.0,86.0 0 0,1 -31.652253787137756,-30.449443065178592" fill="none" id="id8" stroke="none" /><text fill="#e1ed5e" style="font-size:6.75px; font-family:Arial;" text-anchor="middle"><textPath startOffset="22.20632615414155" xlink:href="#id8">August</textPath></text><line stroke="#e1ed5e" stroke-width="0.3" x1="26.63291911575756" x2="22.317208475507996" y1="142.92168965132927" y2="145.44649492493687" /><path d="M 25.769776987707644 143.4266507060508 a86.0,86.0 0 0,1 -11.730757126820373,-40.83630448921669" fill="none" id="id9" stroke="none" /><text fill="#e1ed5e" style="font-size:6.75px; font-family:Arial;" text-anchor="middle"><textPath startOffset="21.46611528233685" xlink:href="#id9">September</textPath></text><path d="M 80.73074385275274 108.34839909993369 l -12.431047737765857 5.385747480450756 a34.547591069330196,34.547591069330196 0 0,0 -0.23171401448973852,-0.5477034830403947 l 12.521912733447904 -5.1709694717442005" fill="#ff0000" stroke="none" /><path d="M 80.58989483394504 108.01547362559985 l -13.514086146753892 5.580691096554537 a35.62103407755582,35.62103407755582 0 0,0 -0.22915755149172826,-0.5687502497284495 l 13.608146312503008 -5.347241478983282" fill="#ff1402" stroke="none" /><path d="M 80.45479744820244 107.68017299344265 l -16.80634778763557 6.603956037546019 a39.05728554641598,39.05728554641598 0 0,0 -0.2404919259381592,-0.6278485306637126 l 16.91753399316724 -6.313683940049148" fill="#ff5107" stroke="none" /><path d="M 80.32549172779594 107.34259656027581 l -20.281389402809644 7.5690867596967735 a42.64776733254994,42.64776733254994 0 0,0 -0.2507602184697073,-0.6899844240002092 l 20.408673882284578 -7.218854538690447" fill="#ff8e0d" stroke="none" /><path d="M 80.20201598880116 107.00284435728193 l -25.782744747839136 9.119744135085424 a48.34811985898942,48.34811985898942 0 0,0 -0.2707705810510924,-0.7869860534339569 l 25.935906159833454 -8.67458537856217" fill="#ffe915" stroke="none" /><path d="M 80.0844068197444 106.66101706037122 l -29.62181206569745 9.907382308066834 a52.23472385428907,52.23472385428907 0 0,0 -0.2778582581214504,-0.8551597866885807 l 29.787962574835152 -9.396023621400449" fill="#daff1c" stroke="none" /><path d="M 79.86692584326677 105.97154293290107 l -30.34156005406623 8.999416934718719 a52.648061104582844,52.648061104582844 0 0,0 -0.2502221024717943,-0.8710559647602168 l 30.491974793424127 -8.475803494453906" fill="#d4ff1c" stroke="none" /><path d="M 79.76711848015287 105.62410040840567 l -30.16506278296831 8.384932306891534 a52.30875440658049,52.30875440658049 0 0,0 -0.23367547024033794,-0.8695933541729158 l 30.30492632955042 -7.8644480195430795" fill="#d9ff1c" stroke="none" /><path d="M 79.67330655649465 105.27499134158121 l -30.84235359450797 8.00391606323941 a52.86398354876616,52.86398354876616 0 0,0 -0.22099331604160502,-0.8827584442431695 l 30.975558224844633 -7.471829779598849" fill="#d1ff1d" stroke="none" /><path d="M 79.58551787078972 104.9243191809786 l -30.01600559832476 7.240369418565777 a51.876909518213864,51.876909518213864 0 0,0 -0.20192329644240942,-0.8698802762502466 l 30.136189460697725 -6.722620484966956" fill="#dfff1b" stroke="none" /><path d="M 79.50377843672027 104.57218783832718 l -31.069478045394657 6.93081352695894 a52.8331374853114,52.8331374853114 0 0,0 -0.1903652445252319,-0.8893230465687333 l 31.18417732864433 -6.394976660974042" fill="#d1ff1c" stroke="none" /><path d="M 79.4281124754447 104.21870165774334 l -30.74904927289581 6.305744428495336 a52.38895417156287,52.38895417156287 0 0,0 -0.1735572882404937,-0.8849648736013316 l 30.853036494111972 -5.775515827826051" fill="#d8ff1c" stroke="none" /><path d="M 79.35854240842038 103.8639653848113 l -31.4836803218218 5.8935688243067705 a53.030552291421856,53.030552291421856 0 0,0 -0.16023700988611453,-0.8986942475608976 l 31.580463774047104 -5.3507558260126595" fill="#ceff1d" stroke="none" /><path d="M 79.29508885075956 103.50808413554451 l -31.835929775300954 5.394040060352515 a53.289659224441834,53.289659224441834 0 0,0 -0.145450941782365,-0.9057231533225661 l 31.92406247144461 -4.845237677336735" fill="#caff1d" stroke="none" /><path d="M 79.23777060512086 103.15116336523772 l -31.78987650003235 4.824871756644835 a53.153936545240896,53.153936545240896 0 0,0 -0.12950817169241566,-0.9057798511800451 l 31.868218722741364 -4.276946433484389" fill="#ccff1d" stroke="none" /><path d="M 79.18660465613746 102.79330883721812 l -32.56525957738305 4.370494379266664 a53.8572267920094,53.8572267920094 0 0,0 -0.11540447246622088,-0.9198871930290607 l 32.635665559096125 -3.8092894319501953" fill="#c2ff1e" stroke="none" /><path d="M 79.07016306316243 101.71520430193888 l -31.443944211218373 2.5768374853453095 a52.549353701527615,52.549353701527615 0 0,0 -0.06612070308378129,-0.902164460434956 l 31.48364147296649 -2.0351998884135925" fill="#d5ff1c" stroke="none" /><path d="M 79.0095281055655 100.63252640178507 l -25.73861036644231 0.7756066983110769 a46.750293772032904,46.750293772032904 0 0,0 -0.017315278781731346,-0.8045729659055241 l 25.748147707909048 -0.33244391661542394" fill="#ffd013" stroke="none" /><line stroke="#e1ed5e" stroke-width="0.3" x1="15.007084014347285" x2="10.007500721073583" y1="101.09737516637583" y2="101.16192664675087" /><path d="M 14.007167355692545 101.11028546245083 a86.0,86.0 0 0,1 10.666146001902526,-42.60595125391555" fill="none" id="id10" stroke="none" /><text fill="#e1ed5e" style="font-size:6.75px; font-family:Arial;" text-anchor="middle"><textPath startOffset="22.20632615414155" xlink:href="#id10">October</textPath></text><path d="M 79.00175016825051 100.2711162175752 l -31.404844269517238 0.40547963092695805 a52.40746180963572,52.40746180963572 0 0,0 -0.003882401447024648,-0.9021333674088653 l 31.407170968253766 0.1351632146855826" fill="#d7ff1c" stroke="none" /><path d="M 79.00486145842228 99.54816195383935 l -31.196654154906007 -0.6713856749355344 a52.20387779083431,52.20387779083431 0 0,0 0.027067227237465182,-0.8982294983812271 l 31.180475233212896 1.2082853207417559" fill="#daff1b" stroke="none" /><path d="M 79.16333360222342 97.38593545837743 l -31.616152157613406 -3.966405216651156 a52.86398354876616,52.86398354876616 0 0,0 0.12104342070312034,-0.9019140795675465 l 31.54319273785245 4.510037638283363" fill="#d1ff1d" stroke="none" /><path d="M 79.21141760316559 97.0276538004421 l -31.793584006439467 -4.5458385178902585 a53.11692126909518,53.11692126909518 0 0,0 0.13720380654747588,-0.9040016575511435 l 31.71062430645269 5.092439287833494" fill="#cdff1d" stroke="none" /><path d="M 79.32604984820605 96.31383870115002 l -37.21796901592047 -6.635956650808664 a58.80493537015276,58.80493537015276 0 0,0 0.1862556050796707,-0.994984890019613 l 37.09822768693093 7.2756196182908495" fill="#7eff26" stroke="none" /><path d="M 79.3925641242962 95.95851677861259 l -32.87866752084234 -6.4480891231947775 a54.50499412455934,54.50499412455934 0 0,0 0.18848528807021825,-0.9191212038179609 l 32.76280293685713 7.013085983176142" fill="#b9ff1f" stroke="none" /><path d="M 79.54389044137918 95.25157060432595 l -33.95329583026078 -7.881500025134657 a55.85605170387779,55.85605170387779 0 0,0 0.22546481387737458,-0.9346972128542366 l 33.812598216122595 8.464782469648291" fill="#a6ff21" stroke="none" /><path d="M 79.62865764111835 94.90015583598534 l -32.884995964175864 -8.232562773578293 a54.899823736780256,54.899823736780256 0 0,0 0.23738597023681987,-0.9147449791541307 l 32.73841366206874 8.797404178281287" fill="#b3ff20" stroke="none" /><path d="M 79.71946130924805 94.55025226153421 l -31.46939053012686 -8.456394698759194 a53.58578143360752,53.58578143360752 0 0,0 0.247038692967271,-0.8887296176565995 l 31.31916506659323 8.996835619834735" fill="#c6ff1e" stroke="none" /><path d="M 79.81627453868168 94.20196356495316 l -60.551176383954946 -17.394109305140535 a84.0,84.0 0 0,0 0.4111764115531722,-1.3862824530138431 l 60.24279407529007 18.433821144900918" fill="#4dd2ff" stroke="none" /><path d="M 80.02781315780177 93.51064311812611 l -30.48046728707984 -9.903704171955013 a53.04905992949471,53.04905992949471 0 0,0 0.28965470354187106,-0.8660306956436403 l 30.3054752897662 10.426907970520976" fill="#ceff1d" stroke="none" /><path d="M 80.14247586403 93.16781622104843 l -30.684658329965394 -10.557369764184859 a53.450058754406584,53.450058754406584 0 0,0 0.30682094825611345,-0.8674241376732791 l 30.49838430089947 11.083991528284749" fill="#c8ff1d" stroke="none" /><path d="M 80.2630227832202 92.82701384747504 l -29.031446805057726 -10.550864179110595 a51.88924794359577,51.88924794359577 0 0,0 0.31231251648437436,-0.8368422721639863 l 28.845529700071726 11.049029588303924" fill="#dfff1b" stroke="none" /><path d="M 80.38941819471856 92.48833698450439 l -25.993814660819577 -9.956704913606412 a48.83548766157462,48.83548766157462 0 0,0 0.3074460220730121,-0.7824165914351165 l 25.818575088864872 10.402670509937291" fill="#fff116" stroke="none" /><path d="M 80.52162464483688 92.15188598940014 l -29.32628486933344 -11.815976587639321 a52.617215041128084,52.617215041128084 0 0,0 0.3457159320057528,-0.8371785512936862 l 29.118547250441484 12.319029709386319" fill="#d4ff1c" stroke="none" /><path d="M 80.65960295795067 91.81776055985345 l -28.061757047791318 -11.871939070177373 a51.46974148061105,51.46974148061105 0 0,0 0.35222285775045065,-0.8129789179535876 l 27.853243480198188 12.353217132717559" fill="#e5ff1a" stroke="none" /><path d="M 80.95270993114464 91.15688171328213 l -28.694037448028872 -13.321830368475101 a52.63572267920094,52.63572267920094 0 0,0 0.3886065482203807,-0.8185044975778464 l 28.46047270596674 13.81377728169348" fill="#d4ff1c" stroke="none" /><path d="M 81.10775173730289 90.83032412892265 l -26.73441829653701 -12.976007247643818 a50.717097532314924,50.717097532314924 0 0,0 0.38796161383959854,-0.7821069397620528 l 26.507096669743998 13.434273775904833" fill="#f0ff19" stroke="none" /><line stroke="#e1ed5e" stroke-width="0.3" x1="26.266209847984243" x2="21.928928074336255" y1="57.71137044288968" y2="55.22380399835378" /><path d="M 25.398753493254645 57.2138571539825 a86.0,86.0 0 0,1 29.58750427330803,-30.4925239686951" fill="none" id="id11" stroke="none" /><text fill="#e1ed5e" style="font-size:6.75px; font-family:Arial;" text-anchor="middle"><textPath startOffset="21.46611528233685" xlink:href="#id11">November</textPath></text><path d="M 82.15384107792192 88.93136811851018 l -25.704969798751126 -15.94286196091204 a51.24764982373678,51.24764982373678 0 0,0 0.4714110334855429,-0.7456590453695686 l 25.42673116901962 16.382968653995825" fill="#e8ff1a" stroke="none" /><path d="M 82.54541684631803 88.32363383020207 l -24.80253193723845 -16.59182819133743 a50.840481786133964,50.840481786133964 0 0,0 0.49285134501289973,-0.7231985341446895 l 24.513256126556808 17.016304748752535" fill="#efff19" stroke="none" /><path d="M 82.7489923806493 88.02491185347247 l -26.140040335079597 -18.14556541121885 a52.8207990599295,52.8207990599295 0 0,0 0.5249063893182123,-0.7424428625614709 l 25.823821325957507 18.592834774112106" fill="#d1ff1c" stroke="none" /><path d="M 83.39014120810768 87.1503855733568 l -25.18804085891545 -19.48581365168397 a52.8454759106933,52.8454759106933 0 0,0 0.5627940498331504,-0.7146912906575245 l 24.848892728488327 19.916497336294537" fill="#d1ff1c" stroke="none" /><path d="M 83.6137871275137 86.86637796730984 l -24.353070188574666 -19.519093379371185 a52.21004700352526,52.21004700352526 0 0,0 0.5680987842413308,-0.6964219367235018 l 24.013472912256944 19.935399485702767" fill="#daff1c" stroke="none" /><path d="M 84.31358615837235 86.03803664274999 l -25.11485177346379 -22.353907255291602 a54.62220916568743,54.62220916568743 0 0,0 0.6311631627454577,-0.6969461285297741 l 24.726344970102286 22.782906171090932" fill="#b7ff1f" stroke="none" /><path d="M 84.5562425177563 85.77008943001954 l -23.09758206289738 -21.28216060862824 a52.40746180963572,52.40746180963572 0 0,0 0.6169922443774845,-0.6581643077617345 l 22.727822496549436 21.676594333268028" fill="#d7ff1c" stroke="none" /><path d="M 84.80347519578584 85.50635884689758 l -24.044795122061537 -22.932653128851232 a54.22737955346651,54.22737955346651 0 0,0 0.6500461580639277,-0.6699297065553566 l 23.646484700294494 23.343147030956708" fill="#bdff1f" stroke="none" /><path d="M 86.65592168130627 83.78471172551755 l -19.824031744310865 -24.089516099899456 a52.19770857814336,52.19770857814336 0 0,0 0.6986951659065105,-0.564962899837879 l 19.406433179839855 24.427185097001473" fill="#daff1b" stroke="none" /><path d="M 87.51073957382395 83.11751280151077 l -26.06821249353137 -35.237976364649235 a64.83225616921268,64.83225616921268 0 0,0 0.9028808080017943,-0.6559813047331484 l 25.457786369175793 35.68147690419905" fill="#31ff2f" stroke="none" /><path d="M 88.70189139769569 82.29822771554957 l -25.065604043655163 -39.27255707760565 a67.58989424206815,67.58989424206815 0 0,0 0.986107099474064,-0.6175001752250224 l 24.385877791808856 39.698201594153595" fill="#33ff57" stroke="none" /><line stroke="#e1ed5e" stroke-width="0.3" x1="56.76296977257108" x2="54.21961505331056" y1="26.818313649435495" y2="22.513508569990535" /><path d="M 56.25429882871898 25.957352633546506 a86.0,86.0 0 0,1 42.26535254187918,-11.944610805530505" fill="none" id="id12" stroke="none" /><text fill="#e1ed5e" style="font-size:6.75px; font-family:Arial;" text-anchor="middle"><textPath startOffset="22.20632615414155" xlink:href="#id12">December</textPath></text><path d="M 89.3179101791058 81.91981866633112 l -21.04723161831299 -35.623906053148396 a62.376909518213864,62.376909518213864 0 0,0 0.9291286245720106,-0.5382112704551213 l 20.430906261275656 35.980921480993565" fill="#4fff2b" stroke="none" /><path d="M 89.94658935756843 81.56283822128135 l -21.58057331499632 -39.577068483283526 a66.07843713278496,66.07843713278496 0 0,0 1.003306523688406,-0.5359315982490487 l 20.896121744779613 39.94267880803432" fill="#31ff40" stroke="none" /><path d="M 90.91171255644093 81.06846463323043 l -20.06685323906872 -41.800652120047005 a67.36780258519389,67.36780258519389 0 0,0 1.0497244220353334,-0.4928596914133716 l 19.344350605733776 42.13987679410038" fill="#33ff53" stroke="none" /><path d="M 91.56875222667455 80.76684994638697 l -17.724444496450324 -40.43255634067415 a65.14688601645123,65.14688601645123 0 0,0 1.0309223025071519,-0.44138712829405935 l 17.025838436152863 40.73166299693099" fill="#30ff32" stroke="none" /><path d="M 92.23578459929587 80.48803036053334 l -18.771883885956242 -47.1749442223298 a71.7726204465335,71.7726204465335 0 0,0 1.1518372086938167,-0.4468949421084971 l 17.957063512262746 47.49108186832885" fill="#3aff92" stroke="none" /><path d="M 92.91201910852362 80.23233633223022 l -15.271225575231428 -42.5899075615228 a66.24500587544065,66.24500587544065 0 0,0 1.0766958402962483,-0.3756380372023534 l 14.535847730871893 42.84646645189736" fill="#31ff43" stroke="none" /><path d="M 93.59665428221793 80.00007090966166 l -13.408651080009005 -41.87999252524434 a64.97414806110459,64.97414806110459 0 0,0 1.0680964907786736,-0.3318627789122267 l 12.685769216519603 42.104595439039095" fill="#2fff30" stroke="none" /><path d="M 94.28887869178378 79.79150937346287 l -13.175509880558764 -46.62082164811868 a69.44682726204465,69.44682726204465 0 0,0 1.1531550120471705,-0.31520082547543665 l 12.371056979287872 46.84070901442041" fill="#36ff72" stroke="none" /><path d="M 95.33964822691252 79.52364482259891 l -6.609923137622317 -29.042256990743965 a50.78495887191539,50.78495887191539 0 0,0 0.8540513204371961,-0.18666253926992152 l 6.109029093031601 29.151733028109753" fill="#efff19" stroke="none" /><path d="M 97.47563105711357 79.15227682838746 l -5.912689066284804 -48.83046323362713 a70.18713278495886,70.18713278495886 0 0,0 1.2006454800734248,-0.1349065092141601 l 5.071276882701661 48.92500569631189" fill="#37ff7c" stroke="none" /><path d="M 98.19473922651362 79.07773832637324 l -4.3333683255455995 -50.22203294218692 a71.40863689776734,71.40863689776734 0 0,0 1.2255415858199135,-0.09512561403306409 l 3.468236550363352 50.289183818408446" fill="#39ff8d" stroke="none" /><path d="M 99.27714615592234 79.0124445844662 l -1.7037180937235843 -49.46626236745819 a70.49559341950646,70.49559341950646 0 0,0 1.2131061808543233,-0.03133095363961703 l 0.851985277674382 49.488260113240166" fill="#38ff81" stroke="none" /></svg>