<?xml version="1.0" encoding="utf-8" ?>
<svg baseProfile="full" height="200mm" version="1.1" viewBox="0,0,200,200" width="200mm" xmlns="http://www.w3.org/2000/svg" xmlns:ev="http://www.w3.org/2001/xml-events" xmlns:xlink="http://www.w3.org/1999/xlink"><defs /><rect fill="#2b2b2b" height="200" width="200" x="0" y="0" /><text alignment-baseline="middle" fill="#e1ed5e" style="dominant-baseline: central; font-size:9.0px; font-family:Arial;" text-anchor="middle" x="100.0" y="100.0">2016</text><line stroke="#e1ed5e" stroke-width="0.3" x1="100.0" x2="100.0" y1="15.0" y2="10.0" /><path d="M 100.0 14.0 a86.0,86.0 0 0,1 42.35913384403234,11.155469271406648" fill="none" id="id13" stroke="none" /><text fill="#e1ed5e" style="font-size:6.75px; font-family:Arial;" text-anchor="middle"><textPath startOffset="22.145653131862478" xlink:href="#id13">January</textPath></text><path d="M 100.72087961077811 79.0123766808444 l 1.973483890505043 -57.455830212251975 a78.4897126801414,78.4897126801414 0 0,0 1.3461891697728012,0.057811155245537045 l -2.95949882087868 57.41348648858061" fill="#41ffcc" stroke="none" /><path d="M 101.80034050326958 79.07731436759882 l 5.033381959925088 -58.4955280537521 a79.71168313242092,79.71168313242092 0 0,0 1.3623122799781604,0.12901238930466888 l -6.036793803288262 58.40050390894225" fill="#43ffe2" stroke="none" /><path d="M 102.87502721639298 79.19773525538626 l 8.175573632476512 -59.154378147150496 a80.71666817728632,80.71666817728632 0 0,0 1.370933766563494,0.20148005298779056 l -9.189832504647688 59.00531702086382" fill="#46fff4" stroke="none" /><path d="M 103.94208987418118 79.37332000966035 l 11.089874514169788 -58.02690959305376 a80.0771322396447,80.0771322396447 0 0,0 1.3479784607293674,0.2696334444844424 l -12.084349460430111 57.82798675190646" fill="#44ffe9" stroke="none" /><path d="M 104.9986988182912 79.60360301121754 l 14.996096454873593 -61.18919096634738 a84.0,84.0 0 0,0 1.3975788270984224,0.3552590726589293 l -16.04428057519741 60.92274666185318" fill="#4dd2ff" stroke="none" /><path d="M 106.04205211174951 79.88797359093562 l 16.78883273723417 -55.88456391033145 a79.3519441674975,79.3519441674975 0 0,0 1.3012183463773894,0.40312076990309975 l -17.74569171648319 55.5881265526217" fill="#43ffdc" stroke="none" /><line stroke="#e1ed5e" stroke-width="0.3" x1="143.13028292997686" x2="145.6673583964461" y1="26.7553504044142" y2="22.446841604673864" /><path d="M 143.63769802327073 25.89364864446614 a86.0,86.0 0 0,1 29.32050498858742,28.57503671076992" fill="none" id="id14" stroke="none" /><text fill="#e1ed5e" style="font-size:6.75px; font-family:Arial;" text-anchor="middle"><textPath startOffset="20.669276256404974" xlink:href="#id14">February</textPath></text><path d="M 116.7966241395341 87.39550010848427 l 23.141981650055104 -17.366174463059068 a49.93329103598296,49.93329103598296 0 0,0 0.5086014337204673,0.6900155245753951 l -23.436685103359398 16.966352629214796" fill="#ff0601" stroke="none" /><path d="M 117.42321728460499 88.27688183743584 l 26.795717473504716 -18.02935457104946 a53.29656485090184,53.29656485090184 0 0,0 0.5042249964452821,0.7634609105980316 l -27.101266908870723 17.566713782112373" fill="#ff5c08" stroke="none" /><line stroke="#e1ed5e" stroke-width="0.3" x1="172.87174338648825" x2="177.1583165268699" y1="56.24261187166439" y2="53.66864786411523" /><path d="M 173.72905801456457 55.72781907015455 a86.0,86.0 0 0,1 12.242430191666344,42.057860355516425" fill="none" id="id15" stroke="none" /><text fill="#e1ed5e" style="font-size:6.75px; font-family:Arial;" text-anchor="middle"><textPath startOffset="22.145653131862474" xlink:href="#id15">March</textPath></text><path d="M 118.00360718960297 89.18935116829356 l 31.335381932561045 -18.815996511851615 a57.55062086467869,57.55062086467869 0 0,0 0.5013105502144787,0.85133491121871 l -31.65376619290529 18.27531043233935" fill="#ffc212" stroke="none" /><path d="M 118.53625476483649 90.13048839642627 l 31.854200157826515 -16.960567389083458 a57.08809933834859,57.08809933834859 0 0,0 0.453148834155215,0.8689726394060351 l -32.14065706095667 16.411248506572925" fill="#ffb811" stroke="none" /><path d="M 119.4528033332814 92.08871423366111 l 42.11982405771406 -17.129765763805825 a66.46986313785915,66.46986313785915 0 0,0 0.4207900800174932,1.060665882069054 l -42.407672812697676 16.404198864523206" fill="#7fff26" stroke="none" /><path d="M 119.94978838288452 93.4421083053983 l 50.30210849483046 -16.53530218908043 a73.95014955134596,73.95014955134596 0 0,0 0.38607360306553107,1.2093700628135802 l -50.57854681367325 15.66936309257546" fill="#36ff73" stroke="none" /><path d="M 120.26092885502905 94.47779374421319 l 56.75006656457563 -15.467482998511727 a79.82017583612799,79.82017583612799 0 0,0 0.3489681802748873,1.3250890209935937 l -57.00722422565525 14.491013473145335" fill="#44ffe4" stroke="none" /><path d="M 120.7213421655516 96.59031103205396 l 41.83521224849652 -6.883968255324764 a63.39780658025922,63.39780658025922 0 0,0 0.16748646241807874,1.0753832354053798 l -41.947220203052865 6.164796837987943" fill="#bcff1f" stroke="none" /><path d="M 120.86939407059847 97.66154086499901 l 59.52118401337098 -6.669472818007428 a80.89368258859784,80.89368258859784 0 0,0 0.1427873941384204,1.381338512007199 l -59.62690379999106 5.646729783717298" fill="#46fff7" stroke="none" /><path d="M 120.96210409425399 98.7389718711861 l 49.7652852842196 -2.9937559845937436 a70.85525242454455,70.85525242454455 0 0,0 0.0626171839834701,1.2147566409641823 l -49.809344057659644 2.139027550252831" fill="#2fff31" stroke="none" /><line stroke="#e1ed5e" stroke-width="0.3" x1="184.99686870605535" x2="189.99668451229388" y1="99.2704041080226" y2="99.22748670261217" /><path d="M 185.99683186730306 99.26182062694052 a86.0,86.0 0 0,1 -10.086455211305974,41.156179273409016" fill="none" id="id16" stroke="none" /><text fill="#e1ed5e" style="font-size:6.75px; font-family:Arial;" text-anchor="middle"><textPath startOffset="21.40746469413373" xlink:href="#id16">April</textPath></text><path d="M 120.99922638620191 99.81974689727618 l 58.406893874139215 -0.5013529378488275 a79.40904559050122,79.40904559050122 0 0,0 0.0,1.3632120811453017 l -58.406893874139215 -0.5013529378488204" fill="#43ffdd" stroke="none" /><path d="M 120.98066250479742 100.90099992219065 l 51.304023721284295 2.2032155262196484 a72.35130970724191,72.35130970724191 0 0,0 -0.0639393004238883,1.2404053467020497 l -51.25864283140383 -3.0835926662984288" fill="#33ff51" stroke="none" /><path d="M 120.86939407059847 102.33845913500099 l 41.88443695325495 4.6932385231874125 a63.14656031904287,63.14656031904287 0 0,0 -0.12995536175558764,1.076216819939183 l -41.7976995052397 -5.411549020050004" fill="#c1ff1e" stroke="none" /><path d="M 120.77682067341334 103.0534771498775 l 52.257479714240944 7.6800499328469405 a73.81881627843742,73.81881627843742 0 0,0 -0.1950170371070036,1.2521492740100204 l -52.11794118499567 -8.57598738878841" fill="#36ff70" stroke="none" /><path d="M 120.65975698304385 103.76489593502545 l 46.845385701514346 8.536789776718177 a68.61687664279887,68.61687664279887 0 0,0 -0.22112183116361453,1.1570028578400262 l -46.691937578068575 -9.339695199591517" fill="#56ff2a" stroke="none" /><path d="M 120.43855184770803 104.8234425847677 l 43.765139798976 10.328453826260954 a65.96737061542645,65.96737061542645 0 0,0 -0.26956301151076023,1.0999090755671608 l -43.581389260948946 -11.078218726436214" fill="#88ff25" stroke="none" /><path d="M 120.16314734710363 105.8691983318838 l 50.13282498194027 14.592934708622886 a73.21354119459802,73.21354119459802 0 0,0 -0.3616179961080744,1.203708699164581 l -49.874930665828565 -15.451381011378192" fill="#35ff63" stroke="none" /><path d="M 119.83427380445688 106.89939002012753 l 48.85131481576284 16.99302314936513 a72.72246895676606,72.72246895676606 0 0,0 -0.4202660222179879,1.1755588617378894 l -48.55240862350091 -17.82911696748394" fill="#34ff59" stroke="none" /><path d="M 119.0197475246899 108.90220220490707 l 40.51501009020775 18.96307044500372 a65.73325478111121,65.73325478111121 0 0,0 -0.48711704217841384,1.017887269208887 l -40.183513790069426 -19.655770216277713" fill="#8dff24" stroke="none" /><path d="M 118.70294669586154 109.54985784667822 l 39.219738489572435 20.025877924476333 a65.03661742046587,65.03661742046587 0 0,0 -0.5162418735788054,0.9899618616298597 l -38.870188547018685 -20.696186029210697" fill="#9bff22" stroke="none" /><line stroke="#e1ed5e" stroke-width="0.3" x1="174.33088141563837" x2="178.70328620479359" y1="141.23008692659167" y2="143.65538615756765" /><path d="M 175.20536237346943 141.71514677278685 a86.0,86.0 0 0,1 -30.301960400862466,31.63118572779886" fill="none" id="id17" stroke="none" /><text fill="#e1ed5e" style="font-size:6.75px; font-family:Arial;" text-anchor="middle"><textPath startOffset="22.145653131862474" xlink:href="#id17">May</textPath></text><path d="M 118.00360718960297 110.81064883170644 l 35.34470513249347 21.223479896198825 a62.22722740868304,62.22722740868304 0 0,0 -0.5577694134015639,0.9110744187926998 l -34.97516775463651 -21.82709143111608" fill="#d4ff1c" stroke="none" /><path d="M 117.423217284605 111.72311816256415 l 38.639652000336724 25.998482298705675 a67.57192060183087,67.57192060183087 0 0,0 -0.6558024248454013,0.9568353367423592 l -38.187659838676005 -26.657952370518075" fill="#6aff28" stroke="none" /><path d="M 117.01052211995028 112.31430620078461 l 36.38768535783074 26.341878060791945 a65.92168947702348,65.92168947702348 0 0,0 -0.6714531545122467,0.9109551604080143 l -35.93013018373467 -26.96263953046884" fill="#89ff24" stroke="none" /><path d="M 116.57777611688842 112.89097897827484 l 36.21477023196271 28.160824375453686 a66.87528324118554,66.87528324118554 0 0,0 -0.712487896257476,0.9002051817780929 l -35.726015905063676 -28.778349501146458" fill="#77ff27" stroke="none" /><path d="M 116.1254893667686 113.45245675266167 l 30.131703868875327 25.136939038599934 a60.24009788815372,60.24009788815372 0 0,0 -0.669254396769993,0.788379996578814 l -29.69575490859822 -25.650485817628304" fill="#ffff18" stroke="none" /><path d="M 115.6541949942343 113.99807769240083 l 33.65233362396893 30.092124237139746 a66.14438502673796,66.14438502673796 0 0,0 -0.7641323754231698,0.8399153368798393 l -33.13080354770388 -30.665377149577257" fill="#85ff25" stroke="none" /><path d="M 115.16444852881244 114.52719865689866 l 31.811942463460888 30.4751212647439 a65.05374784736699,65.05374784736699 0 0,0 -0.779446742524031,0.799781023339878 l -31.28410891978605 -31.01672498015152" fill="#9aff22" stroke="none" /><path d="M 114.65682725009322 115.03919595460226 l 30.22895894823449 31.017574906822663 a64.31142934831868,64.31142934831868 0 0,0 -0.7972397396522102,0.7637376362943041 l -29.692046722716967 -31.531924673422548" fill="#a9ff21" stroke="none" /><path d="M 113.86319453409587 115.77377054828091 l 29.802161511799678 33.90938909309586 a66.14438502673796,66.14438502673796 0 0,0 -0.8593116920838398,0.7422529731458892 l -29.215670339952982 -34.41598619870647" fill="#85ff25" stroke="none" /><path d="M 113.03279911837588 116.46651593811092 l 26.932640251878002 34.02851113830591 a64.39708148282426,64.39708148282426 0 0,0 -0.8727032849774533,0.6786193528971001 l -26.344527022265318 -34.4858315428238" fill="#a8ff21" stroke="none" /><path d="M 112.16784306229584 117.11559508785304 l 30.59110222622696 43.030216309876515 a73.79597570923593,73.79597570923593 0 0,0 -1.0387834605367727,0.7251515314438153 l -29.847923674516426 -43.54901265712545" fill="#36ff6f" stroke="none" /><path d="M 111.5731344415666 117.5232005979908 l 26.248032550649963 39.74286672378533 a68.62829692739962,68.62829692739962 0 0,0 -0.9886212311557382,0.6408123378522952 l -25.561925687237217 -40.187592903341525" fill="#56ff2a" stroke="none" /><line stroke="#e1ed5e" stroke-width="0.3" x1="143.1302829299769" x2="145.6673583964461" y1="173.24464959558577" y2="177.55315839532614" /><path d="M 143.63769802327073 174.10635135553383 a86.0,86.0 0 0,1 -40.685524379131806,11.842963189579606" fill="none" id="id18" stroke="none" /><text fill="#e1ed5e" style="font-size:6.75px; font-family:Arial;" text-anchor="middle"><textPath startOffset="21.407464694133747" xlink:href="#id18">June</textPath></text><path d="M 110.65571695917076 118.09573695890943 l 26.517118175563525 45.03186385786433 a73.25922233300099,73.25922233300099 0 0,0 -1.089146714812021,0.6288191489837242 l -25.740178992891103 -45.48042990412423" fill="#35ff64" stroke="none" /><path d="M 109.71004243097381 118.62028667847754 l 21.956506713308677 42.104496696696984 a68.48554336989034,68.48554336989034 0 0,0 -1.0470877943916972,0.5346504886123157 l -21.230491697203398 -42.47520513698214" fill="#59ff2a" stroke="none" /><path d="M 109.06512990194946 118.94263497670748 l 20.236939135775874 42.2874195120371 a67.88026828605093,67.88026828605093 0 0,0 -1.0554130333726524,0.49398659054654775 l -19.508037388531715 -42.62858233415418" fill="#64ff29" stroke="none" /><path d="M 107.407793817531 119.65005319985036 l 12.72813807658253 33.76289844190731 a57.08238919604822,57.08238919604822 0 0,0 -0.9198714168306622,0.33778952580698185 l -12.14667750809774 -33.97641881672301" fill="#ffb811" stroke="none" /><path d="M 106.72888874123015 119.89276391827305 l 13.621837218832162 40.27054129562482 a63.51200942626665,63.51200942626665 0 0,0 -1.035781862609481,0.34048207148168425 l -12.928532618574948 -40.498444288508516" fill="#baff1f" stroke="none" /><path d="M 105.69591212413111 120.21278271476187 l 12.537408314558506 44.49083913967117 a67.2236019215082,67.2236019215082 0 0,0 -1.113410430688701,0.3034649640004705 l -11.77181648293511 -44.69950459781578" fill="#70ff27" stroke="none" /><path d="M 104.9986988182912 120.39639698878246 l 9.93306198606148 40.530282568844974 a62.729719931115746,62.729719931115746 0 0,0 -1.0480877013681522,0.24734584372803026 l -9.23584213095345 -40.69482455621923" fill="#caff1d" stroke="none" /><path d="M 104.29559338865022 120.5559693870025 l 8.556924816074908 40.9479828865713 a62.83250249252243,62.83250249252243 0 0,0 -1.057690973999594,0.2115678171632629 l -7.852737356544355 -41.088840100397434" fill="#c8ff1d" stroke="none" /><line stroke="#e1ed5e" stroke-width="0.3" x1="101.45913802915013" x2="101.54496967792366" y1="184.9874750549273" y2="189.98673829345242" /><path d="M 101.47630435890484 185.9873277026323 a86.0,86.0 0 0,1 -42.54439059252881,-10.42667462771756" fill="none" id="id19" stroke="none" /><text fill="#e1ed5e" style="font-size:6.75px; font-family:Arial;" text-anchor="middle"><textPath startOffset="22.145653131862474" xlink:href="#id19">July</textPath></text><path d="M 91.26138138417905 119.09545874513695 l -12.011343361635527 26.24695294752125 a49.8647693283785,49.8647693283785 0 0,0 -0.7753052364719213,-0.3628819981252012 l 12.460137311978938 -26.036894717825522" fill="#ff0400" stroke="none" /><path d="M 90.93487009805054 118.94263497670748 l -12.430558351000945 25.97508606567638 a49.79624762077404,49.79624762077404 0 0,0 -0.7679049722474159,-0.37562080213509474 l 12.874623572510432 -25.757871513444066" fill="#ff0300" stroke="none" /><path d="M 90.6110303473126 118.78422872680471 l -12.912918110203801 25.83448624132463 a49.88189975527962,49.88189975527962 0 0,0 -0.7626533400301078,-0.3894162295395614 l 13.354498671947491 -25.60901206011223" fill="#ff0500" stroke="none" /><path d="M 90.28995756902619 118.62028667847754 l -13.362419489665132 25.624201272484775 a49.89903018218073,49.89903018218073 0 0,0 -0.756115689779703,-0.4025890164220994 l 13.800323995231398 -25.3910417883401" fill="#ff0500" stroke="none" /><path d="M 89.97174638481275 118.45085714620012 l -13.898488718374715 25.57165382240061 a50.104595304994106,50.104595304994106 0 0,0 -0.7521792795231383,-0.41722116687553723 l 14.335412186053956 -25.329299740091923" fill="#ff0b01" stroke="none" /><line stroke="#e1ed5e" stroke-width="0.3" x1="58.13341422392154" x2="55.670673884152215" y1="173.97424548756322" y2="178.32567169271397" /><path d="M 57.64086615596767 174.84453072859336 a86.0,86.0 0 0,1 -31.369924170532244,-30.572349798747886" fill="none" id="id20" stroke="none" /><text fill="#e1ed5e" style="font-size:6.75px; font-family:Arial;" text-anchor="middle"><textPath startOffset="22.145653131862474" xlink:href="#id20">August</textPath></text><path d="M 89.34428304082925 118.09573695890944 l -14.60006102345547 24.794095496042228 a49.773407051572555,49.773407051572555 0 0,0 -0.7325395101987925,-0.43986892830469176 l 15.02353329021169 -24.539812567201615" fill="#ff0200" stroke="none" /><path d="M 88.4268655584334 117.5232005979908 l -15.853924947868899 24.004863032541728 a49.76769690927218,49.76769690927218 0 0,0 -0.7088429942107851,-0.4769412011627348 l 16.26366423017669 -23.72917215732187" fill="#ff0200" stroke="none" /><path d="M 88.1277618465304 117.32195027204791 l -16.321771803845444 23.81395284387046 a49.87047947067887,49.87047947067887 0 0,0 -0.7019980255738396,-0.49004914176468906 l 16.72816492059305 -23.530258886300643" fill="#ff0500" stroke="none" /><path d="M 87.83215693770417 117.11559508785305 l -16.665301959063925 23.441834258365578 a49.761986766971816,49.761986766971816 0 0,0 -0.6919735760702811,-0.5009355055943605 l 17.065256545508156 -23.152297981398153" fill="#ff0200" stroke="none" /><path d="M 87.54013794807813 116.9041958592261 l -17.027988762700815 23.101737076535063 a49.69917520166773,49.69917520166773 0 0,0 -0.682409934428616,-0.5120931368720482 l 17.4220516860402 -22.806024912399" fill="#ff0000" stroke="none" /><path d="M 87.2517909369889 116.68781488649013 l -17.49137938873037 22.896777100669585 a49.81337804767516,49.81337804767516 0 0,0 -0.6750662864997226,-0.5249356274841133 l 17.88185561986532 -22.59314042156468" fill="#ff0300" stroke="none" /><path d="M 85.86807049272751 115.53346607816431 l -19.328452484794873 21.245355127299852 a49.722015770869206,49.722015770869206 0 0,0 -0.6264269087252091,-0.5798113947053247 l 19.69030916483405 -20.910425986462148" fill="#ff0100" stroke="none" /><path d="M 85.34317274990678 115.03919595460226 l -20.17787991495203 20.70428236694043 a49.91045046678147,49.91045046678147 0 0,0 -0.608451361402344,-0.6032509536648265 l 20.53032319648434 -20.35485140304694" fill="#ff0600" stroke="none" /><path d="M 82.78059297857968 112.02048342749411 l -23.972635896765713 16.73476166467049 a50.235928577902655,50.235928577902655 0 0,0 -0.4875522773709044,-0.7113533433604771 l 24.25637791095194 -16.320773586239962" fill="#ff0e01" stroke="none" /><path d="M 82.37810715431573 111.42229804090323 l -26.291487186876527 17.041824349796784 a52.331550802139034,52.331550802139034 0 0,0 -0.4821537738092796,-0.7580258160413785 l 26.580158652311695 -16.58798485907673" fill="#ff4406" stroke="none" /><path d="M 82.18462484594161 111.1181117155819 l -24.75389296761669 15.448260001801003 a50.17882715489894,50.17882715489894 0 0,0 -0.4497744179336743,-0.7346727098348865 l 25.015435350005767 -15.021050175841559" fill="#ff0d01" stroke="none" /><path d="M 81.99639281039703 110.81064883170646 l -25.500078813733865 15.312064650872541 a50.74413124263573,50.74413124263573 0 0,0 -0.44202074575730366,-0.7506478612611062 l 25.759173269620938 -14.872065621317878" fill="#ff1b02" stroke="none" /><line stroke="#e1ed5e" stroke-width="0.3" x1="26.387840678322732" x2="22.057713659400548" y1="142.50000000000003" y2="145.00000000000006" /><path d="M 25.521815274538298 143.00000000000003 a86.0,86.0 0 0,1 -11.493303480769221,-40.785679425670985" fill="none" id="id21" stroke="none" /><text fill="#e1ed5e" style="font-size:6.75px; font-family:Arial;" text-anchor="middle"><textPath startOffset="21.40746469413373" xlink:href="#id21">September</textPath></text><path d="M 81.63589988554817 110.18625677009913 l -25.63117716509052 14.217181909068842 a50.31016042780749,50.31016042780749 0 0,0 -0.4124346704402798,-0.7588333401250564 l 25.87145718514613 -13.775093735469198" fill="#ff1001" stroke="none" /><path d="M 81.1358732173502 109.22738970284198 l -26.093124157529118 12.763454568573493 a50.04749388199039,50.04749388199039 0 0,0 -0.37087753024581477,-0.7749913958760236 l 26.308380945734847 -12.313650670632367" fill="#ff0901" stroke="none" /><path d="M 80.83023694016515 108.57439118712176 l -26.375147579832586 11.79726803412566 a49.89332003988036,49.89332003988036 0 0,0 -0.3429954727353592,-0.7848407654278646 l 26.573776934584913 -11.342765198921944" fill="#ff0500" stroke="none" /><path d="M 80.41425534168474 107.57618678355246 l -27.405485909097354 10.60103068652977 a50.38439227771232,50.38439227771232 0 0,0 -0.3051118434467566,-0.8093454142101687 l 27.58342843635855 -10.129016992125456" fill="#ff1202" stroke="none" /><path d="M 80.16572619554312 106.89939002012753 l -27.52133578105959 9.573349208568144 a50.13885615879634,50.13885615879634 0 0,0 -0.2757985158108186,-0.8153493058099913 l 27.681619718442775 -9.099498228283991" fill="#ff0c01" stroke="none" /><path d="M 79.64726062577567 105.17358676015961 l -28.27394510910326 7.187126282331756 a50.17311701259857,50.17311701259857 0 0,0 -0.20502282253516743,-0.836563080153223 l 28.39315545815472 -6.700707377570434" fill="#ff0c01" stroke="none" /><path d="M 79.48165901384964 104.47187691870673 l -34.26170542806564 7.467179232605284 a56.06598386658207,56.06598386658207 0 0,0 -0.1968778092955181,-0.9421315880483087 l 34.38484094818553 -6.877931193271566" fill="#ffa00e" stroke="none" /><path d="M 79.34024301695615 103.76489593502545 l -28.262277906741655 5.150328500619883 a49.72772591316958,49.72772591316958 0 0,0 -0.1458329083837475,-0.8411254619701437 l 28.346525632617638 -4.664410005729147" fill="#ff0100" stroke="none" /><path d="M 79.22317932658666 103.0534771498775 l -29.122952208314814 4.280071070683903 a50.435783558415665,50.435783558415665 0 0,0 -0.11853726097344133,-0.8576765711333406 l 29.19213398584347 -3.7795061913504773" fill="#ff1302" stroke="none" /><path d="M 79.13060592940153 102.33845913500099 l -28.929258852146557 3.2415837950426005 a50.11030544729448,50.11030544729448 0 0,0 -0.08845091118781633,-0.8556823295438477 l 28.98064215581604 -2.7444969432158217" fill="#ff0b01" stroke="none" /><path d="M 79.06263194458094 101.62068470465958 l -29.01779161927063 2.246160592671944 a50.104595304994106,50.104595304994106 0 0,0 -0.05901853406061818,-0.858116532453645 l 29.05207411449631 -1.7477006360639558" fill="#ff0b01" stroke="none" /><path d="M 79.00696218219943 100.54070618675478 l -29.334692652681174 0.7555576254145085 a50.34442128160971,50.34442128160971 0 0,0 -0.014836185463181686,-0.8641334245099759 l 29.343340269743024 -0.2518772849354803" fill="#ff1101" stroke="none" /><line stroke="#e1ed5e" stroke-width="0.3" x1="15.003131293944662" x2="10.003315487706104" y1="100.72959589197737" y2="100.7725132973878" /><path d="M 14.003168132696942 100.73817937305945 a86.0,86.0 0 0,1 10.791469493833604,-42.453326145846276" fill="none" id="id22" stroke="none" /><text fill="#e1ed5e" style="font-size:6.75px; font-family:Arial;" text-anchor="middle"><textPath startOffset="22.145653131862435" xlink:href="#id22">October</textPath></text><path d="M 79.03789590574601 98.7389718711861 l -29.131871846025245 -1.752501069437478 a50.18453729719931,50.18453729719931 0 0,0 0.05911269826175375,-0.8594856592719184 l 29.097495186598426 2.252330152863721" fill="#ff0d01" stroke="none" /><path d="M 79.13060592940154 97.66154086499901 l -28.622828883920597 -3.207247677951148 a49.80195776307441,49.80195776307441 0 0,0 0.10249222450972341,-0.8487826469045853 l 28.563554573151208 3.6981240017791697" fill="#ff0300" stroke="none" /><path d="M 79.22317932658666 96.9465228501225 l -35.1057274534371 -5.159333003536314 a56.4828242545092,56.4828242545092 0 0,0 0.14921822902174486,-0.9580880722545276 l 35.011987732277085 5.7612092577222915" fill="#ffa90f" stroke="none" /><path d="M 79.34024301695615 96.23510406497455 l -34.48660784525681 -6.284608758756788 a56.05456358198133,56.05456358198133 0 0,0 0.1806390548618155,-0.9451798658360271 l 34.373642498112844 6.875691189626129" fill="#ff9f0e" stroke="none" /><path d="M 79.407916724674 95.88100663000787 l -28.421666284479684 -5.685129252083764 a49.9846823166863,49.9846823166863 0 0,0 0.17552309036901143,-0.8399415274897011 l 28.319885483286306 6.172187230858874" fill="#ff0801" stroke="none" /><path d="M 79.56144815229197 95.17655741523228 l -28.359810589736448 -6.692838079417106 a50.13885615879634,50.13885615879634 0 0,0 0.20488282212523093,-0.8359918307054273 l 28.24074024109492 7.17868573473065" fill="#ff0c01" stroke="none" /><path d="M 79.64726062577567 94.8264132398404 l -30.161088440910707 -7.666830737660602 a52.12027553702529,52.12027553702529 0 0,0 0.22786616941214527,-0.8652449604604405 l 30.02503279069384 8.183456202493828" fill="#ff3f05" stroke="none" /><path d="M 80.41425534168474 92.42381321644754 l -42.929580628300386 -16.606084019455185 a67.02945708329557,67.02945708329557 0 0,0 0.4243326114740067,-1.0695953754922929 l 42.63818934186025 17.34058041216106" fill="#74ff27" stroke="none" /><path d="M 80.68587082218212 91.75594674310238 l -26.799601521183167 -11.439156286580758 a50.13885615879634,50.13885615879634 0 0,0 0.3446834297025998,-0.7887031413001102 l 26.59928420946359 11.897521497656735" fill="#ff0c01" stroke="none" /><path d="M 80.9802524753101 91.09779779509293 l -26.629025651580253 -12.463728583268335 a50.401522704613434,50.401522704613434 0 0,0 0.37350106491632173,-0.7804735743058544 l 26.41114532870403 12.919014659639277" fill="#ff1202" stroke="none" /><path d="M 81.29705330413844 90.45014215332179 l -30.97606679719733 -15.816600419863228 a55.78047675156349,55.78047675156349 0 0,0 0.4427693039627009,-0.8490685216695293 l 30.699989424259694 16.346015184637245" fill="#ff990e" stroke="none" /><path d="M 81.63589988554816 89.8137432299009 l -30.649554926811945 -17.000791458769594 a56.048853439680954,56.048853439680954 0 0,0 0.4739241095092674,-0.8373784909717767 l 30.353197452281307 17.524426719840477" fill="#ff9f0e" stroke="none" /><line stroke="#e1ed5e" stroke-width="0.3" x1="26.387840678322718" x2="22.05771365940052" y1="57.5" y2="55.0" /><path d="M 25.521815274538284 57.0 a86.0,86.0 0 0,1 29.574782752854787,-30.346332500585742" fill="none" id="id23" stroke="none" /><text fill="#e1ed5e" style="font-size:6.75px; font-family:Arial;" text-anchor="middle"><textPath startOffset="21.40746469413373" xlink:href="#id23">November</textPath></text><path d="M 81.99639281039701 89.18935116829357 l -25.044807681140824 -15.038687416752493 a50.21308800870117,50.21308800870117 0 0,0 0.45008151270753893,-0.7351743260689289 l 24.78295820397789 15.466398858945961" fill="#ff0e01" stroke="none" /><path d="M 82.37810715431573 88.57770195909679 l -24.964215098164168 -16.181502617539856 a50.749841384936104,50.749841384936104 0 0,0 0.4801311053255384,-0.7269796885566587 l 24.6827595539179 16.607662184435576" fill="#ff1c02" stroke="none" /><path d="M 83.42222388311158 87.10902102172516 l -23.19656554813046 -18.037789673398635 a50.38439227771232,50.38439227771232 0 0,0 0.5367942821070627,-0.6782220397565931 l 22.883504835381835 18.43333165706991" fill="#ff1202" stroke="none" /><path d="M 83.8745106332314 86.54754324733833 l -22.28746373188203 -18.592994926251958 a50.02465331278891,50.02465331278891 0 0,0 0.555763027454547,-0.6546874488952065 l 21.96500614092037 18.97284915759672" fill="#ff0901" stroke="none" /><path d="M 84.58840730492382 85.73525988315684 l -25.633838262244442 -23.726298004548973 a55.92894045137315,55.92894045137315 0 0,0 0.6582148265651585,-0.6990013360817986 l 25.222767601943012 24.16284080057528" fill="#ff9c0e" stroke="none" /><path d="M 85.08716467003674 85.21462403516908 l -20.449223756640446 -20.27444511664343 a49.79624762077404,49.79624762077404 0 0,0 0.6070591303869859,-0.6018706219883482 l 20.09817270612349 20.62249574886045" fill="#ff0300" stroke="none" /><path d="M 85.60350026404147 84.71141617570332 l -24.266446622824322 -25.770125385701558 a56.397172120003624,56.397172120003624 0 0,0 0.7105244154778904,-0.6576507914527334 l 23.820492436032477 26.182893923286656" fill="#ffa70f" stroke="none" /><path d="M 86.40962598614128 83.9905735841838 l -18.850130837857343 -22.205406729016165 a50.1274358741956,50.1274358741956 0 0,0 0.6607886101252574,-0.5512533603278057 l 18.466167893570177 22.52572227325585" fill="#ff0b01" stroke="none" /><path d="M 88.12776184653039 82.6780497279521 l -16.583255885354856 -24.1954659333391 a50.33300099700897,50.33300099700897 0 0,0 0.7168946394963486,-0.48235870744437565 l 16.165464957761518 24.476574314840587" fill="#ff1101" stroke="none" /><line stroke="#e1ed5e" stroke-width="0.3" x1="56.869717070023135" x2="54.33264160355391" y1="26.7553504044142" y2="22.446841604673864" /><path d="M 56.362301976729285 25.89364864446614 a86.0,86.0 0 0,1 42.16139366436587,-11.88097634709845" fill="none" id="id24" stroke="none" /><text fill="#e1ed5e" style="font-size:6.75px; font-family:Arial;" text-anchor="middle"><textPath startOffset="22.145653131862474" xlink:href="#id24">December</textPath></text></svg>