<?xml version="1.0" encoding="utf-8" ?>
<svg baseProfile="full" height="200mm" version="1.1" viewBox="0,0,200,200" width="200mm" xmlns="http://www.w3.org/2000/svg" xmlns:ev="http://www.w3.org/2001/xml-events" xmlns:xlink="http://www.w3.org/1999/xlink"><defs /><rect fill="#2b2b2b" height="200" width="200" x="0" y="0" /><text alignment-baseline="middle" fill="#e1ed5e" style="dominant-baseline: central; font-size:9.0px; font-family:Arial;" text-anchor="middle" x="100.0" y="100.0">2020</text><line stroke="#e1ed5e" stroke-width="0.3" x1="100.0" x2="100.0" y1="15.0" y2="10.0" /><path d="M 100.0 14.0 a86.0,86.0 0 0,1 42.35913384403234,11.155469271406648" fill="none" id="id61" stroke="none" /><text fill="#e1ed5e" style="font-size:6.75px; font-family:Arial;" text-anchor="middle"><textPath startOffset="22.145653131862478" xlink:href="#id61">January</textPath></text><line stroke="#e1ed5e" stroke-width="0.3" x1="143.13028292997686" x2="145.6673583964461" y1="26.7553504044142" y2="22.446841604673864" /><path d="M 143.63769802327073 25.89364864446614 a86.0,86.0 0 0,1 29.32050498858742,28.57503671076993" fill="none" id="id62" stroke="none" /><text fill="#e1ed5e" style="font-size:6.75px; font-family:Arial;" text-anchor="middle"><textPath startOffset="20.669276256404974" xlink:href="#id62">February</textPath></text><line stroke="#e1ed5e" stroke-width="0.3" x1="172.87174338648825" x2="177.1583165268699" y1="56.24261187166439" y2="53.66864786411523" /><path d="M 173.72905801456457 55.72781907015455 a86.0,86.0 0 0,1 12.242430191666344,42.057860355516425" fill="none" id="id63" stroke="none" /><text fill="#e1ed5e" style="font-size:6.75px; font-family:Arial;" text-anchor="middle"><textPath startOffset="22.145653131862474" xlink:href="#id63">March</textPath></text><line stroke="#e1ed5e" stroke-width="0.3" x1="184.99686870605535" x2="189.99668451229388" y1="99.2704041080226" y2="99.22748670261217" /><path d="M 185.99683186730306 99.26182062694052 a86.0,86.0 0 0,1 -10.086455211305974,41.156179273409016" fill="none" id="id64" stroke="none" /><text fill="#e1ed5e" style="font-size:6.75px; font-family:Arial;" text-anchor="middle"><textPath startOffset="21.40746469413373" xlink:href="#id64">April</textPath></text><line stroke="#e1ed5e" stroke-width="0.3" x1="174.33088141563837" x2="178.70328620479359" y1="141.23008692659167" y2="143.65538615756765" /><path d="M 175.20536237346943 141.71514677278685 a86.0,86.0 0 0,1 -30.301960400862466,31.631185727798858" fill="none" id="id65" stroke="none" /><text fill="#e1ed5e" style="font-size:6.75px; font-family:Arial;" text-anchor="middle"><textPath startOffset="22.145653131862474" xlink:href="#id65">May</textPath></text><path d="M 117.62189284568427 111.42229804090321 l 42.97075383718997 27.853123479347218 a72.20822368421052,72.20822368421052 0 0,0 -0.6831433026189618,1.034366030171643 l -42.48628609565028 -28.58666938785792" fill="#48ff2c" stroke="none" /><path d="M 114.91283532996324 114.78537596483092 l 35.73193833666193 35.42653898941724 a71.31710526315788,71.31710526315788 0 0,0 -0.8694169133481061,0.8619860442102946 l -35.118529503183865 -36.0347050438562" fill="#5dff2a" stroke="none" /><path d="M 113.31354834802062 116.24036423190432 l 31.663471893483248 38.62428730153561 a70.94407894736841,70.94407894736841 0 0,0 -0.9484521672538013,0.7640059285334687 l -30.995768955874194 -39.16214152386248" fill="#65ff29" stroke="none" /><path d="M 112.45986205192187 116.90419585922612 l 29.715131538300515 40.31428288795701 a71.08223684210526,71.08223684210526 0 0,0 -0.9884458563328521,0.715558573214157 l -29.018704671593696 -40.81844223254424" fill="#62ff29" stroke="none" /><path d="M 110.96478420261333 117.91015095944535 l 26.384011987538315 43.096300746165376 a71.53125,71.53125 0 0,0 -1.0527602979762316,0.6321523106745109 l -25.640318933004647 -43.54286705737581" fill="#58ff2a" stroke="none" /><line stroke="#e1ed5e" stroke-width="0.3" x1="143.1302829299769" x2="145.66735839644613" y1="173.24464959558577" y2="177.55315839532614" /><path d="M 143.63769802327073 174.10635135553383 a86.0,86.0 0 0,1 -40.68552437913181,11.842963189579606" fill="none" id="id66" stroke="none" /><text fill="#e1ed5e" style="font-size:6.75px; font-family:Arial;" text-anchor="middle"><textPath startOffset="21.407464694133747" xlink:href="#id66">June</textPath></text><path d="M 110.65571695917076 118.09573695890943 l 25.43701906996784 43.197619444343985 a71.13059210526316,71.13059210526316 0 0,0 -1.0575003152768014,0.6105480916931778 l -24.691726286830637 -43.627914433313336" fill="#61ff29" stroke="none" /><path d="M 110.02825361518725 118.45085714620011 l 23.87648015352808 43.93003421848567 a70.99934210526317,70.99934210526317 0 0,0 -1.0758468918900663,0.5728278726142899 l -23.11884444585146 -44.33343255882253" fill="#64ff29" stroke="none" /><path d="M 109.06512990194946 118.94263497670748 l 15.255659400780738 31.8784607042222 a56.34078947368421,56.34078947368421 0 0,0 -0.8759954110736826,0.4100100839837922 l -14.706175275835548 -32.13564701977653" fill="#ff0000" stroke="none" /><path d="M 108.4095320186766 119.2426549942271 l 19.792829471589155 45.28986726437332 a70.42598684210526,70.42598684210526 0 0,0 -1.1119422396833731,0.4746220219481504 l -19.01245215673535 -45.62296393598088" fill="#71ff27" stroke="none" /><path d="M 107.06938296918513 119.77432235084164 l 18.780373966822054 52.53204845572273 a76.78815789473684,76.78815789473684 0 0,0 -1.2450440256406374,0.43309094196300935 l -17.875824169136397 -52.84669783025433" fill="#39ff89" stroke="none" /><path d="M 106.38641147887787 120.00534299687104 l 15.253859785569826 47.78249851982913 a71.15822368421053,71.15822368421053 0 0,0 -1.1668571844701967,0.3614953384880778 l -14.431361968228005 -48.037310446123854" fill="#60ff29" stroke="none" /><path d="M 105.3480935250658 120.30758222061773 l 12.779128738841449 48.52443330610762 a71.17894736842105,71.17894736842105 0 0,0 -1.184264164014969,0.3010353194636111 l -11.94425928160108 -48.7366538574065" fill="#60ff29" stroke="none" /><path d="M 101.44090949804482 120.95050786540614 l 3.4738242470955454 50.508642153145246 a71.62796052631579,71.62796052631579 0 0,0 -1.2274155305060752,0.07383827037360899 l -2.606264364457005 -50.560832401343546" fill="#56ff2b" stroke="none" /><line stroke="#e1ed5e" stroke-width="0.3" x1="101.45913802915013" x2="101.54496967792366" y1="184.9874750549273" y2="189.98673829345242" /><path d="M 101.47630435890484 185.9873277026323 a86.0,86.0 0 0,1 -42.54439059252881,-10.42667462771756" fill="none" id="id67" stroke="none" /><text fill="#e1ed5e" style="font-size:6.75px; font-family:Arial;" text-anchor="middle"><textPath startOffset="22.145653131862474" xlink:href="#id67">July</textPath></text><path d="M 99.63950707515114 120.99690560180557 l -1.0258632542326966 59.75139156619076 a80.76019736842105,80.76019736842105 0 0,0 -1.3859476135522804,-0.03569709423045903 l 2.051424181855721 -59.72497675461026" fill="#44ffe7" stroke="none" /><path d="M 98.19965949673042 120.92268563240118 l -4.321409425117815 50.221327980141915 a71.40690789473683,71.40690789473683 0 0,0 -1.2203795438450975,-0.11557121162595922 l 5.182888532347927 -50.139745013010774" fill="#5bff2a" stroke="none" /><path d="M 97.48249496171623 120.84855314841334 l -7.552515114851309 62.54565944524002 a84.0,84.0 0 0,0 -1.4300887124368238,-0.1851536151984119 l 8.625081649178927 -62.40679423384121" fill="#4dd2ff" stroke="none" /><path d="M 96.76829788921471 120.74984581791261 l -8.544875515293477 54.86423048828343 a76.52565789473684,76.52565789473684 0 0,0 -1.2962808622296587,-0.2133025225871664 l 9.485433880576199 -54.709461967200596" fill="#38ff83" stroke="none" /><path d="M 96.05791012581884 120.62667999033965 l -10.130133584573455 53.00513950149125 a74.96447368421053,74.96447368421053 0 0,0 -1.26191451941383,-0.2524182458600748 l 11.038544589518244 -52.82343185896831" fill="#34ff5a" stroke="none" /><path d="M 94.6519064749342 120.30758222061772 l -13.421251810107584 50.96267919772784 a73.70032894736842,73.70032894736842 0 0,0 -1.2206831031012295,-0.3327026078868827 l 14.294116314143508 -50.72477609569681" fill="#30ff39" stroke="none" /><path d="M 92.25597844496254 119.51999308798841 l -19.146074344625514 48.260614489908185 a72.91973684210527,72.91973684210527 0 0,0 -1.159581943313719,-0.4715918814305925 l 19.971710749129674 -47.924835351898295" fill="#39ff2e" stroke="none" /><path d="M 91.59046798132341 119.24265499422711 l -20.152447617124658 46.112743958205414 a71.32401315789474,71.32401315789474 0 0,0 -1.1177036564195946,-0.499934628899917 l 20.941064676399886 -45.76000557839564" fill="#5cff2a" stroke="none" /><line stroke="#e1ed5e" stroke-width="0.3" x1="58.13341422392154" x2="55.67067388415222" y1="173.97424548756322" y2="178.32567169271397" /><path d="M 57.64086615596768 174.84453072859336 a86.0,86.0 0 0,1 -31.369924170532247,-30.572349798747897" fill="none" id="id68" stroke="none" /><text fill="#e1ed5e" style="font-size:6.75px; font-family:Arial;" text-anchor="middle"><textPath startOffset="22.145653131862474" xlink:href="#id68">August</textPath></text><path d="M 86.96720088162412 116.46651593811092 l -31.19297578463911 39.4113059097681 a71.26184210526316,71.26184210526316 0 0,0 -0.9527003463865522,-0.7674279609299922 l 31.864926901380922 -38.8700296550447" fill="#5eff2a" stroke="none" /><path d="M 83.64595745247003 113.17365903436017 l -38.308268743737145 30.858429599894347 a70.19111842105264,70.19111842105264 0 0,0 -0.7478147362668066,-0.9448394900930693 l 38.83234991064551 -30.196270165886595" fill="#77ff27" stroke="none" /><line stroke="#e1ed5e" stroke-width="0.3" x1="26.387840678322732" x2="22.057713659400548" y1="142.50000000000003" y2="145.00000000000006" /><path d="M 25.521815274538298 143.00000000000003 a86.0,86.0 0 0,1 -11.493303480769221,-40.785679425670985" fill="none" id="id69" stroke="none" /><text fill="#e1ed5e" style="font-size:6.75px; font-family:Arial;" text-anchor="middle"><textPath startOffset="21.40746469413373" xlink:href="#id69">September</textPath></text><path d="M 81.29705330413844 109.54985784667822 l -46.57895047183151 23.783543999079214 a73.29967105263158,73.29967105263158 0 0,0 -0.5625927305625852,-1.1255623270547432 l 46.98036311560583 -22.98044981586072" fill="#30ff2f" stroke="none" /><path d="M 80.16572619554312 106.89939002012753 l -50.06849249190861 17.41642072844035 a74.01118421052632,74.01118421052632 0 0,0 -0.40711289252422916,-1.2035569275275766 l 50.3600908060052 -16.554362126438612" fill="#31ff41" stroke="none" /><line stroke="#e1ed5e" stroke-width="0.3" x1="15.003131293944662" x2="10.003315487706104" y1="100.72959589197737" y2="100.7725132973878" /><path d="M 14.003168132696942 100.73817937305945 a86.0,86.0 0 0,1 10.791469493833604,-42.45332614584628" fill="none" id="id70" stroke="none" /><text fill="#e1ed5e" style="font-size:6.75px; font-family:Arial;" text-anchor="middle"><textPath startOffset="22.145653131862435" xlink:href="#id70">October</textPath></text><path d="M 79.17382384314186 97.30363454192245 l -50.99672872093813 -6.602547523003067 a72.42236842105262,72.42236842105262 0 0,0 0.17021147645894757,-1.2315654529047688 l 50.875872727923976 7.477001284107903" fill="#44ff2d" stroke="none" /><path d="M 79.73907114497095 94.47779374421319 l -50.63232779988676 -13.800066093819874 a73.47927631578948,73.47927631578948 0 0,0 0.3421387828298259,-1.214129839948569 l 50.38797052498235 14.667203857671456" fill="#30ff33" stroke="none" /><path d="M 80.41425534168474 92.42381321644754 l -49.447562583082124 -19.127379461764832 a74.01809210526315,74.01809210526315 0 0,0 0.46857444004536236,-1.1811136843935723 l 49.111929468070635 19.97339416337199" fill="#31ff41" stroke="none" /><path d="M 80.68587082218212 91.75594674310238 l -49.87365593614155 -21.28809804823889 a75.22697368421052,75.22697368421052 0 0,0 0.517153626590499,-1.1833487039936874 l 49.50086842753408 22.141108822008444" fill="#35ff61" stroke="none" /><path d="M 80.9802524753101 91.09779779509293 l -46.83612827954889 -21.921672929583664 a72.7125,72.7125 0 0,0 0.538836819313829,-1.1259617115996357 l 46.45291220227516 22.722447143248388" fill="#3dff2e" stroke="none" /><path d="M 81.46374523516351 90.13048839642627 l -49.31619359802551 -26.25809534529747 a76.87105263157895,76.87105263157895 0 0,0 0.6301766281185456,-1.1594540174652739 l 48.85817162029161 27.100804196237362" fill="#39ff8b" stroke="none" /><line stroke="#e1ed5e" stroke-width="0.3" x1="26.387840678322718" x2="22.05771365940052" y1="57.49999999999999" y2="54.99999999999999" /><path d="M 25.521815274538284 56.99999999999999 a86.0,86.0 0 0,1 29.574782752854787,-30.34633250058573" fill="none" id="id71" stroke="none" /><text fill="#e1ed5e" style="font-size:6.75px; font-family:Arial;" text-anchor="middle"><textPath startOffset="21.40746469413373" xlink:href="#id71">November</textPath></text><path d="M 81.99639281039701 89.18935116829357 l -46.803456453760674 -28.10413082795261 a75.59309210526317,75.59309210526317 0 0,0 0.6775734095278403,-1.1067652428451071 l 46.314115079777444 28.903433186922257" fill="#36ff6b" stroke="none" /><path d="M 82.576782715395 88.27688183743585 l -46.274689590756836 -31.13567633044177 a76.77434210526316,76.77434210526316 0 0,0 0.7451142319192787,-1.087143932378827 l 45.73338562202225 31.92545499789063" fill="#39ff89" stroke="none" /><path d="M 83.2033758604659 87.39550010848427 l -42.599332932831565 -31.967333606442867 a74.25986842105263,74.25986842105263 0 0,0 0.7738869221846061,-1.0130428232435835 l 42.04429403329265 32.693897342927336" fill="#32ff48" stroke="none" /><path d="M 83.64595745247003 86.82634096563983 l -42.6711399628315 -34.37284982254764 a75.79342105263157,75.79342105263157 0 0,0 0.8248965458268923,-1.0062396596066236 l 42.074796597765975 35.10029176385276" fill="#36ff70" stroke="none" /><line stroke="#e1ed5e" stroke-width="0.3" x1="56.869717070023135" x2="54.33264160355391" y1="26.7553504044142" y2="22.446841604673864" /><path d="M 56.362301976729285 25.89364864446614 a86.0,86.0 0 0,1 42.16139366436587,-11.88097634709845" fill="none" id="id72" stroke="none" /><text fill="#e1ed5e" style="font-size:6.75px; font-family:Arial;" text-anchor="middle"><textPath startOffset="22.145653131862474" xlink:href="#id72">December</textPath></text><path d="M 93.27111125876988 80.10723608172694 l -18.06839434034919 -53.41599732396807 a77.3891447368421,77.3891447368421 0 0,0 1.2620963059645174,-0.4148761241885112 l 17.14877529673691 53.71829436955861" fill="#3bff98" stroke="none" /><path d="M 94.30408787586887 79.78721728523814 l -15.223449344922841 -54.02265117021058 a77.12664473684211,77.12664473684211 0 0,0 1.2774324534751067,-0.34816989568443424 l 14.293835490513057 54.276021560039155" fill="#3aff91" stroke="none" /><path d="M 95.70440661134978 79.44403061299748 l -11.110608820709409 -53.168285292763414 a75.31677631578947,75.31677631578947 0 0,0 1.2678450060051842,-0.25360450927130607 l 10.196267329173248 53.35117919869759" fill="#35ff64" stroke="none" /><path d="M 96.76829788921471 79.25015418208739 l -8.95202745885625 -57.47843803705336 a79.17138157894738,79.17138157894738 0 0,0 1.3446878173126064,-0.1976228022768033 l 7.964014535935959 57.62364191262904" fill="#40ffc3" stroke="none" /></svg>