<?xml version="1.0" encoding="utf-8" ?>
<svg baseProfile="full" height="200mm" version="1.1" viewBox="0,0,200,200" width="200mm" xmlns="http://www.w3.org/2000/svg" xmlns:ev="http://www.w3.org/2001/xml-events" xmlns:xlink="http://www.w3.org/1999/xlink"><defs /><rect fill="#2b2b2b" height="200" width="200" x="0" y="0" /><text alignment-baseline="middle" fill="#e1ed5e" style="dominant-baseline: central; font-size:9.0px; font-family:Arial;" text-anchor="middle" x="100.0" y="100.0">2022</text><line stroke="#e1ed5e" stroke-width="0.3" x1="100.0" x2="100.0" y1="15.0" y2="10.0" /><path d="M 100.0 14.0 a86.0,86.0 0 0,1 42.46469731375804,11.215312516191453" fill="none" id="id85" stroke="none" /><text fill="#e1ed5e" style="font-size:6.75px; font-family:Arial;" text-anchor="middle"><textPath startOffset="22.20632615414155" xlink:href="#id85">January</textPath></text><path d="M 100.0 79.0 l 0.0 -41.182537363584565 a62.182537363584565,62.182537363584565 0 0,0 1.0703701623128787,0.009213013914947376 l -0.7088896830403503 41.17643572627818" fill="#7cff26" stroke="none" /><path d="M 100.36148047927253 79.00311137660856 l 0.6827882459294433 -39.66031245170715 a60.666189425703806,60.666189425703806 0 0,0 1.0439592858415292,0.026962388373384626 l -1.3653741669658404 39.6426832711914" fill="#93ff23" stroke="none" /><path d="M 100.72285384407766 79.0124445844662 l 1.1723392736015028 -34.03805025331617 a55.058233137080165,55.058233137080165 0 0,0 0.9468945547572379,0.040775271373452986 l -1.7580746607480722 34.01282725541852" fill="#f0ff19" stroke="none" /><path d="M 101.08401301168833 79.027996857942 l 1.854069414073158 -35.87000262752892 a56.91788777045684,56.91788777045684 0 0,0 0.9780063813080264,0.058996015740077075 l -2.4712378442207963 35.83277334240854" fill="#d0ff1d" stroke="none" /><path d="M 101.44485096284872 79.0497635885617 l 2.3595320297400093 -34.21304696087877 a55.294314014813956,55.294314014813956 0 0,0 0.9489815830199211,0.07365923509681581 l -2.948103802122272 34.167362463593484" fill="#ecff1a" stroke="none" /><path d="M 101.80526077348638 79.07773832637324 l 3.8182416575949483 -44.2519176545697 a65.41633917223042,65.41633917223042 0 0,0 1.1210331783727574,0.10645560814387582 l -4.579399963057949 44.17963650191064" fill="#4cff2c" stroke="none" /><path d="M 102.16513564639614 79.11191278185805 l 5.592584376120441 -53.95430555017 a75.24337828164035,75.24337828164035 0 0,0 1.2871393723418287,0.14462510580901497 l -6.5204904519719955 53.85004449089038" fill="#3dffb0" stroke="none" /><path d="M 102.52436894288641 79.15227682838746 l 4.182031366659701 -34.5376742463929 a55.78994579906208,55.78994579906208 0 0,0 0.9523749460147296,0.12364560133667984 l -4.775921041182277 34.46057032189209" fill="#e3ff1b" stroke="none" /><path d="M 102.88285421437855 79.19881850522331 l 7.75115850030129 -55.928341417814025 a77.46290668965214,77.46290668965214 0 0,0 1.3191970618276283,0.19441535502232596 l -8.712724542557574 55.78663157863073" fill="#41ffd1" stroke="none" /><path d="M 103.2404852339499 79.25152402106235 l 4.823304315483325 -30.883095124283837 a52.25747636926763,52.25747636926763 0 0,0 0.8875578848478883,0.1464546558893169 l -5.354191406470089 30.795494205454897" fill="#ffdd14" stroke="none" /><path d="M 103.59715602781102 79.31037775812273 l 7.270512967838835 -41.81752630307583 a63.444856754664066,63.444856754664066 0 0,0 1.0743476477564817,0.19633016557015187 l -7.989255736698217 41.686180656154946" fill="#69ff28" stroke="none" /><path d="M 103.95276090670814 79.375362276772 l 3.752088228497917 -19.577571789639247 a40.93387777761545,40.93387777761545 0 0,0 0.6908733940549567,0.13858270344797782 l -4.088528032019999 19.51008513011406" fill="#ff0000" stroke="none" /><path d="M 104.307194497241 79.44645832069477 l 5.266306515341303 -25.130337282980516 a46.67621148592383,46.67621148592383 0 0,0 0.7849544616763175,0.1715606422255147 l -5.698103701171148 25.03596314265913" fill="#ff740a" stroke="none" /><path d="M 105.36241919743992 79.69619591428918 l 10.194699302868633 -38.600334986305654 a60.923899545647124,60.923899545647124 0 0,0 1.0116329699185598,0.2765175053355726 l -10.857630162010905 38.41913094014379" fill="#8fff24" stroke="none" /><path d="M 105.71112130821622 79.79150937346287 l 10.336112481153545 -36.57376912826677 a59.006260135283206,59.006260135283206 0 0,0 0.9750356896428308,0.2846396550458037 l -10.964138388519803 36.39043114430226" fill="#aeff20" stroke="none" /><path d="M 106.0581310904928 79.89281104454417 l 9.702532965074179 -32.203110292784416 a54.63301143917369,54.63301143917369 0 0,0 0.8981006991269245,0.27904425894892765 l -10.255419036911821 32.031325898952964" fill="#f7ff18" stroke="none" /><path d="M 106.40334571778207 80.00007090966166 l 12.073172556206819 -37.70881749348852 a60.59439874943388,60.59439874943388 0 0,0 0.9906237126939632,0.3265930631047245 l -12.720479091143199 37.49541070612455" fill="#94ff23" stroke="none" /><path d="M 106.74666289553966 80.11325718540242 l 11.683626539175615 -34.43914120564743 a57.367039693786616,57.367039693786616 0 0,0 0.9324001438621847,0.3252961020367723 l -12.274708687101073 34.23292425043845" fill="#c9ff1d" stroke="none" /><path d="M 107.08798089147638 80.2323363322302 l 17.371605755858234 -48.447655998035884 a72.46793232917939,72.46793232917939 0 0,0 1.1705906409892644,0.43113841209714615 l -18.202978722620074 48.14145431813241" fill="#38ff84" stroke="none" /><path d="M 107.4271985657038 80.35727306442388 l 22.28159569711141 -58.92818080672834 a84.0,84.0 0 0,0 1.3480673400013319,0.5230291844378128 l -23.292646202112408 58.53590891839998" fill="#4dd2ff" stroke="none" /><line stroke="#e1ed5e" stroke-width="0.3" x1="143.23703022742887" x2="145.7803849466894" y1="26.81831364943548" y2="22.513508569990506" /><path d="M 143.74570117128098 25.957352633546492 a86.0,86.0 0 0,1 28.547481713284135,27.462654790039103" fill="none" id="id86" stroke="none" /><text fill="#e1ed5e" style="font-size:6.75px; font-family:Arial;" text-anchor="middle"><textPath startOffset="19.985693538727396" xlink:href="#id86">February</textPath></text><line stroke="#e1ed5e" stroke-width="0.3" x1="172.23445277983987" x2="176.4835382374775" y1="55.19839476539836" y2="52.563006222186495" /><path d="M 173.08426987136738 54.67131705675599 a86.0,86.0 0 0,1 12.851231095245387,41.99856678651699" fill="none" id="id87" stroke="none" /><text fill="#e1ed5e" style="font-size:6.75px; font-family:Arial;" text-anchor="middle"><textPath startOffset="22.20632615414155" xlink:href="#id87">March</textPath></text><line stroke="#e1ed5e" stroke-width="0.3" x1="184.98032266829074" x2="189.97916517819016" y1="98.17113171792111" y2="98.06355123074" /><path d="M 185.9800911702706 98.14961562048488 a86.0,86.0 0 0,1 -9.607161424134198,41.387399972396054" fill="none" id="id88" stroke="none" /><text fill="#e1ed5e" style="font-size:6.75px; font-family:Arial;" text-anchor="middle"><textPath startOffset="21.466115282336823" xlink:href="#id88">April</textPath></text><line stroke="#e1ed5e" stroke-width="0.3" x1="174.80103733775053" x2="179.2010983576182" y1="140.37084112569926" y2="142.7455964860345" /><path d="M 175.68104954172406 140.8457921977663 a86.0,86.0 0 0,1 -30.038265399797805,32.042727171017184" fill="none" id="id89" stroke="none" /><text fill="#e1ed5e" style="font-size:6.75px; font-family:Arial;" text-anchor="middle"><textPath startOffset="22.206326154141568" xlink:href="#id89">May</textPath></text><line stroke="#e1ed5e" stroke-width="0.3" x1="143.8653032363475" x2="146.44561519142675" y1="172.8068346515853" y2="177.08958963109032" /><path d="M 144.38136562736335 173.6633856474863 a86.0,86.0 0 0,1 -40.68145358897372,12.25698825130547" fill="none" id="id90" stroke="none" /><text fill="#e1ed5e" style="font-size:6.75px; font-family:Arial;" text-anchor="middle"><textPath startOffset="21.466115282336833" xlink:href="#id90">June</textPath></text><line stroke="#e1ed5e" stroke-width="0.3" x1="102.19456741930631" x2="102.32365962044197" y1="184.97166512339345" y2="189.96999836594603" /><path d="M 102.22038585953345 185.97133177190398 a86.0,86.0 0 0,1 -42.740103519485714,-10.115201625700543" fill="none" id="id91" stroke="none" /><text fill="#e1ed5e" style="font-size:6.75px; font-family:Arial;" text-anchor="middle"><textPath startOffset="22.20632615414155" xlink:href="#id91">July</textPath></text><line stroke="#e1ed5e" stroke-width="0.3" x1="58.666819895761336" x2="56.23545636021788" y1="174.27360380694188" y2="178.64263932499728" /><path d="M 58.180547188652646 175.14741091055294 a86.0,86.0 0 0,1 -31.652253787137756,-30.449443065178592" fill="none" id="id92" stroke="none" /><text fill="#e1ed5e" style="font-size:6.75px; font-family:Arial;" text-anchor="middle"><textPath startOffset="22.20632615414155" xlink:href="#id92">August</textPath></text><line stroke="#e1ed5e" stroke-width="0.3" x1="26.63291911575756" x2="22.317208475507996" y1="142.92168965132927" y2="145.44649492493687" /><path d="M 25.769776987707644 143.4266507060508 a86.0,86.0 0 0,1 -11.730757126820373,-40.83630448921669" fill="none" id="id93" stroke="none" /><text fill="#e1ed5e" style="font-size:6.75px; font-family:Arial;" text-anchor="middle"><textPath startOffset="21.46611528233685" xlink:href="#id93">September</textPath></text><line stroke="#e1ed5e" stroke-width="0.3" x1="15.007084014347285" x2="10.007500721073583" y1="101.09737516637583" y2="101.16192664675087" /><path d="M 14.007167355692545 101.11028546245083 a86.0,86.0 0 0,1 10.666146001902534,-42.60595125391555" fill="none" id="id94" stroke="none" /><text fill="#e1ed5e" style="font-size:6.75px; font-family:Arial;" text-anchor="middle"><textPath startOffset="22.20632615414155" xlink:href="#id94">October</textPath></text><line stroke="#e1ed5e" stroke-width="0.3" x1="26.266209847984243" x2="21.928928074336255" y1="57.711370442889674" y2="55.22380399835377" /><path d="M 25.398753493254645 57.213857153982495 a86.0,86.0 0 0,1 29.58750427330803,-30.492523968695096" fill="none" id="id95" stroke="none" /><text fill="#e1ed5e" style="font-size:6.75px; font-family:Arial;" text-anchor="middle"><textPath startOffset="21.46611528233685" xlink:href="#id95">November</textPath></text><line stroke="#e1ed5e" stroke-width="0.3" x1="56.762969772571076" x2="54.21961505331055" y1="26.818313649435495" y2="22.513508569990535" /><path d="M 56.25429882871897 25.957352633546506 a86.0,86.0 0 0,1 42.265352541879196,-11.944610805530505" fill="none" id="id96" stroke="none" /><text fill="#e1ed5e" style="font-size:6.75px; font-family:Arial;" text-anchor="middle"><textPath startOffset="22.20632615414155" xlink:href="#id96">December</textPath></text></svg>